<?xml version="1.0" encoding="UTF-8" standalone="no"?>
<!-- Created with Inkscape (http://www.inkscape.org/) -->

<svg
   width="235.97424mm"
   height="24.575977mm"
   viewBox="0 0 235.97424 24.575977"
   version="1.1"
   id="svg11314"
   xmlns="http://www.w3.org/2000/svg"
   xmlns:svg="http://www.w3.org/2000/svg">
  <defs
     id="defs11311" />
  <g
     id="layer1"
     transform="translate(14.822455,-139.42475)">
    <g
       id="g11261"
       transform="translate(-41.507747,98.06212)">
      <path
         style="fill:#b9b9b9;fill-opacity:1;stroke-width:0.264583"
         d="m 174.95777,56.576174 c 2.7e-4,-2.182813 0.0414,-3.040574 0.0911,-1.906137 0.0497,1.134438 0.0494,2.920376 -7.9e-4,3.968751 -0.05,1.048375 -0.0906,0.120198 -0.0903,-2.062614 z m 5.82484,-0.926042 c 0,-2.692136 0.0393,-3.793464 0.0873,-2.447396 0.048,1.346068 0.048,3.548724 0,4.894792 -0.048,1.346068 -0.0873,0.244739 -0.0873,-2.447396 z m 16.40963,-1.984375 c 1.5e-4,-3.783542 0.0373,-5.294561 0.0826,-3.35782 0.0453,1.93674 0.0452,5.032365 -2.6e-4,6.879167 -0.0454,1.846801 -0.0825,0.262195 -0.0823,-3.521347 z m 13.98962,-0.79375 c 0.002,-0.873125 0.0509,-1.198415 0.10976,-0.722866 0.0589,0.475549 0.0577,1.189924 -0.003,1.5875 -0.0604,0.397576 -0.10855,0.0085 -0.10707,-0.864634 z"
         id="path11275" />
      <path
         style="fill:#a3a3a3;fill-opacity:1;stroke-width:0.264583"
         d="m 211.20088,57.369924 c 5.3e-4,-1.74625 0.0433,-2.426194 0.0952,-1.510986 0.0518,0.915208 0.0514,2.343958 -10e-4,3.175 -0.0522,0.831042 -0.0946,0.08224 -0.0941,-1.664014 z m -2.37786,-2.38125 c 5.3e-4,-2.037292 0.0419,-2.835755 0.0923,-1.774362 0.0504,1.061392 0.05,2.728267 -7.9e-4,3.704166 -0.0507,0.9759 -0.0919,0.107487 -0.0915,-1.929804 z m -14.04049,0 c 0.001,-1.018646 0.049,-1.402944 0.10627,-0.853995 0.0573,0.548949 0.0563,1.382387 -0.002,1.852083 -0.0585,0.469697 -0.10533,0.02056 -0.10415,-0.998088 z"
         id="path11273" />
      <path
         style="fill:#8c8c8c;fill-opacity:1;stroke-width:0.264583"
         d="m 183.16286,55.914715 c 0,-2.546614 0.0397,-3.588411 0.0882,-2.315104 0.0485,1.273307 0.0485,3.356901 0,4.630209 -0.0485,1.273307 -0.0882,0.23151 -0.0882,-2.315105 z m 48.6848,-0.396875 c 2.5e-4,-2.764896 0.0395,-3.860039 0.0871,-2.433653 0.0477,1.426387 0.0474,3.688574 -5.3e-4,5.027084 -0.0479,1.338509 -0.0868,0.171465 -0.0866,-2.593431 z M 172.5772,55.385549 c 0,-2.255573 0.0406,-3.178308 0.0902,-2.050521 0.0496,1.127786 0.0496,2.973255 0,4.101041 -0.0496,1.127787 -0.0902,0.205053 -0.0902,-2.05052 z m -46.57419,-0.926042 c 5.3e-4,-1.600729 0.0442,-2.22146 0.0968,-1.379402 0.0527,0.842058 0.0522,2.151746 -0.001,2.910417 -0.0533,0.758671 -0.0964,0.06971 -0.0958,-1.531015 z m 68.79466,-4.365625 c 0,-1.819011 0.0423,-2.563151 0.0939,-1.653646 0.0517,0.909505 0.0517,2.397786 0,3.307292 -0.0517,0.909505 -0.0939,0.165364 -0.0939,-1.653646 z"
         id="path11271" />
      <path
         style="fill:#767676;fill-opacity:1;stroke-width:0.264583"
         d="m 125.98873,58.825132 c 0,-0.945885 0.048,-1.332839 0.10671,-0.859896 0.0587,0.472943 0.0587,1.246849 0,1.719792 -0.0587,0.472943 -0.10671,0.08599 -0.10671,-0.859896 z m 34.69101,-5.159375 c 1.5e-4,-3.783542 0.0373,-5.294561 0.0826,-3.35782 0.0453,1.93674 0.0451,5.032365 -2.7e-4,6.879167 -0.0454,1.846801 -0.0825,0.262195 -0.0823,-3.521347 z m 58.72803,2.910417 c 2.7e-4,-2.182813 0.0414,-3.040574 0.0911,-1.906137 0.0497,1.134438 0.0494,2.920376 -7.9e-4,3.968751 -0.05,1.048375 -0.0907,0.120198 -0.0903,-2.062614 z"
         id="path11269" />
      <path
         style="fill:#606060;fill-opacity:1;stroke-width:0.264583"
         d="m 50.33601,54.194924 c 5.29e-4,-1.891771 0.04261,-2.63096 0.09365,-1.642643 0.05105,0.988318 0.05067,2.53613 -7.94e-4,3.439584 -0.05156,0.903453 -0.09332,0.09483 -0.09286,-1.796941 z m 22.893382,2.16569 c 0.119578,-0.119579 0.67959,-0.177008 1.24447,-0.127621 l 1.027055,0.0898 -1.244471,0.127621 c -0.684458,0.07019 -1.146632,0.02978 -1.027054,-0.0898 z M 186.57291,54.591799 c 0,-0.800365 0.0496,-1.127787 0.11022,-0.727605 0.0606,0.400183 0.0606,1.055026 0,1.455209 -0.0606,0.400182 -0.11022,0.07276 -0.11022,-0.727604 z m -68.79167,-1.5875 c 0,-0.800365 0.0496,-1.127787 0.11023,-0.727605 0.0606,0.400183 0.0606,1.055026 0,1.455209 -0.0606,0.400182 -0.11023,0.07276 -0.11023,-0.727604 z"
         id="path11267" />
      <path
         style="fill:#494949;fill-opacity:1;stroke-width:0.264583"
         d="m 56.438214,50.887632 c 0,-5.311511 0.03531,-7.484401 0.07847,-4.828646 0.04316,2.655755 0.04316,7.001536 0,9.657292 -0.04316,2.655755 -0.07847,0.482864 -0.07847,-4.828646 z M 164.3839,53.665757 c 1.5e-4,-3.783542 0.0373,-5.294561 0.0826,-3.35782 0.0453,1.93674 0.0451,5.032365 -2.6e-4,6.879167 -0.0454,1.846801 -0.0825,0.262195 -0.0823,-3.521347 z m 36.24764,0.132292 c 0,-3.710782 0.0372,-5.228829 0.0827,-3.373438 0.0455,1.855391 0.0455,4.891484 0,6.746875 -0.0455,1.855391 -0.0827,0.337344 -0.0827,-3.373437 z m 61.91709,-2.910417 c 0,-5.311511 0.0353,-7.484401 0.0785,-4.828646 0.0432,2.655755 0.0432,7.001536 0,9.657292 -0.0432,2.655755 -0.0785,0.482864 -0.0785,-4.828646 z m -144.75276,5.688542 c -7.9e-4,-1.309688 0.0439,-1.878827 0.0994,-1.264755 0.0555,0.614073 0.0561,1.685636 0.002,2.381251 -0.0548,0.695614 -0.1002,0.193191 -0.10101,-1.116496 z M 240.03609,53.93034 c 7.9e-4,-1.455208 0.0451,-2.016764 0.0987,-1.247901 0.0536,0.768862 0.0531,1.959487 -0.001,2.645833 -0.0542,0.686346 -0.0981,0.05728 -0.0974,-1.397932 z M 111.70724,52.607424 c 0.001,-1.164167 0.0475,-1.607504 0.10337,-0.985194 0.0559,0.62231 0.0551,1.57481 -0.002,2.116666 -0.0568,0.541857 -0.10248,0.03269 -0.10152,-1.131472 z m 74.88834,-2.513542 c 0,-1.819011 0.0423,-2.563151 0.0939,-1.653646 0.0517,0.909505 0.0517,2.397786 0,3.307292 -0.0517,0.909505 -0.0939,0.165364 -0.0939,-1.653646 z"
         id="path11265" />
      <path
         style="fill:#333333;fill-opacity:1;stroke-width:0.264583"
         d="m 93.341599,65.607099 c -1.603928,-0.432464 -3.458613,-1.542209 -4.361337,-2.609591 -3.797866,-4.490595 -2.989849,-13.820549 1.540434,-17.787037 1.988277,-1.740835 3.733196,-2.357478 6.699064,-2.367405 2.188983,-0.0073 2.561493,0.06936 4.16027,0.856432 2.91949,1.437261 4.39372,3.766791 4.9599,7.837459 0.48444,3.48302 -0.51599,7.020786 -2.33136,8.244229 -1.79366,1.208816 -4.465641,0.921256 -5.137302,-0.552881 L 98.56023,58.54565 97.741503,59.339191 c -1.170689,1.134677 -2.193203,1.436097 -3.447669,1.016314 -1.908503,-0.638644 -2.66315,-2.584088 -2.228726,-5.745552 0.612524,-4.457565 3.451686,-7.044114 6.724208,-6.125924 2.037284,0.571612 2.003714,0.464798 1.557524,4.955765 -0.27899,2.808007 -0.31523,4.177201 -0.12389,4.680472 0.66587,1.751349 2.94684,1.375965 4.03582,-0.664183 0.54187,-1.015174 0.61024,-1.503243 0.60512,-4.319493 -0.005,-2.751505 -0.0884,-3.359469 -0.62528,-4.55799 -1.33472,-2.979637 -4.11336,-4.486671 -7.83238,-4.247999 -4.420819,0.283711 -7.355324,3.517665 -8.074731,8.898716 -0.680646,5.091097 1.022183,9.170437 4.463402,10.692653 1.51476,0.67005 4.973491,0.731737 6.44041,0.114864 0.943169,-0.396621 0.986909,-0.39116 1.156909,0.144449 0.22844,0.719767 -0.34556,1.142447 -2.046999,1.507339 -1.67663,0.359572 -3.476445,0.330248 -5.003622,-0.08152 z m 3.908258,-7.377279 c 0.920014,-1.010093 1.080079,-1.559112 1.399214,-4.799338 0.344649,-3.499256 0.280006,-3.707017 -1.153419,-3.707017 -1.871625,0 -3.072439,1.5595 -3.619434,4.700571 -0.497803,2.858605 0.141925,4.401096 1.825302,4.401096 0.706329,0 1.167675,-0.177381 1.548337,-0.595312 z m -66.770375,2.203877 c -1.87945,-0.46996 -3.79419,-2.236124 -3.79419,-3.499776 0,-0.392769 0.203702,-0.490039 1.026234,-0.490039 0.894338,0 1.069155,0.10362 1.360185,0.806227 0.472295,1.140224 1.616644,1.659646 3.341301,1.516624 1.716907,-0.14238 2.474363,-0.738637 2.474363,-1.94778 0,-1.073088 -0.795534,-1.758347 -2.567215,-2.211352 -3.971253,-1.015418 -5.105701,-1.888305 -5.105701,-3.928519 0,-2.489699 1.94128,-3.880338 5.187941,-3.716389 2.134396,0.107782 2.961683,0.535261 4.00633,2.070165 0.928909,1.36485 0.804876,1.854774 -0.46957,1.854774 -0.860475,0 -1.108584,-0.114272 -1.292552,-0.595313 -0.419996,-1.098204 -1.307722,-1.653646 -2.642917,-1.653646 -1.701283,0 -2.672565,0.660411 -2.672565,1.817176 0,1.198006 0.55894,1.619861 3.045113,2.298271 3.69389,1.007963 4.627803,1.811312 4.627803,3.98082 0,1.047402 -0.145623,1.443885 -0.806975,2.197123 -1.134045,1.291606 -3.779233,1.986323 -5.717585,1.501634 z m 12.68275,-0.01407 c -4.232973,-1.002295 -4.309166,-6.591017 -0.104379,-7.656117 0.526706,-0.133418 1.880382,-0.322574 3.008168,-0.420346 L 48.116542,52.1654 v -1.000078 c 0,-2.010657 -1.782331,-3.080683 -4.016495,-2.411312 -0.69682,0.208773 -1.204697,0.579162 -1.495832,1.090894 -0.364049,0.639895 -0.613552,0.77509 -1.432985,0.776471 -1.171468,0.002 -1.253597,-0.327704 -0.396875,-1.593138 1.808283,-2.670956 7.193061,-2.873043 8.859673,-0.332498 0.385186,0.587172 0.496536,1.570456 0.636304,5.618993 0.09318,2.699001 0.255892,5.175166 0.361588,5.502588 0.180499,0.559145 0.117964,0.595312 -1.029311,0.595312 -1.008081,0 -1.221484,-0.08475 -1.221484,-0.485069 0,-0.786249 -0.235288,-0.816109 -1.405402,-0.178357 -1.313141,0.715707 -2.638338,0.948682 -3.813491,0.670426 z m 2.673,-1.882326 c 1.714842,-0.476145 2.28131,-1.264208 2.28131,-3.173726 v -1.633522 l -2.128145,0.123197 c -2.435403,0.140983 -3.403728,0.658205 -3.796549,2.027891 -0.322284,1.123738 0.135946,2.074722 1.228522,2.549604 1.052912,0.457642 1.13705,0.461354 2.414862,0.106556 z m 18.685476,1.903434 c -2.161172,-0.462301 -3.98758,-2.101616 -4.512228,-4.050004 -0.165637,-0.615134 -0.259945,-2.01893 -0.209571,-3.119545 0.115581,-2.525262 0.949206,-4.280327 2.576235,-5.423847 1.023099,-0.71906 1.331198,-0.796171 3.181138,-0.796171 1.837135,0 2.148753,0.0766 3.022359,0.742932 1.34406,1.025164 2.080004,2.588342 2.23497,4.747173 l 0.128199,1.785937 h -4.533466 -4.533469 v 0.619844 c 0,1.045302 1.134925,2.859346 2.119133,3.387182 1.620914,0.869306 3.320634,0.614674 4.760034,-0.71309 0.657137,-0.606173 0.665541,-0.606822 1.286814,-0.09937 0.58719,0.479615 0.600138,0.549271 0.212153,1.141411 -0.845968,1.29111 -3.769002,2.197524 -5.732301,1.77755 z m 4.110914,-8.957796 c -0.253672,-1.388179 -0.82168,-2.162085 -1.925307,-2.623209 -2.108716,-0.881078 -4.051623,0.321116 -4.667057,2.887793 l -0.174464,0.727604 h 3.47407 3.474069 z m 8.414525,8.950753 c -1.879449,-0.46996 -3.794189,-2.236124 -3.794189,-3.499776 0,-0.393048 0.203793,-0.490039 1.02965,-0.490039 0.880999,0 1.053915,0.09668 1.197727,0.669665 0.390289,1.555037 3.374265,2.24655 5.114811,1.185318 0.70205,-0.428049 0.859896,-0.691464 0.859896,-1.435015 0,-1.196133 -0.789636,-1.80918 -3.067233,-2.381294 -3.427143,-0.86087 -4.677844,-1.90066 -4.677844,-3.888999 0,-2.106772 1.998001,-3.662928 4.712451,-3.670323 2.569628,-0.007 4.568278,1.278168 5.033743,3.236794 0.166886,0.70224 0.135644,0.727604 -0.89627,0.727604 -0.80621,0 -1.107231,-0.119862 -1.223857,-0.487319 -0.47144,-1.485379 -2.520172,-2.235462 -4.194744,-1.535782 -2.011881,0.840619 -1.734492,2.811128 0.493395,3.504932 0.573228,0.178514 1.740054,0.533896 2.592941,0.789738 0.918128,0.275412 1.916496,0.810149 2.447395,1.310853 0.791306,0.746297 0.896689,1.00418 0.896689,2.1943 0,1.126088 -0.133154,1.500269 -0.806974,2.267709 -1.134046,1.291606 -3.779234,1.986323 -5.717587,1.501634 z m 57.621633,-0.02161 c -3.68646,-0.870372 -4.28964,-5.677042 -0.91344,-7.279154 0.53985,-0.256176 2.00071,-0.572811 3.24635,-0.703631 1.24564,-0.130821 2.41932,-0.291534 2.60817,-0.35714 0.49156,-0.170762 0.12734,-1.95781 -0.55066,-2.701829 -1.16455,-1.277965 -4.06754,-0.995714 -4.82504,0.469129 -0.34766,0.67231 -0.55707,0.78359 -1.47458,0.78359 -0.98735,0 -1.05519,-0.04566 -0.88453,-0.595312 0.60004,-1.932633 2.57029,-3.109097 5.20575,-3.108443 1.98205,5.03e-4 3.25488,0.561509 4.08129,1.798878 0.69514,1.040845 0.8501,2.296862 0.94648,7.671649 l 0.0726,4.04698 -1.06045,-0.07823 c -0.86939,-0.06414 -1.07567,-0.185481 -1.14499,-0.673542 -0.10309,-0.725841 -0.17277,-0.730718 -1.09168,-0.0764 -0.60311,0.429454 -2.70282,1.110859 -3.1894,1.035035 -0.0728,-0.01134 -0.53439,-0.11555 -1.02584,-0.231581 z m 3.72619,-2.276598 c 1.19926,-0.620163 1.54452,-1.383732 1.3538,-2.994071 l -0.16739,-1.413359 -2.11496,0.144963 c -2.31587,0.158733 -3.30576,0.648193 -3.73239,1.845511 -0.34598,0.970999 0.2692,2.289689 1.27827,2.740052 0.90049,0.401906 2.22538,0.275359 3.38267,-0.323096 z m 51.40695,2.296008 c -1.38179,-0.333466 -2.01494,-0.823537 -2.53023,-1.958437 -0.43652,-0.961424 -0.50161,-1.774401 -0.50667,-6.328653 l -0.006,-5.225521 h 1.05833 1.05833 v 5.179727 5.179728 l 0.7734,0.773398 c 0.89394,0.89394 1.84491,0.991858 3.43885,0.354087 1.7807,-0.712493 1.87317,-1.037464 1.87317,-6.58284 v -4.9041 h 1.05833 1.05834 v 6.746875 6.746875 h -1.05834 c -0.95584,0 -1.05833,-0.06482 -1.05833,-0.669379 v -0.66938 l -0.7276,0.527789 c -0.40019,0.290284 -1.26339,0.648125 -1.91823,0.795203 -1.3371,0.300312 -1.40855,0.301296 -2.51354,0.03463 z m 65.39441,-0.09945 c -1.27805,-0.397855 -2.46826,-1.557606 -3.1757,-3.094408 -0.65871,-1.430944 -0.77425,-5.104125 -0.21085,-6.703423 0.42453,-1.205091 1.67545,-2.697551 2.70889,-3.231968 1.17707,-0.608685 3.35769,-0.48451 4.67022,0.265946 l 1.12448,0.642931 v -3.424243 -3.424244 h 1.05834 1.05833 v 9.525001 9.525 H 261.503 c -0.74027,0 -0.92604,-0.103024 -0.92604,-0.513552 0,-0.596956 -0.41602,-0.941908 -0.65996,-0.547215 -0.56372,0.912125 -3.18936,1.457184 -4.72167,0.980175 z m 3.37117,-1.875834 c 1.53971,-0.643334 1.74587,-1.211743 1.74587,-4.813639 0,-3.721748 -0.27483,-4.343777 -2.1269,-4.813884 -2.14201,-0.5437 -3.71043,0.462667 -4.3959,2.820612 -0.7971,2.74191 -0.005,5.73704 1.76953,6.688573 1.08735,0.583153 1.82543,0.612196 3.0074,0.118338 z M 54.201959,50.887632 v -9.525001 h 1.058333 1.058333 v 9.525001 9.525 h -1.058333 -1.058333 z m 55.297911,2.778125 v -6.746875 h 1.05834 c 1.01109,0 1.05833,0.03726 1.05833,0.834757 0,0.784762 0.0283,0.809136 0.47271,0.406966 1.88485,-1.705772 5.81111,-1.632856 7.04647,0.130863 l 0.40755,0.581859 0.6007,-0.549399 c 1.6194,-1.481105 4.54923,-1.899375 6.21025,-0.886591 1.62359,0.989962 1.78918,1.659346 1.88443,7.617482 l 0.0856,5.357813 h -1.06212 -1.06211 l -0.0819,-5.153982 c -0.0817,-5.145822 -0.0829,-5.155068 -0.76793,-5.839431 -0.81487,-0.814127 -2.65317,-1.00378 -3.79683,-0.391709 -1.31632,0.704469 -1.47023,1.396405 -1.47023,6.609483 v 4.775639 l -1.12448,8.4e-5 -1.12448,8.4e-5 v -4.971322 c 0,-4.2782 -0.0642,-5.069501 -0.46052,-5.675499 -0.96458,-1.474927 -3.6936,-1.437482 -5.04366,0.0692 l -0.74169,0.827726 0.18586,4.874862 0.18586,4.874862 h -1.23011 -1.23012 z m 37.1961,3.334214 2.27334,-3.412661 -2.16074,-3.2252 c -1.18841,-1.773861 -2.09735,-3.288601 -2.01986,-3.366089 0.0775,-0.07749 0.66026,-0.063 1.29506,0.03219 1.11747,0.167576 1.19955,0.247832 2.58173,2.524374 1.22446,2.016759 1.47115,2.288411 1.73386,1.909317 0.16847,-0.243088 0.81352,-1.275416 1.43347,-2.294062 0.61994,-1.018646 1.26059,-1.939557 1.42367,-2.046469 0.16307,-0.106913 0.80487,-0.196209 1.4262,-0.198438 l 1.12971,-0.0041 -2.16599,3.233023 c -1.1913,1.778163 -2.16599,3.356902 -2.16599,3.50831 0,0.151408 0.77683,1.40522 1.72628,2.786248 0.94946,1.381028 1.9355,2.838383 2.1912,3.238565 l 0.46491,0.727604 -1.2872,-0.0014 -1.2872,-0.0014 -1.55264,-2.527553 -1.55263,-2.527553 -0.58365,0.875281 c -0.32101,0.481405 -1.03823,1.619422 -1.59383,2.528927 l -1.01018,1.653646 h -1.28643 -1.28642 l 2.27333,-3.412661 z m 11.75182,-3.334214 v -6.746875 h 1.05833 1.05834 v 6.746875 6.746875 h -1.05834 -1.05833 z m 6.08542,0 v -6.746875 h 0.92604 c 0.56228,0 0.92763,0.129913 0.93009,0.330729 0.002,0.181901 0.1072,0.493543 0.23326,0.692537 0.18549,0.292796 0.38645,0.245559 1.05354,-0.247646 0.57689,-0.426511 1.30127,-0.643954 2.41319,-0.724383 1.79935,-0.130153 2.9462,0.235726 3.68571,1.175853 l 0.49264,0.626295 1.37706,-0.926693 c 1.20357,-0.809944 1.58204,-0.926568 3.00412,-0.925703 1.82503,0.0011 2.99875,0.545301 3.79549,1.759775 0.41351,0.630305 0.48882,1.464118 0.5627,6.23034 l 0.0853,5.502646 h -1.07749 -1.07749 v -4.907931 c 0,-5.680413 -0.15975,-6.27804 -1.79604,-6.718647 -1.28007,-0.344687 -2.65894,0.02057 -3.51527,0.931185 -0.62579,0.665461 -0.64386,0.807459 -0.72399,5.688944 l -0.0822,5.006449 h -1.02657 -1.02657 l -0.0819,-5.132291 c -0.0734,-4.602947 -0.13372,-5.189509 -0.58456,-5.687057 -1.10421,-1.218617 -3.37027,-1.230261 -4.66163,-0.02395 l -0.78881,0.736857 v 5.053221 5.053222 h -1.05833 -1.05833 z m 36.24791,-0.01597 V 46.88694 l 0.99219,0.08212 c 0.79698,0.06596 1.00882,0.19924 1.07674,0.67743 0.10402,0.73245 0.14708,0.733321 1.10859,0.02245 0.82102,-0.607006 3.13211,-0.950363 4.34603,-0.645687 0.36786,0.09232 1.10134,0.547613 1.62996,1.011751 0.84579,0.742606 0.99776,0.793798 1.26631,0.426543 1.1604,-1.58694 4.54919,-2.095626 6.27595,-0.942072 1.65939,1.108542 1.82419,1.801096 1.82466,7.667642 l 4.1e-4,5.225523 h -1.05834 -1.05833 v -4.907931 c 0,-5.680413 -0.15976,-6.27804 -1.79605,-6.718647 -1.28007,-0.344687 -2.65893,0.02057 -3.51526,0.931185 -0.62579,0.665461 -0.64387,0.807459 -0.724,5.688944 l -0.0822,5.006449 h -1.02657 -1.02658 l -0.0819,-5.132291 c -0.0734,-4.602947 -0.13371,-5.189509 -0.58455,-5.687057 -1.12749,-1.244303 -3.73999,-1.188006 -4.85513,0.104626 -0.57212,0.663188 -0.59531,0.885274 -0.59531,5.702393 v 5.012329 h -1.05833 -1.05834 v -6.762847 z m 22.5425,6.445348 c -0.17462,-0.174625 -0.3175,-0.567531 -0.3175,-0.873125 0,-0.748784 0.49094,-1.190625 1.32292,-1.190625 0.83198,0 1.32292,0.441841 1.32292,1.190625 0,0.305594 -0.14288,0.6985 -0.3175,0.873125 -0.40929,0.409289 -1.60155,0.409289 -2.01084,0 z m 6.29709,-6.429375 v -6.746875 h 1.05833 c 1.01109,0 1.05833,0.03726 1.05833,0.834757 0,0.773275 0.0341,0.804856 0.46302,0.428781 0.91714,-0.804149 2.1807,-1.263538 3.47537,-1.263538 1.63708,0 2.437,0.294298 3.28465,1.208456 l 0.66029,0.712094 1.10311,-0.88648 c 0.96117,-0.772414 1.33063,-0.897989 2.87135,-0.975926 2.17505,-0.110024 3.34444,0.44142 4.13615,1.950473 0.48281,0.92028 0.55243,1.609208 0.63259,6.259612 l 0.0901,5.225521 h -1.21456 -1.21455 v -5.100504 c 0,-5.755424 -0.0871,-6.065897 -1.83324,-6.53609 -1.32581,-0.357004 -2.80901,0.118287 -3.56545,1.142547 -0.5213,0.705885 -0.55091,1.041844 -0.4955,5.622396 l 0.0589,4.871651 h -1.18341 -1.18341 v -4.907931 c 0,-3.854786 -0.0855,-5.073348 -0.39864,-5.678819 -0.78815,-1.524118 -3.67269,-1.563378 -5.05779,-0.06884 -0.61602,0.664704 -0.62899,0.78151 -0.62899,5.667141 v 4.988448 h -1.05833 -1.05833 z m -71.15018,-9.723438 c -0.40053,-1.060717 0.36246,-1.945842 1.44348,-1.674525 0.75747,0.190113 1.13625,1.287611 0.64759,1.876398 -0.52109,0.627882 -1.82529,0.501974 -2.09107,-0.201873 z"
         id="path11263" />
    </g>
  </g>
</svg>
