<?xml version="1.0" encoding="UTF-8" standalone="no"?>
<!-- Created with Inkscape (http://www.inkscape.org/) -->

<svg
   width="273.31458mm"
   height="31.749998mm"
   viewBox="0 0 273.31458 31.749998"
   version="1.1"
   id="svg11518"
   xmlns="http://www.w3.org/2000/svg"
   xmlns:svg="http://www.w3.org/2000/svg">
  <defs
     id="defs11515" />
  <g
     id="layer1"
     transform="translate(-10.771792,-83.719958)">
    <g
       id="g11390"
       transform="translate(-0.71395077,9.9951955)">
      <path
         style="fill:#fefefe;stroke-width:0.264583"
         d="m 11.485743,89.599762 v -15.875 H 148.14303 284.80032 v 15.875 15.874998 H 148.14303 11.485743 Z M 118.17897,101.0673 c 0.69122,-0.21866 1.25677,-0.42976 1.25677,-0.46911 0,-0.0393 -0.12738,-0.43695 -0.28307,-0.883555 l -0.28306,-0.812008 -0.97371,0.427422 c -0.63791,0.280023 -1.74927,0.430753 -3.22266,0.437078 -1.88034,0.0081 -2.46054,-0.09763 -3.53983,-0.64487 -2.69677,-1.367369 -4.13308,-4.222017 -4.13308,-8.214425 0,-6.621203 3.27811,-10.84775 8.42615,-10.86402 2.03794,-0.0064 2.95827,0.174015 4.27385,0.838013 2.31715,1.169513 3.46779,3.420622 3.64466,7.130437 0.1469,3.081038 -0.2114,4.55715 -1.39296,5.738706 -1.00443,1.004436 -1.94198,1.127493 -2.64783,0.347538 -0.42138,-0.465618 -0.45822,-0.85039 -0.31031,-3.241146 0.0923,-1.492043 0.24561,-3.448894 0.34066,-4.348557 l 0.17283,-1.635751 -0.88709,-0.539476 c -1.9778,-1.202773 -4.20819,-0.898224 -5.97998,0.816535 -2.04705,1.981162 -2.97589,7.054254 -1.71923,9.39007 1.07087,1.990493 3.64709,2.256757 5.50383,0.568846 0.55742,-0.506741 0.56624,-0.504824 1.36871,0.297647 0.69044,0.690445 1.00454,0.807671 2.16408,0.807671 3.13483,0 4.97585,-2.2843 5.22437,-6.482291 0.29665,-5.01104 -1.49708,-8.785055 -5.07231,-10.672176 -1.22237,-0.645205 -1.59318,-0.704908 -4.37818,-0.704908 -2.6975,0 -3.19281,0.07385 -4.36563,0.650895 -1.64111,0.807452 -3.29745,2.311928 -4.33046,3.933421 -2.33257,3.661394 -2.75586,9.502968 -0.97382,13.439104 1.98614,4.38696 6.97238,6.31643 12.1173,4.68891 z m -4.97296,-7.35447 c -0.54186,-0.541854 -0.64943,-0.906438 -0.64943,-2.200936 0,-3.249246 1.58135,-6.1509 3.34697,-6.141414 1.44725,0.0078 1.4888,0.137536 1.1489,3.588568 -0.32305,3.279943 -0.65932,4.301408 -1.64282,4.990278 -0.8302,0.581494 -1.45241,0.514717 -2.20362,-0.236496 z m -68.382767,4.345678 v -3.182921 l 0.805084,0.595225 c 0.605028,0.447316 1.246061,0.616249 2.579688,0.679834 2.333868,0.111272 3.502943,-0.536884 4.657381,-2.582134 0.782232,-1.38584 0.821121,-1.593946 0.81576,-4.365625 -0.0048,-2.459245 -0.09328,-3.074479 -0.571081,-3.96875 -1.545093,-2.89188 -4.280901,-3.819825 -7.081552,-2.401954 -1.218541,0.616904 -1.270598,0.621828 -1.398614,0.132291 -0.102367,-0.391445 -0.36943,-0.508462 -1.160441,-0.508462 h -1.027475 v 9.392708 9.39271 h 1.190625 1.190625 z m 1.417372,-4.223185 c -1.189897,-0.480183 -1.417372,-1.225691 -1.417372,-4.645187 0,-2.983855 0.04061,-3.239287 0.595312,-3.744524 1.939298,-1.766357 4.256429,-1.386326 5.376325,0.881767 0.661292,1.339291 0.682707,4.611473 0.03815,5.828709 -0.912106,1.722498 -2.786677,2.407942 -4.592415,1.679235 z m 12.870127,4.363397 c 0,-1.673489 0.03436,-3.042708 0.07635,-3.042708 0.04199,0 0.543414,0.238125 1.114276,0.529167 1.240174,0.632277 3.52351,0.704588 4.604073,0.145807 1.958615,-1.01284 3.201136,-3.585535 3.201136,-6.628099 0,-4.195612 -2.125168,-7.011458 -5.291667,-7.011458 -1.165783,0 -2.742943,0.560175 -3.496045,1.241723 -0.442606,0.400552 -0.472705,0.383063 -0.472705,-0.274674 0,-0.656163 -0.07848,-0.702466 -1.190625,-0.702466 H 56.46491 v 9.392708 9.39271 h 1.322917 1.322916 z M 59.924794,93.4127 59.110742,92.727723 V 89.36116 c 0,-3.366344 5.1e-5,-3.36661 0.764228,-4.098739 1.562965,-1.497415 4.117549,-1.018047 5.129869,0.962621 0.595664,1.165457 0.705231,4.066512 0.21023,5.56638 -0.74045,2.243587 -3.53346,3.099543 -5.290275,1.621278 z m -36.929676,2.301571 c 1.795622,-0.828733 2.38125,-1.680206 2.38125,-3.462213 0,-1.166985 -0.127758,-1.679669 -0.529167,-2.123506 -0.739184,-0.817315 -2.149129,-1.489673 -4.208809,-2.007048 -2.811074,-0.706119 -3.660578,-1.699118 -2.587392,-3.024446 0.344011,-0.424836 0.852961,-0.62843 1.797958,-0.719232 1.146654,-0.110179 1.428411,-0.03385 2.165993,0.586786 0.466331,0.392391 0.847875,0.940981 0.847875,1.219087 0,0.4219 0.194607,0.505646 1.17501,0.505646 0.646256,0 1.237105,-0.10047 1.312997,-0.223267 0.305035,-0.493557 -0.438192,-2.161862 -1.300335,-2.918833 -1.147359,-1.007395 -2.761882,-1.456102 -4.572004,-1.270649 -3.254494,0.333435 -5.165008,3.008794 -3.898124,5.458678 0.538523,1.041388 1.742074,1.710971 4.310459,2.398078 1.58865,0.425003 2.330971,0.767727 2.711979,1.2521 0.686161,0.872312 0.661717,1.276248 -0.12483,2.062795 -1.307638,1.307638 -4.758628,0.662778 -5.081076,-0.949462 -0.147674,-0.738366 -0.228997,-0.782356 -1.446315,-0.782356 -1.403641,0 -1.514714,0.165803 -1.007636,1.504129 0.715701,1.888943 2.649095,2.982166 5.274042,2.982166 1.113436,0 2.092933,-0.172216 2.778125,-0.488453 z m 12.820956,-0.243459 c 0.78995,-0.584035 0.805085,-0.585128 0.805085,-0.05814 0,0.460159 0.170536,0.537087 1.190625,0.537087 h 1.190625 v -6.746875 -6.746875 h -1.190625 -1.190625 v 4.890617 4.890618 l -0.727604,0.81426 c -0.774904,0.867194 -2.316949,1.26909 -3.617227,0.942741 -1.269145,-0.318535 -1.476002,-1.247751 -1.476002,-6.630305 v -4.907931 h -1.322917 -1.322916 l 0.0015,4.167187 c 0.0024,6.516481 0.418044,8.10075 2.398526,9.142163 1.301109,0.684173 4.153729,0.524478 5.261523,-0.29455 z m 55.516187,0.333249 c 0.541028,-0.225657 1.367978,-0.782213 1.837666,-1.236792 0.904394,-0.875299 0.852837,-1.23305 -0.263821,-1.830666 -0.414316,-0.221736 -0.657579,-0.134087 -1.27826,0.460563 -0.61745,0.591554 -1.062559,0.753409 -2.288188,0.832054 -2.283389,0.146518 -3.577294,-0.844594 -4.133795,-3.166424 l -0.172892,-0.721342 4.567532,-0.07241 4.567531,-0.07241 -0.0905,-1.719792 c -0.218133,-4.145356 -2.463289,-6.373754 -6.048843,-6.003692 -2.972845,0.306824 -5.069927,2.66762 -5.306483,5.973786 -0.182309,2.548001 0.0936,4.010326 1.020762,5.410086 1.489221,2.248313 4.979244,3.235652 7.589287,2.147036 z m -6.027769,-8.41413 c 0,-0.807702 1.026393,-2.321528 1.860026,-2.743351 1.596724,-0.807952 3.401695,-0.137233 4.060304,1.508788 0.755642,1.888538 0.802428,1.856894 -2.74533,1.856894 -3.157045,0 -3.175,-0.0035 -3.175,-0.622331 z m 71.769588,8.183896 c 1.15833,-0.615893 1.20975,-0.620979 1.33755,-0.132291 0.10959,0.419059 0.37432,0.508226 1.5089,0.508226 1.21327,0 1.35141,-0.05476 1.16812,-0.463021 -0.11433,-0.254661 -0.27735,-2.665677 -0.36227,-5.357812 -0.17319,-5.490464 -0.35233,-6.125426 -2.01876,-7.155334 -0.65492,-0.404763 -1.51418,-0.628612 -2.71839,-0.70818 -1.54628,-0.102169 -1.93641,-0.02512 -3.20248,0.63244 -1.52264,0.790828 -2.25907,1.601221 -2.54379,2.799303 -0.17143,0.721361 -0.16132,0.727604 1.17868,0.727604 1.1785,0 1.3516,-0.06827 1.3516,-0.533056 0,-1.249447 3.13618,-2.084297 4.42876,-1.178935 0.5159,0.361349 1.12206,1.817066 1.12601,2.704178 0.001,0.23348 -0.54756,0.33073 -1.86573,0.33073 -2.44575,0 -3.93794,0.397528 -5.10587,1.36024 -1.7029,1.40367 -1.92579,3.856494 -0.50399,5.546207 1.41241,1.678552 4.05873,2.069738 6.22166,0.919701 z m -3.88203,-2.035331 c -0.59562,-0.468515 -0.69793,-0.732356 -0.63099,-1.627196 0.11971,-1.600329 1.00978,-2.151467 3.66963,-2.272257 l 2.0988,-0.09531 -0.009,1.284786 c -0.0103,1.500352 -0.54615,2.292089 -1.94772,2.877703 -1.30192,0.543973 -2.34614,0.488913 -3.18092,-0.167724 z m 59.36569,1.932316 c 0.78995,-0.584035 0.80508,-0.585128 0.80508,-0.05814 0,0.460159 0.17054,0.537087 1.19063,0.537087 h 1.19062 v -6.746875 -6.746875 h -1.19062 -1.19063 v 4.977193 c 0,4.687482 -0.0323,5.011842 -0.55457,5.572459 -0.69006,0.740688 -1.58681,1.092015 -2.78734,1.092015 -2.21118,0 -2.47892,-0.747256 -2.47892,-6.918649 v -4.723018 h -1.19062 -1.19063 v 5.235604 c 0,4.903336 0.0378,5.310525 0.59531,6.416146 0.82175,1.629573 1.91805,2.160964 4.222,2.046466 1.32947,-0.06607 1.97655,-0.237496 2.57969,-0.683416 z m 31.34696,0.39217 c 0.55277,-0.404192 0.63449,-1.578147 0.15047,-2.161364 -0.43143,-0.519839 -1.70313,-0.509529 -2.23074,0.01808 -1.29269,1.292686 0.59034,3.232745 2.08027,2.143279 z m 33.83932,-0.274109 c 1.15811,-0.586306 1.23547,-0.59459 1.23547,-0.132292 0,0.408122 0.20534,0.493181 1.19062,0.493181 h 1.19063 v -9.525 -9.525 h -1.32292 -1.32291 v 3.315212 3.315213 l -0.81452,-0.602194 c -0.65744,-0.486065 -1.15843,-0.602395 -2.59792,-0.603234 -1.4952,-8.73e-4 -1.95797,0.114364 -2.86359,0.713073 -3.71691,2.457259 -3.42571,10.650538 0.45107,12.691228 1.31418,0.691775 3.32546,0.633688 4.85407,-0.140187 z m -3.55527,-1.887252 c -1.23467,-0.671076 -1.6545,-1.648415 -1.76204,-4.101859 -0.0856,-1.951807 -0.0175,-2.405749 0.51513,-3.435613 1.02253,-1.977191 3.46974,-2.428484 5.07938,-0.936701 0.67495,0.625531 0.69369,0.729373 0.69369,3.847908 0,1.762765 -0.12259,3.434093 -0.27242,3.714062 -0.6314,1.179756 -2.87592,1.661089 -4.25374,0.912203 z M 73.662826,86.424762 v -9.525 h -1.322917 -1.322917 v 9.525 9.525 h 1.322917 1.322917 z m 6.085416,2.778125 v -6.746875 h -1.322916 -1.322917 v 6.746875 6.746875 h 1.322917 1.322916 z m 19.314583,2.043246 c 0,-3.920327 0.07185,-4.806209 0.431454,-5.319615 0.516831,-0.737876 1.888511,-1.353839 3.014841,-1.353839 0.79786,0 0.81551,-0.02691 0.73611,-1.122197 -0.0612,-0.84366 -0.20285,-1.145259 -0.57081,-1.215114 -0.89747,-0.170379 -2.21647,0.225337 -2.917915,0.875413 l -0.69368,0.64288 v -0.648824 c 0,-0.592589 -0.103195,-0.648825 -1.190625,-0.648825 h -1.190625 v 6.746875 6.746875 h 1.190625 1.190625 z m 31.485415,-0.208557 c 0,-3.012772 0.11054,-5.118736 0.28588,-5.446357 0.32967,-0.615998 1.76543,-1.283124 2.76147,-1.283124 1.20621,0 2.19576,0.708461 2.49511,1.786362 0.15148,0.54547 0.27609,2.98606 0.2769,5.423534 l 10e-4,4.431771 h 1.19063 1.19062 v -4.643348 c 0,-5.172657 0.17194,-5.869427 1.63504,-6.626027 1.05793,-0.547075 2.73687,-0.351087 3.49702,0.408218 0.52121,0.520625 0.56168,0.882523 0.63836,5.708511 l 0.0819,5.152646 h 1.17491 1.1749 l -0.006,-5.225521 c -0.005,-4.60278 -0.0671,-5.360593 -0.52023,-6.358935 -1.13433,-2.499252 -5.33639,-2.92465 -7.62761,-0.772187 -0.56227,0.528216 -0.64961,0.542533 -0.93433,0.153155 -1.16229,-1.589498 -3.92999,-2.018211 -6.06178,-0.938962 -1.14684,0.580605 -1.22377,0.588183 -1.34299,0.132292 -0.0993,-0.379864 -0.38715,-0.483592 -1.34185,-0.483592 h -1.21539 v 6.746875 6.746875 h 1.32291 1.32292 z m 36.63789,2.619008 c 0.7314,-1.188487 1.39273,-2.223746 1.46963,-2.300575 0.0769,-0.07683 0.79127,0.925119 1.5875,2.226551 l 1.44769,2.366239 1.38906,4.76e-4 c 0.76399,2.65e-4 1.38906,-0.06256 1.38906,-0.139607 0,-0.07705 -0.96145,-1.575189 -2.13656,-3.329199 -1.17512,-1.75401 -2.07326,-3.354106 -1.99587,-3.555768 0.0774,-0.201662 0.95784,-1.590789 1.95658,-3.086947 0.99873,-1.496154 1.9039,-2.869112 2.01148,-3.051013 0.14681,-0.248218 -0.16775,-0.330729 -1.26083,-0.330729 h -1.45644 l -1.43418,2.392294 -1.43417,2.392293 -1.41627,-2.392293 -1.41627,-2.392294 h -1.39727 c -0.7685,0 -1.39728,0.06304 -1.39728,0.140089 0,0.07705 0.96297,1.577446 2.13993,3.334215 l 2.13993,3.194124 -2.28234,3.426166 -2.28233,3.426167 1.52457,-0.07965 1.52457,-0.07965 z m 12.31003,-4.453697 v -6.746875 h -1.32292 -1.32292 v 6.746875 6.746875 h 1.32292 1.32292 z m 5.82083,1.769293 v -4.977582 l 0.76423,-0.732177 c 0.87407,-0.837418 2.42045,-1.148573 3.54805,-0.713924 1.27046,0.489717 1.50855,1.557067 1.50855,6.762559 v 4.638706 h 1.19063 1.19062 l 0.0149,-4.431771 c 0.009,-2.699959 0.13833,-4.793642 0.33073,-5.357812 0.63809,-1.871143 3.58584,-2.43155 4.87944,-0.927648 0.57259,0.665659 0.59574,0.887353 0.59574,5.704902 v 5.012329 h 1.32291 1.32292 V 91.62025 c 0,-7.852901 -0.74647,-9.29653 -4.80706,-9.29653 -1.57045,0 -1.90089,0.09624 -3.00673,0.875704 -1.2019,0.847181 -1.25401,0.859077 -1.59992,0.365221 -1.01518,-1.449366 -3.98502,-1.803875 -6.02501,-0.719202 -1.17945,0.627123 -1.23003,0.632562 -1.23003,0.132292 0,-0.44195 -0.18205,-0.521723 -1.19062,-0.521723 h -1.19063 v 6.746875 6.746875 h 1.19063 1.19062 z m 36.24792,0 v -4.977582 l 0.81112,-0.777106 c 0.69298,-0.663911 1.01949,-0.777105 2.24161,-0.777105 1.13524,0 1.55487,0.124257 2.03315,0.602041 0.57956,0.578966 0.6058,0.799538 0.68453,5.754688 l 0.0819,5.152646 h 1.15389 1.15388 l 0.0872,-4.828646 c 0.0968,-5.361536 0.2715,-5.973529 1.86389,-6.52864 1.40096,-0.488376 2.30131,-0.348086 3.13842,0.489017 l 0.77339,0.773397 v 5.047436 5.047436 h 1.34685 1.34684 l -0.0901,-5.225521 c -0.0791,-4.591436 -0.15429,-5.351871 -0.61924,-6.266779 -0.85302,-1.678521 -1.69903,-2.133742 -3.96547,-2.133742 -1.77182,0 -2.05165,0.07692 -3.18584,0.875704 -1.2029,0.847191 -1.25503,0.859083 -1.60095,0.365221 -1.01517,-1.449366 -3.98501,-1.803875 -6.025,-0.719202 -1.17946,0.627123 -1.23003,0.632562 -1.23003,0.132292 0,-0.44195 -0.18205,-0.521723 -1.19063,-0.521723 h -1.19062 v 6.746875 6.746875 h 1.19062 1.19063 z m 29.10416,0.0094 c 0,-5.551387 0.0863,-5.869753 1.73786,-6.414833 1.27108,-0.419492 2.61732,-0.126672 3.27776,0.71294 0.50106,0.636993 0.54063,1.052648 0.54063,5.678702 v 4.991402 h 1.32292 1.32292 v -4.890617 -4.890618 l 0.77204,-0.86407 c 0.69992,-0.783346 0.91221,-0.86407 2.27234,-0.86407 1.25749,0 1.58214,0.101084 2.00608,0.624624 0.45913,0.567002 0.50579,1.097878 0.50579,5.754688 v 5.130063 h 1.34207 1.34207 l -0.0853,-5.490104 c -0.0763,-4.911171 -0.14049,-5.581373 -0.60869,-6.35562 -1.38691,-2.293521 -5.60517,-2.575218 -7.51655,-0.50196 l -0.63161,0.685098 -0.5373,-0.683061 c -1.3934,-1.771428 -4.98737,-1.861063 -6.85491,-0.170963 -0.4426,0.400552 -0.4727,0.383063 -0.4727,-0.274674 0,-0.656163 -0.0785,-0.702466 -1.19062,-0.702466 h -1.19063 v 6.746875 6.746875 h 1.32292 1.32291 V 90.98155 Z M 79.616882,79.7136 c 0.831807,-1.269502 -0.391081,-2.598197 -1.764533,-1.9172 -0.702027,0.348085 -0.967708,1.564874 -0.472077,2.16207 0.506695,0.61053 1.766501,0.472603 2.23661,-0.24487 z m 99.561778,0.308245 c 0.54774,-0.547739 0.37782,-1.747442 -0.31146,-2.199077 -1.40389,-0.919867 -2.78419,0.860401 -1.69475,2.185848 0.34588,0.420813 1.59042,0.429019 2.00621,0.01323 z"
         id="path11406" />
      <path
         style="fill:#cecece;stroke-width:0.264583"
         d="m 114.21526,101.58724 c 0.25743,-0.0671 0.61462,-0.0627 0.79375,0.01 0.17913,0.0725 -0.0315,0.12736 -0.46806,0.12197 -0.43656,-0.005 -0.58313,-0.0647 -0.32569,-0.13177 z M 56.584339,91.84872 c -8.4e-5,-5.23875 0.03526,-7.419375 0.07853,-4.845834 0.04328,2.573541 0.04335,6.859791 1.56e-4,9.525 -0.04319,2.665209 -0.0786,0.559584 -0.07869,-4.679166 z m 16.933492,-5.423958 c 0,-5.31151 0.03531,-7.484401 0.07846,-4.828646 0.04316,2.655755 0.04316,7.001537 0,9.657292 -0.04316,2.655755 -0.07846,0.482864 -0.07846,-4.828646 z m 54.499859,2.778125 c 1.5e-4,-3.783542 0.0373,-5.294561 0.0826,-3.35782 0.0453,1.936741 0.0451,5.032366 -2.7e-4,6.879167 -0.0454,1.846801 -0.0825,0.262195 -0.0823,-3.521347 z m 51.32916,0 c 1.5e-4,-3.783542 0.0373,-5.294561 0.0826,-3.35782 0.0453,1.936741 0.0452,5.032366 -2.6e-4,6.879167 -0.0454,1.846801 -0.0825,0.262195 -0.0823,-3.521347 z m 22.48363,2.116667 c 2.6e-4,-2.619375 0.0399,-3.65515 0.088,-2.301722 0.0481,1.353429 0.0479,3.496554 -5.3e-4,4.7625 -0.0484,1.265947 -0.0877,0.158597 -0.0875,-2.460778 z m 48.6843,-0.264584 c 2.5e-4,-2.764895 0.0395,-3.860039 0.0871,-2.433653 0.0477,1.426387 0.0475,3.688574 -5.3e-4,5.027084 -0.0479,1.338509 -0.0868,0.171465 -0.0866,-2.593431 z m 14.02245,0.132292 c 0,-2.692135 0.0393,-3.793464 0.0873,-2.447396 0.048,1.346068 0.048,3.548724 0,4.894792 -0.048,1.346068 -0.0873,0.244739 -0.0873,-2.447396 z M 51.437826,95.320701 c 0,-0.05494 0.208359,-0.263302 0.463021,-0.463021 0.419645,-0.329108 0.429003,-0.319749 0.0999,0.09989 -0.345644,0.44073 -0.562917,0.580888 -0.562917,0.363127 z m 226.747914,0 c 0,-0.05494 0.20836,-0.263302 0.46302,-0.463021 0.41966,-0.329108 0.429,-0.319749 0.0999,0.09989 -0.34565,0.44073 -0.56293,0.580888 -0.56293,0.363127 z M 19.886264,94.187033 c 0.181901,-0.0734 0.479557,-0.0734 0.661458,0 0.181901,0.0734 0.03307,0.133453 -0.330729,0.133453 -0.363802,0 -0.51263,-0.06005 -0.330729,-0.133453 z m 90.309946,-2.360361 c 0.0127,-0.308225 0.0754,-0.37092 0.15985,-0.159853 0.0764,0.190996 0.067,0.4192 -0.0209,0.507118 -0.0879,0.08792 -0.15045,-0.06835 -0.13897,-0.347265 z M 28.263308,86.953929 c 0,-2.546615 0.03968,-3.588412 0.08819,-2.315105 0.0485,1.273308 0.0485,3.356902 0,4.630209 -0.0485,1.273307 -0.08819,0.23151 -0.08819,-2.315104 z m 37.218323,3.020659 c 0.0127,-0.308224 0.07539,-0.370919 0.159851,-0.159852 0.07643,0.190996 0.06703,0.419199 -0.02088,0.507118 -0.08792,0.08792 -0.150452,-0.06835 -0.138964,-0.347266 z m 23.972456,-0.04033 c 4.289417,-0.07761 4.553194,-0.112055 4.665411,-0.609306 0.09651,-0.427628 0.112303,-0.413986 0.08374,0.07232 -0.03513,0.598189 -0.0443,0.599387 -4.665411,0.609305 l -4.630208,0.0099 4.54647,-0.08226 z M 238.04836,87.747679 c 0,-0.800365 0.0496,-1.127787 0.11022,-0.727605 0.0606,0.400183 0.0606,1.055027 0,1.455209 -0.0606,0.400182 -0.11022,0.07276 -0.11022,-0.727604 z M 65.481631,88.387088 c 0.0127,-0.308224 0.07539,-0.370919 0.159851,-0.159852 0.07643,0.190996 0.06703,0.419199 -0.02088,0.507118 -0.08792,0.08792 -0.150452,-0.06835 -0.138964,-0.347266 z M 23.461777,86.499485 c 0.402183,-0.06082 0.997495,-0.05919 1.322916,0.0036 0.325421,0.0628 -0.0036,0.11256 -0.731242,0.110574 -0.727604,-0.002 -0.993858,-0.05337 -0.591674,-0.114186 z M 185.58157,85.531117 c 0,-0.05494 0.20836,-0.263301 0.46303,-0.463021 0.41964,-0.329107 0.429,-0.319749 0.0999,0.0999 -0.34564,0.440729 -0.56292,0.580887 -0.56292,0.363126 z m 85.725,-1.5875 c 0,-0.05494 0.20836,-0.263301 0.46302,-0.463021 0.41965,-0.329107 0.42901,-0.319749 0.0999,0.09989 -0.34564,0.440729 -0.56292,0.580887 -0.56292,0.363126 z M 130.32543,83.249762 c 0,-0.363802 0.0601,-0.51263 0.13346,-0.330729 0.0734,0.181901 0.0734,0.479557 0,0.661458 -0.0734,0.181901 -0.13346,0.03307 -0.13346,-0.330729 z m -20.54698,-1.058333 c 0.26339,-0.291042 0.53842,-0.529167 0.61118,-0.529167 0.0728,0 -0.0832,0.238125 -0.3466,0.529167 -0.26339,0.291041 -0.53842,0.529166 -0.61118,0.529166 -0.0728,0 0.0832,-0.238125 0.3466,-0.529166 z m 6.1681,-2.297408 c 0.19099,-0.07643 0.4192,-0.06703 0.50712,0.02089 0.0879,0.08792 -0.0684,0.150453 -0.34727,0.138965 -0.30822,-0.0127 -0.37092,-0.07539 -0.15985,-0.159853 z"
         id="path11404" />
      <path
         style="fill:#b1b1b1;stroke-width:0.264583"
         d="m 77.217688,89.202887 c 1.51e-4,-3.783542 0.03731,-5.294561 0.08258,-3.35782 0.04527,1.936741 0.04514,5.032366 -2.65e-4,6.879167 -0.04543,1.846801 -0.08247,0.262195 -0.08231,-3.521347 z m 160.855032,3.307292 c 0,-1.964532 0.0417,-2.768203 0.0926,-1.785938 0.0509,0.982266 0.0509,2.58961 0,3.571875 -0.0509,0.982266 -0.0926,0.178594 -0.0926,-1.785937 z m 18.26142,-1.058334 c 0,-2.546614 0.0397,-3.588411 0.0882,-2.315104 0.0485,1.273307 0.0485,3.356901 0,4.630208 -0.0485,1.273308 -0.0882,0.231511 -0.0882,-2.315104 z M 47.419467,94.181521 c 0.190994,-0.07643 0.419197,-0.06703 0.507118,0.02089 0.08792,0.08792 -0.06835,0.150453 -0.347265,0.138965 -0.308227,-0.01269 -0.37092,-0.07539 -0.159853,-0.159853 z m 71.264303,-1.671342 c 0,-0.363802 0.0601,-0.512631 0.13345,-0.330729 0.0734,0.181901 0.0734,0.479557 0,0.661458 -0.0734,0.181901 -0.13345,0.03307 -0.13345,-0.330729 z m 160.13215,-3.307292 c 0,-1.74625 0.0433,-2.426194 0.0951,-1.510986 0.0518,0.915208 0.0514,2.343958 0,3.175 -0.0523,0.831042 -0.0947,0.08224 -0.0942,-1.664014 z m -173.85659,1.5875 c 0.002,-0.727604 0.0534,-0.993858 0.11419,-0.591674 0.0608,0.402183 0.0592,0.997495 -0.004,1.322916 -0.0628,0.325421 -0.11257,-0.0036 -0.11059,-0.731242 z m 7.35355,0.771701 c 0.0127,-0.308224 0.0754,-0.370919 0.15985,-0.159852 0.0764,0.190996 0.067,0.419199 -0.0209,0.507118 -0.0879,0.08792 -0.15046,-0.06835 -0.13897,-0.347266 z m 159.80833,-2.645833 c 0.0127,-0.308224 0.0754,-0.370919 0.15985,-0.159852 0.0764,0.190996 0.067,0.419199 -0.0209,0.507118 -0.0879,0.08792 -0.15046,-0.06835 -0.13897,-0.347266 z M 92.149908,83.580491 c -0.329107,-0.419644 -0.319749,-0.429002 0.0999,-0.09989 0.440729,0.345644 0.580887,0.562916 0.363124,0.562916 -0.05494,0 -0.2633,-0.208359 -0.463021,-0.463021 z m 101.104582,0.363126 c 0,-0.05494 0.20836,-0.263301 0.46302,-0.463021 0.41965,-0.329107 0.429,-0.319749 0.0999,0.09989 -0.34565,0.440729 -0.56292,0.580887 -0.56292,0.363126 z M 44.558659,83.674945 c 0,-0.05719 0.184777,-0.174891 0.410618,-0.261553 0.235458,-0.09035 0.341661,-0.046 0.248967,0.103984 -0.155379,0.251408 -0.659585,0.371858 -0.659585,0.157569 z m 71.123311,-0.07676 c 0.19099,-0.07643 0.4192,-0.06703 0.50711,0.02089 0.0879,0.08792 -0.0684,0.150453 -0.34726,0.138964 -0.30823,-0.01269 -0.37092,-0.07539 -0.15985,-0.159852 z m 163.13657,-3.258843 c 0,-1.964531 0.0417,-2.768203 0.0926,-1.785937 0.0509,0.982265 0.0509,2.589609 0,3.571875 -0.0509,0.982265 -0.0926,0.178594 -0.0926,-1.785938 z"
         id="path11402" />
      <path
         style="fill:#8c8c8c;stroke-width:0.264583"
         d="m 79.598938,89.202887 c 1.51e-4,-3.783542 0.03731,-5.294561 0.08258,-3.35782 0.04527,1.936741 0.04514,5.032366 -2.65e-4,6.879167 -0.04543,1.846801 -0.08246,0.262195 -0.08231,-3.521347 z m 179.116452,2.248958 c 0,-2.546614 0.0397,-3.588411 0.0882,-2.315104 0.0485,1.273307 0.0485,3.356901 0,4.630208 -0.0485,1.273308 -0.0882,0.231511 -0.0882,-2.315104 z m 22.50036,-5.027083 c 0,-5.31151 0.0353,-7.484401 0.0785,-4.828646 0.0432,2.655755 0.0432,7.001537 0,9.657292 -0.0432,2.655755 -0.0785,0.482864 -0.0785,-4.828646 z M 58.948119,89.335179 c 0,-1.819011 0.04227,-2.563151 0.09394,-1.653646 0.05166,0.909505 0.05166,2.397786 0,3.307291 -0.05167,0.909506 -0.09394,0.165365 -0.09394,-1.653645 z m 47.839201,1.190625 c 0.005,-0.436563 0.0647,-0.583125 0.13178,-0.325694 0.0671,0.257431 0.0627,0.614618 -0.01,0.79375 -0.0725,0.179131 -0.12735,-0.03149 -0.12196,-0.468056 z m 23.59025,-2.116667 c -7.9e-4,-1.309688 0.0439,-1.878827 0.0994,-1.264754 0.0555,0.614073 0.0562,1.685635 0.002,2.38125 -0.0548,0.695615 -0.1002,0.193191 -0.10101,-1.116496 z m 25.9014,1.001116 c 0.40018,-0.06062 1.05503,-0.06062 1.45521,0 0.40018,0.06062 0.0728,0.110223 -0.72761,0.110223 -0.80036,0 -1.12778,-0.0496 -0.7276,-0.110223 z m 113.46099,-0.229415 c 0.0127,-0.308224 0.0754,-0.370919 0.15985,-0.159852 0.0764,0.190996 0.067,0.419199 -0.0209,0.507118 -0.0879,0.08792 -0.15046,-0.06835 -0.13897,-0.347266 z M 123.44627,88.806012 c 0,-0.363802 0.0601,-0.51263 0.13345,-0.330729 0.0734,0.181901 0.0734,0.479557 0,0.661458 -0.0734,0.181901 -0.13345,0.03307 -0.13345,-0.330729 z m 27.07801,-2.515254 c 0.60478,-0.210812 2.20194,-0.268551 2.0825,-0.07528 -0.0711,0.115108 -0.62834,0.199888 -1.23822,0.1884 -0.60987,-0.01149 -0.9898,-0.06239 -0.84428,-0.113116 z M 84.246159,84.208201 c 0,-0.05494 0.208359,-0.263302 0.463021,-0.463021 0.419645,-0.329108 0.429003,-0.319749 0.0999,0.09989 -0.345644,0.44073 -0.562917,0.580888 -0.562917,0.363127 z"
         id="path11400" />
      <path
         style="fill:#707070;stroke-width:0.264583"
         d="m 42.905013,101.0547 c 0.327422,-0.0631 0.863204,-0.0631 1.190625,0 0.327422,0.0631 0.05953,0.11467 -0.595312,0.11467 -0.654844,0 -0.922734,-0.0516 -0.595313,-0.11467 z m 14.870764,-5.2e-4 1.05021,-0.10682 0.0936,-2.300387 0.0936,-2.300384 -0.01736,2.38125 -0.01736,2.381251 -1.126443,0.026 -1.126445,0.026 1.050214,-0.10682 z m 49.860873,-2.260147 -0.50403,-0.595313 0.59531,0.504028 c 0.55944,0.473662 0.71576,0.686597 0.50403,0.686597 -0.0502,0 -0.3181,-0.26789 -0.59531,-0.595312 z m 22.74489,-5.490104 c 0,-1.527969 0.0437,-2.153047 0.0972,-1.389063 0.0534,0.763985 0.0534,2.014141 0,2.778125 -0.0534,0.763985 -0.0972,0.138906 -0.0972,-1.389062 z m 46.58406,-4.101042 c 1.5e-4,-3.783542 0.0373,-5.294561 0.0826,-3.35782 0.0453,1.936741 0.0452,5.032366 -2.6e-4,6.879167 -0.0454,1.846801 -0.0825,0.262195 -0.0823,-3.521347 z m 58.73049,2.38125 c -2.7e-4,-2.473854 0.0395,-3.521497 0.0884,-2.328095 0.0489,1.193402 0.0492,3.217464 5.3e-4,4.497916 -0.0486,1.280453 -0.0886,0.304033 -0.0889,-2.169821 z m 12.44243,-2.38125 c 1.5e-4,-3.783542 0.0373,-5.294561 0.0826,-3.35782 0.0453,1.936741 0.0451,5.032366 -2.7e-4,6.879167 -0.0454,1.846801 -0.0825,0.262195 -0.0823,-3.521347 z m -132.67153,4.794897 c 0,-0.05494 0.20836,-0.263302 0.46302,-0.463021 0.41965,-0.329107 0.42901,-0.319749 0.0999,0.0999 -0.34565,0.440729 -0.56292,0.580887 -0.56292,0.363126 z m 83.97488,-3.604272 c 0,-1.81901 0.0423,-2.563151 0.0939,-1.653646 0.0517,0.909505 0.0517,2.397787 0,3.307292 -0.0517,0.909505 -0.0939,0.165364 -0.0939,-1.653646 z m -38.89291,-0.661458 c 5.3e-4,-1.891771 0.0426,-2.63096 0.0936,-1.642643 0.0511,0.988318 0.0507,2.536131 -7.9e-4,3.439584 -0.0516,0.903453 -0.0933,0.09483 -0.0929,-1.796941 z M 30.645063,87.08622 c 2.64e-4,-2.619375 0.03987,-3.655149 0.08799,-2.301721 0.04812,1.353428 0.04789,3.496553 -5.02e-4,4.7625 -0.0484,1.265947 -0.08777,0.158596 -0.08749,-2.460779 z m 92.780317,2.623785 c 0.0127,-0.308224 0.0754,-0.370919 0.15985,-0.159852 0.0764,0.190996 0.067,0.419199 -0.0209,0.507118 -0.0879,0.08792 -0.15046,-0.06835 -0.13897,-0.347266 z m 1.63333,-0.771701 c 0.003,-0.582084 0.0571,-0.789055 0.12041,-0.459936 0.0633,0.329118 0.0609,0.805368 -0.005,1.058333 -0.0662,0.252965 -0.11801,-0.01631 -0.11507,-0.598397 z m -1.63333,-1.080382 c 0.0127,-0.308225 0.0754,-0.37092 0.15985,-0.159853 0.0764,0.190996 0.067,0.4192 -0.0209,0.507118 -0.0879,0.08792 -0.15046,-0.06835 -0.13897,-0.347265 z m 133.82453,-4.542014 c -0.32911,-0.419644 -0.31975,-0.429002 0.0999,-0.09989 0.25466,0.199719 0.46302,0.408079 0.46302,0.463021 0,0.217761 -0.21727,0.0776 -0.56291,-0.363126 z M 48.19668,82.280783 c 0.181901,-0.0734 0.479557,-0.0734 0.661458,0 0.181901,0.0734 0.03307,0.133453 -0.330729,0.133453 -0.363802,0 -0.51263,-0.06005 -0.330729,-0.133453 z m 60.39115,-1.247582 c 0,-0.05494 0.20835,-0.263302 0.46302,-0.463021 0.41964,-0.329108 0.429,-0.319749 0.0999,0.09989 -0.34564,0.44073 -0.56291,0.580888 -0.56291,0.363127 z"
         id="path11398" />
      <path
         style="fill:#515151;stroke-width:0.264583"
         d="m 44.630721,99.918512 c 0,-0.654844 0.0516,-0.922734 0.114663,-0.595313 0.06307,0.327422 0.06307,0.863201 0,1.190621 -0.06306,0.32743 -0.114663,0.0595 -0.114663,-0.595308 z m 69.711789,0.08936 c 0.1819,-0.0734 0.47956,-0.0734 0.66146,0 0.1819,0.0734 0.0331,0.13345 -0.33073,0.13345 -0.3638,0 -0.51263,-0.06 -0.33073,-0.13345 z M 58.907542,95.685179 c 0,-0.509323 0.05445,-0.717683 0.121002,-0.463021 0.06655,0.254661 0.06655,0.67138 0,0.926042 -0.06655,0.254661 -0.121002,0.0463 -0.121002,-0.463021 z m 12.229039,-9.260417 c 0,-5.31151 0.03531,-7.484401 0.07846,-4.828646 0.04316,2.655755 0.04316,7.001537 0,9.657292 -0.04316,2.655755 -0.07846,0.482864 -0.07846,-4.828646 z m 128.278999,8.334375 c 0.002,-0.727604 0.0534,-0.993858 0.11419,-0.591674 0.0608,0.402183 0.0592,0.997495 -0.004,1.322916 -0.0628,0.325421 -0.11257,-0.0036 -0.11059,-0.731242 z m 67.50189,-3.307292 c 0,-2.546614 0.0397,-3.588411 0.0882,-2.315104 0.0485,1.273307 0.0485,3.356901 0,4.630208 -0.0485,1.273308 -0.0882,0.231511 -0.0882,-2.315104 z M 23.92116,95.056117 c 0,-0.05494 0.208359,-0.263301 0.46302,-0.463021 0.419644,-0.329107 0.429003,-0.319749 0.0999,0.0999 -0.345643,0.440729 -0.562915,0.580887 -0.562915,0.363126 z m 126.96625,-0.363126 c -0.32911,-0.419644 -0.31975,-0.429002 0.0999,-0.0999 0.44073,0.345644 0.58089,0.562916 0.36313,0.562916 -0.0549,0 -0.2633,-0.208359 -0.46302,-0.463021 z m -58.174585,0.09854 c 0,-0.05494 0.20836,-0.263302 0.463021,-0.463021 0.419645,-0.329107 0.429004,-0.319749 0.0999,0.0999 -0.345643,0.440729 -0.562917,0.580887 -0.562917,0.363126 z M 154.55918,94.18703 c 0.1819,-0.0734 0.47956,-0.0734 0.66146,0 0.1819,0.0734 0.0331,0.133453 -0.33073,0.133453 -0.3638,0 -0.51263,-0.06005 -0.33073,-0.133453 z m 5.90787,-0.772861 c 0.0127,-0.308225 0.0754,-0.37092 0.15985,-0.159853 0.0764,0.190996 0.067,0.4192 -0.0209,0.507118 -0.0879,0.08792 -0.15045,-0.06835 -0.13896,-0.347265 z M 25.264964,92.091255 c 0.0127,-0.308224 0.07539,-0.370919 0.159853,-0.159852 0.07643,0.190996 0.06703,0.419199 -0.02089,0.507118 -0.08792,0.08792 -0.150453,-0.06835 -0.138965,-0.347266 z M 44.66146,89.202887 c 5.3e-4,-1.891771 0.04261,-2.63096 0.09365,-1.642642 0.05105,0.988317 0.05067,2.53613 -7.93e-4,3.439583 -0.05156,0.903453 -0.09332,0.09483 -0.09286,-1.796941 z m 168.78818,1.322917 c 0.001,-1.018646 0.049,-1.402944 0.10628,-0.853995 0.0573,0.548949 0.0563,1.382387 -0.002,1.852083 -0.0585,0.469697 -0.10533,0.02056 -0.10416,-0.998088 z M 15.388347,91.794287 c 0.327422,-0.06306 0.863203,-0.06306 1.190625,0 0.327422,0.06306 0.05953,0.114662 -0.595312,0.114662 -0.654844,0 -0.922735,-0.0516 -0.595313,-0.114662 z M 227.48112,89.335179 c 0,-1.382448 0.0446,-1.947995 0.0991,-1.256771 0.0545,0.691224 0.0545,1.822318 0,2.513541 -0.0545,0.691224 -0.0991,0.125678 -0.0991,-1.25677 z m -20.10007,-1.322917 c 0,-1.964531 0.0417,-2.768203 0.0926,-1.785937 0.0509,0.982265 0.0509,2.589609 0,3.571874 -0.0509,0.982266 -0.0926,0.178594 -0.0926,-1.785937 z m -22.23326,0.529167 c 0,-1.382448 0.0446,-1.947995 0.0991,-1.256771 0.0545,0.691224 0.0545,1.822318 0,2.513541 -0.0545,0.691224 -0.0991,0.125678 -0.0991,-1.25677 z m -117.264023,0.79375 c 0,-0.363802 0.06005,-0.512631 0.133454,-0.33073 0.0734,0.181902 0.0734,0.479558 0,0.661459 -0.0734,0.181901 -0.133454,0.03307 -0.133454,-0.330729 z M 138.55246,87.87997 c 0.003,-0.582083 0.0571,-0.789054 0.12041,-0.459936 0.0633,0.329119 0.0609,0.805369 -0.005,1.058334 -0.0662,0.252965 -0.118,-0.01631 -0.11507,-0.598398 z M 64.368659,85.167991 c -0.329107,-0.419644 -0.319749,-0.429002 0.0999,-0.0999 0.44073,0.345644 0.580887,0.562916 0.363125,0.562916 -0.05494,0 -0.263301,-0.208359 -0.463021,-0.463021 z m 1.5875,-1.5875 c -0.329108,-0.419644 -0.319749,-0.429002 0.0999,-0.09989 0.44073,0.345644 0.580887,0.562916 0.363125,0.562916 -0.05494,0 -0.263301,-0.208359 -0.463021,-0.463021 z M 103.08316,83.11747 c 0.005,-0.436562 0.0647,-0.583124 0.13177,-0.325693 0.0671,0.257431 0.0627,0.614618 -0.01,0.79375 -0.0725,0.179131 -0.12735,-0.03149 -0.12195,-0.468057 z"
         id="path11396" />
      <path
         style="fill:#2f2f2f;stroke-width:0.264583"
         d="m 44.651107,96.743512 c 0,-1.236927 0.04558,-1.742943 0.101283,-1.124479 0.0557,0.618463 0.0557,1.630495 0,2.248958 -0.05571,0.618464 -0.101283,0.112448 -0.101283,-1.124479 z M 19.753972,96.031961 c 0.254662,-0.06655 0.67138,-0.06655 0.926042,0 0.254661,0.06655 0.0463,0.121 -0.463021,0.121 -0.509323,0 -0.717682,-0.05445 -0.463021,-0.121 z m 28.442708,0.0072 c 0.181901,-0.0734 0.479557,-0.0734 0.661458,0 0.181901,0.0734 0.03307,0.133452 -0.330729,0.133452 -0.363802,0 -0.51263,-0.06005 -0.330729,-0.133452 z m 14.2875,0 c 0.181901,-0.0734 0.479557,-0.0734 0.661458,0 0.181901,0.0734 0.03307,0.133452 -0.330729,0.133452 -0.363802,0 -0.51263,-0.06005 -0.330729,-0.133452 z m 26.061458,-0.0072 c 0.254661,-0.06655 0.67138,-0.06655 0.926042,0 0.254661,0.06655 0.0463,0.121 -0.463021,0.121 -0.509323,0 -0.717683,-0.05445 -0.463021,-0.121 z m 31.088542,0.0072 c 0.1819,-0.0734 0.47956,-0.0734 0.66146,0 0.1819,0.0734 0.0331,0.133452 -0.33073,0.133452 -0.3638,0 -0.51263,-0.06005 -0.33073,-0.133452 z m 34.53316,-0.0081 c 0.25743,-0.06708 0.61462,-0.06267 0.79375,0.0098 0.17913,0.07247 -0.0315,0.127362 -0.46806,0.121969 -0.43656,-0.0054 -0.58312,-0.06469 -0.32569,-0.131773 z m -15.5772,-3.653106 c 5.2e-4,-2.037292 0.0419,-2.835754 0.0923,-1.774362 0.0503,1.061393 0.05,2.728268 -7.9e-4,3.704167 -0.0507,0.975899 -0.0919,0.107487 -0.0915,-1.929805 z m 46.5589,1.058333 c 8e-4,-1.455208 0.0451,-2.016764 0.0987,-1.247901 0.0536,0.768862 0.053,1.959487 -0.001,2.645833 -0.0542,0.686346 -0.0981,0.05728 -0.0974,-1.397932 z m 6.0981,-2.116666 c 2.7e-4,-2.619375 0.0399,-3.65515 0.088,-2.301722 0.0481,1.353429 0.0479,3.496554 -5.2e-4,4.7625 -0.0484,1.265947 -0.0877,0.158597 -0.0875,-2.460778 z m 30.16347,-0.264584 c 2.5e-4,-2.764895 0.0395,-3.860039 0.0871,-2.433653 0.0477,1.426387 0.0474,3.688574 -5.3e-4,5.027084 -0.0478,1.338509 -0.0868,0.171465 -0.0866,-2.593431 z m 6.06758,2.778125 c 0,-1.236927 0.0456,-1.742942 0.10128,-1.124479 0.0557,0.618464 0.0557,1.630495 0,2.248958 -0.0557,0.618464 -0.10128,0.112448 -0.10128,-1.124479 z M 36.488868,94.891429 c -0.08994,-0.145521 -0.03743,-0.264584 0.116676,-0.264584 0.154109,0 0.280199,0.119063 0.280199,0.264584 0,0.14552 -0.0525,0.264583 -0.116677,0.264583 -0.06417,0 -0.190261,-0.119063 -0.280198,-0.264583 z m 47.988124,-0.463021 c -0.329107,-0.419644 -0.319749,-0.429002 0.0999,-0.0999 0.254661,0.199719 0.463021,0.408079 0.463021,0.463021 0,0.217761 -0.217273,0.0776 -0.562917,-0.363126 z m 29.617478,0.0177 c 0.19099,-0.07643 0.4192,-0.06703 0.50711,0.02089 0.0879,0.08792 -0.0683,0.150453 -0.34726,0.138964 -0.30823,-0.01269 -0.37092,-0.07539 -0.15985,-0.159852 z m 30.58033,-3.788011 c 0,-1.964531 0.0417,-2.768203 0.0926,-1.785937 0.0509,0.982265 0.0509,2.589609 0,3.571875 -0.0509,0.982265 -0.0926,0.178594 -0.0926,-1.785938 z m -45.772164,-0.66146 c 5.29e-4,-2.037292 0.04194,-2.835754 0.09229,-1.774362 0.05035,1.061393 0.05001,2.728268 -7.94e-4,3.704167 -0.05072,0.975899 -0.09191,0.107487 -0.0915,-1.929805 z m 58.368524,3.47198 c 0,-0.05494 0.20836,-0.263301 0.46302,-0.463021 0.41964,-0.329107 0.429,-0.319749 0.0999,0.0999 -0.34564,0.440729 -0.56291,0.580887 -0.56291,0.363126 z M 36.70798,90.525804 c 0.0012,-1.018646 0.049,-1.402944 0.106272,-0.853995 0.05728,0.548949 0.05631,1.382387 -0.0021,1.852083 -0.05844,0.469697 -0.105303,0.02056 -0.104129,-0.998088 z m 46.017401,-1.322917 c 0.0029,-0.582083 0.05712,-0.789054 0.120407,-0.459936 0.06329,0.329119 0.06088,0.805369 -0.0053,1.058333 -0.06622,0.252965 -0.117998,-0.01631 -0.115062,-0.598397 z m -29.129113,0.132292 c 0,-0.363802 0.06005,-0.512631 0.133453,-0.33073 0.0734,0.181902 0.0734,0.479558 0,0.661459 -0.0734,0.181901 -0.133453,0.03307 -0.133453,-0.330729 z m 159.823452,-3.638021 -0.0569,-3.241146 1.25677,0.04622 1.25678,0.04622 -1.11622,0.100876 -1.11621,0.100876 -0.0837,3.094045 -0.0837,3.094046 z m -57.00846,2.128379 c 0.32742,-0.06306 0.86321,-0.06306 1.19063,0 0.32742,0.06306 0.0595,0.114662 -0.59532,0.114662 -0.65484,0 -0.92273,-0.0516 -0.59531,-0.114662 z m -53.3588,-3.671782 c 0.0127,-0.308224 0.0754,-0.370919 0.15985,-0.159852 0.0764,0.190996 0.067,0.419199 -0.0209,0.507118 -0.0879,0.08792 -0.15045,-0.06835 -0.13897,-0.347266 z m 104.26459,-0.425759 c -0.0385,-0.949597 -0.0711,-0.979813 -1.16412,-1.078255 l -1.12448,-0.10128 1.13278,-0.04622 c 1.25166,-0.05108 1.49302,0.217029 1.30784,1.452779 -0.096,0.640562 -0.11816,0.607448 -0.15202,-0.22702 z m -10.408,0.399359 c 0.19099,-0.07643 0.4192,-0.06703 0.50712,0.02089 0.0879,0.08792 -0.0684,0.150453 -0.34727,0.138964 -0.30823,-0.0127 -0.37092,-0.07539 -0.15985,-0.159852 z m 36.24791,0 c 0.191,-0.07643 0.4192,-0.06703 0.50712,0.02089 0.0879,0.08792 -0.0684,0.150453 -0.34726,0.138964 -0.30823,-0.0127 -0.37092,-0.07539 -0.15986,-0.159852 z m -68.34518,-1.40676 -1.05833,-0.189491 0.97657,-0.03755 c 0.53712,-0.02065 1.05016,0.08152 1.1401,0.227037 0.0899,0.145521 0.12673,0.247688 0.0818,0.227038 -0.045,-0.02065 -0.55801,-0.122817 -1.1401,-0.227038 z M 28.882097,82.53387 c 0.327422,-0.06306 0.863203,-0.06306 1.190625,0 0.327422,0.06306 0.05953,0.114662 -0.595313,0.114662 -0.654843,0 -0.922734,-0.0516 -0.595312,-0.114662 z m 8.338013,-0.0031 c 0.402183,-0.06082 0.997495,-0.05919 1.322917,0.0036 0.325421,0.0628 -0.0037,0.11256 -0.731243,0.110574 -0.727604,-0.002 -0.993857,-0.05337 -0.591674,-0.114185 z m 5.684903,0.0031 c 0.327422,-0.06306 0.863204,-0.06306 1.190625,0 0.327422,0.06306 0.05953,0.114662 -0.595312,0.114662 -0.654844,0 -0.922734,-0.0516 -0.595313,-0.114662 z m 14.2875,0 c 0.327422,-0.06306 0.863203,-0.06306 1.190625,0 0.327422,0.06306 0.05953,0.114662 -0.595312,0.114662 -0.654844,0 -0.922735,-0.0516 -0.595313,-0.114662 z m 20.6375,0 c 0.327422,-0.06306 0.863203,-0.06306 1.190625,0 0.327422,0.06306 0.05953,0.114662 -0.595312,0.114662 -0.654844,0 -0.922735,-0.0516 -0.595313,-0.114662 z m 19.314583,0 c 0.327422,-0.06306 0.863203,-0.06306 1.190625,0 0.327422,0.06306 0.05953,0.114662 -0.595312,0.114662 -0.654844,0 -0.922735,-0.0516 -0.595313,-0.114662 z m 31.485414,0 c 0.32742,-0.06306 0.86321,-0.06306 1.19063,0 0.32742,0.06306 0.0595,0.114662 -0.59532,0.114662 -0.65484,0 -0.92273,-0.0516 -0.59531,-0.114662 z m 43.52396,0.0043 c 0.25466,-0.06655 0.67138,-0.06655 0.92604,0 0.25466,0.06655 0.0463,0.121 -0.46302,0.121 -0.50932,0 -0.71768,-0.05445 -0.46302,-0.121 z m 5.42396,-0.0043 c 0.32742,-0.06306 0.8632,-0.06306 1.19062,0 0.32743,0.06306 0.0595,0.114662 -0.59531,0.114662 -0.65484,0 -0.92273,-0.0516 -0.59531,-0.114662 z m 5.82083,0 c 0.32742,-0.06306 0.8632,-0.06306 1.19063,0 0.32742,0.06306 0.0595,0.114662 -0.59532,0.114662 -0.65484,0 -0.92273,-0.0516 -0.59531,-0.114662 z m 36.24792,0 c 0.32742,-0.06306 0.8632,-0.06306 1.19062,0 0.32742,0.06306 0.0595,0.114662 -0.59531,0.114662 -0.65484,0 -0.92273,-0.0516 -0.59531,-0.114662 z m 29.10416,0 c 0.32743,-0.06306 0.86321,-0.06306 1.19063,0 0.32742,0.06306 0.0595,0.114662 -0.59531,0.114662 -0.65485,0 -0.92274,-0.0516 -0.59532,-0.114662 z M 122.04782,80.670074 c -0.3291,-0.419643 -0.31974,-0.429002 0.0999,-0.09989 0.44073,0.345643 0.58089,0.562915 0.36313,0.562915 -0.055,0 -0.2633,-0.208359 -0.46303,-0.463021 z m -7.68877,-2.363553 c 0.19099,-0.07643 0.4192,-0.06703 0.50712,0.02089 0.0879,0.08792 -0.0683,0.150453 -0.34727,0.138965 -0.30822,-0.01269 -0.37092,-0.07539 -0.15985,-0.159853 z"
         id="path11394" />
      <path
         style="fill:#000000;stroke-width:0.264583"
         d="m 112.13598,101.20591 c -1.57398,-0.35409 -3.7958,-1.781079 -4.77189,-3.064787 -2.05499,-2.702627 -2.74119,-7.142031 -1.72505,-11.160297 1.23657,-4.889977 4.14026,-7.811118 8.45523,-8.506022 3.28287,-0.528691 6.37245,0.47665 8.40199,2.733984 1.57304,1.749607 2.26595,3.694961 2.42941,6.820634 0.16987,3.248142 -0.32935,5.132826 -1.7682,6.675348 -0.95031,1.018779 -1.11423,1.090062 -2.74539,1.193927 -1.5605,0.09937 -1.79904,0.04617 -2.37479,-0.529583 -0.35202,-0.352024 -0.69053,-0.791515 -0.75224,-0.976646 -0.0729,-0.218596 -0.45768,-0.01077 -1.09765,0.592794 -1.04126,0.982032 -1.9447,1.238567 -3.21017,0.911535 -1.96696,-0.508313 -2.83989,-2.75483 -2.2923,-5.899297 0.86094,-4.94389 3.89293,-7.270598 7.40062,-5.679127 l 1.16335,0.527823 -0.18032,2.178346 c -0.52709,6.367619 -0.52399,6.632782 0.0849,7.271574 1.09923,1.153201 2.80303,0.497214 3.76088,-1.447991 0.53372,-1.083875 0.62241,-1.659858 0.62241,-4.042113 0,-3.382867 -0.52914,-5.137488 -2.04537,-6.782407 -1.35911,-1.474454 -3.28208,-2.213426 -5.75983,-2.213426 -5.7028,0 -9.28309,4.72458 -8.93032,11.784533 0.27444,5.492304 3.08943,8.454088 8.00427,8.421658 1.30577,-0.009 2.48734,-0.172962 3.08422,-0.428991 0.93543,-0.401251 0.97247,-0.396208 1.11581,0.151927 0.20195,0.772244 -0.065,0.972314 -1.86123,1.394924 -1.73587,0.40841 -3.40536,0.43231 -5.00835,0.0717 z m 3.77276,-7.418563 c 0.31572,-0.294628 0.69535,-0.851349 0.84363,-1.237157 0.43065,-1.120551 0.8745,-6.717218 0.55783,-7.033886 -0.14858,-0.148577 -0.73643,-0.27014 -1.30634,-0.27014 -2.01517,0 -3.40186,2.167034 -3.6436,5.693989 -0.14021,2.04563 -0.13318,2.074985 0.69545,2.903619 0.68171,0.68171 0.97092,0.803885 1.55805,0.65818 0.39652,-0.0984 0.97926,-0.419976 1.29498,-0.714605 z M 42.441993,91.84872 v -9.128125 h 1.058333 c 0.968976,0 1.058333,0.05931 1.058333,0.702466 0,0.657737 0.0301,0.675227 0.472705,0.274674 1.288134,-1.165747 3.78824,-1.568937 5.442561,-0.877718 1.161428,0.485275 2.43776,2.079999 2.792616,3.489257 0.37801,1.501223 0.368147,4.827625 -0.01767,5.962985 -0.465087,1.368574 -1.583531,2.826442 -2.512475,3.274957 -1.303515,0.629366 -3.501139,0.51767 -4.94769,-0.251468 l -1.230043,-0.654015 v 3.167556 3.167561 H 43.50033 42.441997 Z m 7.005507,2.203528 c 2.155159,-0.981956 2.817337,-6.278676 1.071145,-8.568049 -1.244629,-1.631795 -3.743357,-1.733072 -5.263108,-0.213322 -0.676799,0.676799 -0.696878,0.790101 -0.696878,3.932408 0,2.904569 0.05787,3.309096 0.565711,3.954715 0.31114,0.395551 0.817155,0.82078 1.124479,0.944952 0.818129,0.330562 2.417506,0.305209 3.198651,-0.0507 z m 7.281992,-2.203528 v -9.128125 h 1.058334 c 0.95813,0 1.058333,0.0639 1.058333,0.674924 v 0.674923 l 0.92773,-0.707614 c 1.618726,-1.234662 4.448622,-1.204707 5.955249,0.06304 1.347428,1.133784 1.928551,2.57928 2.05658,5.115565 0.172813,3.423463 -0.604411,5.482898 -2.568837,6.806724 -1.298144,0.874819 -3.663955,0.842657 -5.222996,-0.071 l -1.147726,-0.672611 v 3.186153 3.186161 h -1.058333 -1.058334 z m 7.42401,1.798291 c 1.176496,-0.989956 1.571824,-2.108204 1.571824,-4.446166 0,-3.895543 -2.099588,-5.900939 -4.973976,-4.750837 -1.706534,0.68282 -1.905191,1.199866 -1.905191,4.958652 0,3.223368 0.0097,3.276174 0.727604,3.94505 0.897464,0.836217 1.229871,0.961262 2.625532,0.987664 0.833435,0.01577 1.312609,-0.154492 1.954207,-0.694363 z m -32.338214,2.293985 c -1.28449,-0.218778 -2.224772,-0.864006 -2.786266,-1.911955 -0.379665,-0.708591 -0.477255,-1.764356 -0.56228,-6.082925 l -0.10288,-5.225521 h 1.08594 1.085941 v 4.638707 c 0,3.456053 0.09792,4.873066 0.384077,5.557933 0.629918,1.507605 2.572744,1.898917 4.381296,0.882454 1.522109,-0.855473 1.607743,-1.247644 1.411027,-6.461978 l -0.174185,-4.617116 h 1.232226 1.232225 v 6.614584 6.614583 h -1.058333 c -0.9525,0 -1.058333,-0.06615 -1.058333,-0.661458 0,-0.798456 -0.08423,-0.809759 -1.002902,-0.134566 -0.876755,0.644389 -2.762969,1.009458 -4.067553,0.787258 z M 208.55695,95.9383 c -1.34706,-0.225691 -2.17538,-0.834497 -2.74732,-2.019246 -0.40814,-0.845446 -0.5069,-1.850248 -0.60008,-6.105231 l -0.11153,-5.093228 h 1.08969 1.0897 l 0.002,4.431771 c 8e-4,2.437474 0.12542,4.878065 0.27691,5.423535 0.45708,1.645882 2.46591,2.281837 4.29882,1.360921 1.70578,-0.85704 1.76042,-1.054573 1.76691,-6.387581 l 0.006,-4.828646 h 1.05833 1.05833 v 6.614584 6.614583 h -1.05833 c -0.96142,0 -1.05833,-0.06255 -1.05833,-0.683037 v -0.683038 l -0.96972,0.59932 c -1.12263,0.693823 -2.716,0.987297 -4.10074,0.755294 z m 65.56637,-0.04107 c -1.47025,-0.310311 -2.46647,-1.124923 -3.28074,-2.682669 -0.63673,-1.218122 -0.714,-1.651994 -0.71448,-4.011674 -5.3e-4,-2.190261 0.0964,-2.82866 0.56237,-3.707635 0.75912,-1.431925 1.79283,-2.420788 2.91913,-2.792502 1.28951,-0.425575 3.38774,-0.177838 4.31783,0.509804 0.42132,0.311507 0.83039,0.566376 0.90905,0.566376 0.0787,0 0.14301,-1.547813 0.14301,-3.439584 v -3.439583 h 1.05833 1.05834 v 9.525 9.525 h -0.92099 c -0.76298,0 -0.94964,-0.114067 -1.08786,-0.664793 l -0.16685,-0.664794 -0.92858,0.57389 c -1.17523,0.726328 -2.56336,0.978641 -3.86856,0.703165 z m 3.26576,-1.930331 c 1.41012,-0.729209 1.59041,-1.269247 1.59041,-4.764011 0,-3.675455 -0.16608,-4.082151 -1.9444,-4.761293 -1.33766,-0.51086 -2.9328,-0.236271 -3.72728,0.641621 -1.24067,1.370927 -1.60053,5.080319 -0.68789,7.090768 0.87204,1.921015 2.98519,2.715435 4.76916,1.792915 z m -260.090452,1.38755 c -1.214773,-0.613684 -2.373302,-2.021217 -2.373302,-2.883398 0,-0.393048 0.203793,-0.490039 1.029651,-0.490039 0.880999,0 1.053915,0.09668 1.197725,0.669665 0.409219,1.630456 3.882402,2.348003 5.331568,1.101483 1.228876,-1.057034 0.790292,-2.676296 -0.897342,-3.313005 -0.389662,-0.147012 -1.558458,-0.514489 -2.597323,-0.816618 -2.522487,-0.733602 -3.535478,-1.661653 -3.534123,-3.237783 0.002,-2.378247 1.866885,-3.911412 4.771594,-3.922931 2.429309,-0.0096 4.446757,1.322038 4.901451,3.235335 0.166593,0.701002 0.134346,0.727604 -0.882002,0.727604 -0.917064,0 -1.096876,-0.101298 -1.376009,-0.775186 -0.930734,-2.24699 -5.365502,-1.948317 -5.365502,0.361355 0,0.953893 0.736474,1.68613 2.026392,2.014735 2.812912,0.716586 3.986949,1.199639 4.815983,1.981518 0.789415,0.744514 0.896687,1.005696 0.896687,2.183207 0,2.416102 -1.766859,3.759371 -4.944861,3.759371 -1.364122,0 -2.118407,-0.149649 -3.000587,-0.595313 z m 53.982948,-8.929687 v -9.525 h 1.058333 1.058333 v 9.525 9.525 h -1.058333 -1.058333 z m 6.085416,2.910417 v -6.614584 h 1.058334 1.058333 v 6.614584 6.614583 h -1.058333 -1.058334 z m 8.863542,6.17568 c -2.384653,-1.254941 -3.293224,-2.964381 -3.301482,-6.211613 -0.0051,-1.993684 0.08838,-2.4652 0.733269,-3.699649 0.990759,-1.896532 2.463721,-2.92618 4.417867,-3.088233 3.487994,-0.289252 5.438619,1.59414 5.854422,5.652634 l 0.174207,1.700347 h -4.631219 -4.631219 l 0.191556,1.047543 c 0.389197,2.12835 1.909191,3.448396 3.970724,3.448396 1.103071,0 1.647309,-0.231511 3.225657,-1.372147 0.36576,-0.264325 0.547804,-0.232678 0.996294,0.1732 l 0.548761,0.496621 -0.599418,0.642484 c -1.072865,1.149944 -2.403753,1.650257 -4.359191,1.638727 -1.106225,-0.0065 -2.101458,-0.171091 -2.590228,-0.42831 z m 5.682731,-7.961618 c -0.0032,-0.254661 -0.231965,-0.96114 -0.508376,-1.569953 -1.382342,-3.044706 -5.574511,-2.250104 -6.261912,1.186909 l -0.169214,0.846065 h 3.472656 c 3.133117,0 3.472087,-0.04527 3.466846,-0.463021 z m 4.76831,1.785938 v -6.614584 h 1.02965 c 0.8905,0 1.05319,0.09379 1.203828,0.693974 0.147545,0.587871 0.222723,0.634242 0.491704,0.303293 0.628853,-0.77373 1.644413,-1.26185 2.625353,-1.26185 0.98378,0 0.99947,0.01605 0.99947,1.022254 0,1.010283 -0.012,1.022254 -1.02258,1.022254 -1.28982,0 -2.565836,0.74144 -2.97467,1.728454 -0.223909,0.540563 -0.27151,2.062205 -0.16396,5.241245 l 0.151548,4.479543 h -1.170173 -1.17017 z m 31.485415,0 v -6.614584 h 1.05833 c 0.94906,0 1.05834,0.06748 1.05834,0.653485 v 0.653485 l 0.95265,-0.646488 c 1.93819,-1.315288 4.63396,-1.247748 6.07843,0.152287 l 0.90036,0.872664 0.59834,-0.547184 c 1.59719,-1.460627 4.12524,-1.841475 5.97147,-0.899597 1.738,0.886662 1.97641,1.763352 2.11159,7.764994 l 0.11769,5.225521 -1.15537,4.6e-5 -1.15537,4.6e-5 v -5.137581 c 0,-5.033931 -0.0126,-5.150994 -0.62417,-5.802497 -1.39272,-1.483655 -4.1875,-1.001079 -5.13011,0.885819 -0.3867,0.774086 -0.46267,1.67497 -0.46302,5.490104 l -4.1e-4,4.564063 h -1.05833 -1.05834 v -5.100504 c 0,-5.735329 -0.0847,-6.042899 -1.80596,-6.558605 -1.31304,-0.393395 -3.00185,0.0521 -3.7361,0.985543 -0.50447,0.64133 -0.54335,1.047953 -0.54335,5.682164 v 4.991402 h -1.05834 -1.05833 z m 23.87623,6.086846 c -1.34506,-0.820095 -1.96575,-2.012922 -1.83519,-3.526868 0.21766,-2.524094 1.87072,-3.66781 5.60792,-3.879991 l 2.38125,-0.135196 0.0799,-1.093782 c 0.0613,-0.839913 -0.0635,-1.260476 -0.5379,-1.811967 -1.21536,-1.412946 -4.28077,-1.084886 -5.01986,0.537226 -0.23903,0.524621 -0.48993,0.648732 -1.31145,0.648732 -1.1963,0 -1.28191,-0.323992 -0.42055,-1.591503 1.30436,-1.919372 4.87207,-2.715223 7.1748,-1.600488 2.02435,0.979972 2.12958,1.300476 2.30754,7.028449 0.0859,2.764896 0.24757,5.235443 0.35925,5.490104 0.17688,0.403353 0.046,0.463021 -1.01588,0.463021 -1.00561,0 -1.21894,-0.08489 -1.21894,-0.485069 0,-0.813756 -0.28716,-0.84692 -1.44714,-0.167128 -1.44717,0.848102 -3.82187,0.906011 -5.10371,0.12446 z m 4.61128,-1.572247 c 1.37095,-0.622462 1.67499,-1.174641 1.67499,-3.041997 v -1.472602 h -1.72829 c -2.79641,0 -4.33158,0.88989 -4.34871,2.520816 -0.0222,2.118005 2.05562,3.059128 4.40201,1.993783 z m 6.87453,1.366859 c 0.26895,-0.403219 1.3,-1.934754 2.29121,-3.403411 l 1.8022,-2.670285 -2.28722,-3.350108 -2.28721,-3.350108 1.14647,0.160994 c 0.63056,0.08855 1.28196,0.201743 1.44755,0.251547 0.1656,0.0498 0.92201,1.118522 1.68091,2.37493 l 1.37983,2.284379 1.47277,-2.367632 c 1.45811,-2.344085 1.48481,-2.369001 2.68471,-2.505244 0.66657,-0.07569 1.25511,-0.09534 1.30787,-0.04368 0.0528,0.05166 -0.8143,1.410372 -1.9268,3.019358 -1.11249,1.608985 -2.0897,3.099974 -2.17156,3.313308 -0.0873,0.227391 0.79367,1.759745 2.12908,3.703479 l 2.27792,3.315599 -1.26061,-0.0031 -1.26062,-0.0031 -1.61509,-2.544825 -1.61509,-2.544825 -1.55991,2.538376 -1.55991,2.538377 -1.28275,0.0095 -1.28275,0.0095 z m 13.58588,-5.881458 v -6.614584 h 1.05833 1.05833 v 6.614584 6.614583 h -1.05833 -1.05833 z m 5.82083,0 v -6.614584 h 1.05833 c 0.9541,0 1.05834,0.06552 1.05834,0.665213 v 0.665212 l 1.05349,-0.697167 c 1.90443,-1.260295 4.7065,-1.182557 6.0571,0.168042 l 0.78118,0.781184 1.37237,-0.923534 c 1.16546,-0.784294 1.59773,-0.923471 2.86713,-0.923122 1.8582,5.03e-4 3.15097,0.619534 3.86702,1.851672 0.48326,0.831569 0.54731,1.472637 0.62783,6.283854 l 0.0897,5.357813 h -1.08185 -1.08185 v -4.723018 c 0,-2.671248 -0.12294,-5.075691 -0.283,-5.534844 -0.29541,-0.847397 -1.56355,-1.648388 -2.60975,-1.648388 -0.93987,0 -2.26415,0.680957 -2.74171,1.409802 -0.38391,0.585924 -0.45096,1.417347 -0.45096,5.592347 v 4.904101 h -1.05833 -1.05833 l -0.0149,-4.564063 c -0.009,-2.802668 -0.13681,-4.921446 -0.33073,-5.490104 -0.56714,-1.66308 -2.52353,-2.1977 -4.59254,-1.254995 -1.24076,0.565327 -1.4118,1.356868 -1.4118,6.533523 v 4.775639 h -1.05834 -1.05833 z m 36.24792,0 v -6.614584 h 1.05833 c 0.95409,0 1.05833,0.06552 1.05833,0.665213 v 0.665212 l 1.0535,-0.697167 c 1.90921,-1.26346 4.70667,-1.182386 6.06482,0.175766 l 0.78891,0.788909 1.20993,-0.852838 c 1.53048,-1.078778 3.95043,-1.328965 5.42593,-0.56096 1.78581,0.929523 1.98263,1.657264 2.07902,7.687219 l 0.0857,5.357813 h -1.07784 -1.07783 v -4.907931 c 0,-5.70689 -0.1502,-6.255099 -1.85363,-6.765457 -1.49088,-0.446679 -3.02249,0.03603 -3.71429,1.170612 -0.46115,0.756304 -0.51563,1.354803 -0.51651,5.67413 l -9.9e-4,4.828646 h -1.05833 -1.05834 v -4.638706 c 0,-5.419662 -0.2111,-6.257353 -1.73767,-6.895194 -1.52022,-0.635186 -3.72178,0.07927 -4.3252,1.403619 -0.17238,0.378347 -0.28713,2.528397 -0.28713,5.38023 v 4.750051 h -1.05833 -1.05833 z m 22.80708,6.297083 c -0.17462,-0.174625 -0.3175,-0.567531 -0.3175,-0.873125 0,-0.76033 0.49387,-1.190625 1.36653,-1.190625 0.6839,0 1.2793,0.598811 1.2793,1.286624 0,0.87072 -1.6755,1.429953 -2.32833,0.777126 z m 6.29708,-6.297083 v -6.614584 h 1.05834 c 0.95813,0 1.05833,0.0639 1.05833,0.674924 v 0.674923 l 0.95191,-0.726057 c 0.72084,-0.549808 1.33114,-0.753489 2.51416,-0.83906 1.8203,-0.131669 2.89535,0.234885 3.78309,1.289906 l 0.62386,0.741416 0.73734,-0.769618 c 0.96243,-1.004566 2.22354,-1.399648 3.99797,-1.252498 1.66277,0.13789 2.66085,0.759952 3.33241,2.076956 0.39413,0.772949 0.46266,1.680691 0.46302,6.132754 l 4.1e-4,5.225521 h -1.05834 -1.05833 v -5.100504 c 0,-5.746288 -0.0824,-6.042207 -1.82773,-6.565126 -1.25381,-0.375649 -2.56288,-0.0088 -3.49118,0.978318 -0.61623,0.655287 -0.63655,0.816413 -0.7164,5.680864 l -0.0822,5.006448 h -1.0423 -1.04229 v -5.006783 c 0,-4.968836 -0.005,-5.012806 -0.66861,-5.801382 -0.8087,-0.961082 -1.83836,-1.227119 -3.26382,-0.843283 -2.01588,0.542821 -2.15299,0.966952 -2.15299,6.660046 v 4.991402 h -1.05833 -1.05834 z M 77.543382,79.898373 c -0.09701,-0.09701 -0.17639,-0.509544 -0.17639,-0.916733 0,-1.395071 1.940428,-1.685567 2.277888,-0.341016 0.09119,0.363313 0.01921,0.819858 -0.164073,1.040699 -0.330317,0.398007 -1.612792,0.541683 -1.937425,0.21705 z m 99.580838,-0.335384 c -0.37211,-0.695293 -0.34568,-0.966148 0.14188,-1.453703 0.60375,-0.603754 1.36232,-0.510082 1.84589,0.227942 0.32809,0.500737 0.35676,0.765192 0.12908,1.190625 -0.3873,0.723671 -1.73638,0.746064 -2.11685,0.03514 z"
         id="path11392" />
    </g>
  </g>
</svg>
