<?xml version="1.0" encoding="UTF-8" standalone="no"?>
<!-- Created with Inkscape (http://www.inkscape.org/) -->

<svg
   width="338.13751mm"
   height="28.575005mm"
   viewBox="0 0 338.13751 28.575005"
   version="1.1"
   id="svg11666"
   xmlns="http://www.w3.org/2000/svg"
   xmlns:svg="http://www.w3.org/2000/svg">
  <defs
     id="defs11663" />
  <g
     id="layer1"
     transform="translate(25.20938,-96.730527)">
    <g
       id="g11610"
       transform="translate(-3.2127395,21.239781)">
      <path
         style="fill:#fefefe;stroke-width:0.264583"
         d="m -21.996641,89.778246 v -14.2875 H 147.07211 316.14087 v 14.2875 14.287504 H 147.07211 -21.996641 Z M 143.96326,102.57125 c 1.34088,-0.42689 1.39057,-0.50038 1.01183,-1.49655 l -0.24495,-0.64425 -1.54099,0.52408 c -2.99172,1.01747 -6.82107,0.0719 -8.47146,-2.091892 -3.03767,-3.982602 -2.29534,-12.149046 1.40004,-15.401852 2.97229,-2.61631 7.95798,-2.637098 10.7365,-0.04476 3.52093,3.284997 3.11779,12.712226 -0.54363,12.712226 -1.56961,0 -1.74571,-0.714127 -1.35073,-5.477327 l 0.34286,-4.134583 -0.59556,-0.482258 c -1.44301,-1.168476 -3.72627,-1.232015 -5.33419,-0.14844 -3.2906,2.217536 -4.31557,9.186105 -1.65949,11.282525 1.15481,0.911479 3.23467,0.680596 4.44609,-0.493553 0.85661,-0.830256 0.89822,-0.842148 1.06859,-0.305356 0.47744,1.504268 3.78806,1.792758 5.50909,0.480066 1.70626,-1.301429 2.17131,-2.737937 2.17131,-6.707065 v -3.472448 l -1.05833,-2.075791 c -1.82935,-3.58805 -4.41917,-5.004926 -8.82709,-4.829258 -6.24674,0.248951 -10.09062,5.023824 -10.09062,12.534596 0,8.19083 5.62924,12.62826 13.03073,10.2719 z m -4.83343,-7.187427 c -1.74004,-1.408997 -0.20602,-7.856389 2.00106,-8.41033 0.35726,-0.08967 0.96213,-0.08458 1.34415,0.0113 l 0.6946,0.174333 -0.18248,2.698621 c -0.23779,3.516518 -0.51363,4.498034 -1.49659,5.32514 -0.95552,0.804014 -1.55315,0.854882 -2.36074,0.200933 z m -77.782719,4.316299 c 0,-1.67349 0.03436,-3.042709 0.07635,-3.042709 0.04199,0 0.543414,0.238125 1.114277,0.529167 2.810613,1.432933 6.226206,-0.0083 7.314178,-3.086161 0.639303,-1.808604 0.474372,-5.812708 -0.302802,-7.351367 -1.533864,-3.036766 -4.810133,-3.966005 -7.513931,-2.131158 l -0.952654,0.646488 v -0.653484 c 0,-0.598112 -0.100888,-0.653485 -1.190625,-0.653485 h -1.190625 v 9.392709 9.392708 h 1.322917 1.322916 z m 0.814052,-4.78602 -0.814052,-0.684978 V 90.81306 c 0,-3.085577 0.05222,-3.46828 0.539732,-3.955796 1.627219,-1.627218 4.250478,-1.215872 5.294299,0.830185 0.625362,1.225811 0.710708,4.552137 0.151157,5.89133 -0.85811,2.053746 -3.505039,2.737252 -5.171136,1.335323 z m -69.622131,2.061864 c 0.9688023,-0.716267 1.0747441,-0.721587 1.0747441,-0.05397 0,0.450771 0.176389,0.529166 1.1906251,0.529166 h 1.190625 v -9.525 -9.525 h -1.3229167 -1.3229167 v 3.325308 3.325308 l -0.7843994,-0.558541 c -1.555118,-1.107342 -4.3448614,-0.96722 -5.9547134,0.29909 -2.787273,2.192469 -2.928455,9.214128 -0.234208,11.648328 1.598722,1.444413 4.5829466,1.703612 6.16316,0.535311 z m -3.66225,-1.711516 c -2.580588,-1.326215 -2.584569,-7.734736 -0.0056,-9.068355 1.1814079,-0.61093 2.7307825,-0.374079 3.713816,0.567727 0.7585985,0.726784 0.7642278,0.755327 0.7642278,3.87507 0,1.728591 -0.1225921,3.371958 -0.2724267,3.651927 -0.6124064,1.144292 -2.8559125,1.664377 -4.1999841,0.973631 z M 7.8167104,97.163476 C 8.8315383,96.672207 10.03222,95.542604 10.00963,95.100378 10.005053,95.010862 9.7106535,94.726158 9.3554001,94.467703 8.7230195,94.007629 8.686335,94.014557 7.6042262,94.798432 5.5845478,96.261481 2.9919628,95.783024 1.8407983,93.734804 0.66447397,91.641817 0.68621002,91.63033 5.8227998,91.63033 h 4.5361072 l -0.147463,-1.949796 c -0.302935,-4.005481 -2.5986374,-6.25612 -6.0437241,-5.92509 -6.2409607,0.599677 -7.6434794,11.01721 -1.8226935,13.538476 1.3895052,0.601863 4.0920301,0.537435 5.471684,-0.130444 z M 1.2925038,89.182934 c 0.0032,-0.181901 0.2319647,-0.828849 0.5083749,-1.437662 1.3950504,-3.072696 5.8358145,-2.240374 5.8358145,1.093794 v 0.674597 H 4.4616931 c -2.3667101,0 -3.1735208,-0.0842 -3.1691893,-0.330729 z m 31.6865432,8.121902 c 1.088895,-0.454857 2.438897,-1.629283 2.438897,-2.121702 0,-0.17432 -0.308949,-0.519376 -0.686554,-0.766793 -0.653362,-0.428098 -0.714126,-0.424771 -1.256771,0.0688 -2.142276,1.948534 -5.367168,1.356288 -6.427026,-1.180312 -0.718235,-1.718978 -0.82905,-1.674498 4.171813,-1.674498 h 4.532709 l -0.124727,-1.943524 c -0.279725,-4.358734 -3.54139,-6.943742 -7.226707,-5.727477 -5.435373,1.793834 -5.788216,11.47904 -0.487045,13.368853 1.377817,0.491177 3.861077,0.479732 5.065411,-0.02334 z m -6.292353,-8.104513 c 0,-0.172336 0.235595,-0.800015 0.523547,-1.394842 1.413065,-2.919006 5.11824,-2.54564 5.792502,0.583703 l 0.242287,1.124479 h -3.27917 c -2.349886,0 -3.279166,-0.0888 -3.279166,-0.31334 z m 25.606936,8.104513 c 4.805694,-2.007453 5.128607,-10.507701 0.490165,-12.902871 -4.440386,-2.292899 -8.981745,0.901703 -8.995545,6.327883 -0.01323,5.203553 4.126854,8.404003 8.50538,6.574988 z m -4.556926,-2.521272 c -2.01331,-1.76771 -1.969882,-6.464494 0.07661,-8.285045 1.473687,-1.310988 4.269523,-0.626894 5.166937,1.264263 2.275162,4.794552 -1.706772,10.126113 -5.243547,7.020782 z m 56.123756,2.379912 c 1.04171,-0.504279 2.20124,-1.609859 2.20124,-2.098814 0,-0.10916 -0.29621,-0.392556 -0.65824,-0.629768 -0.63084,-0.41334 -0.70409,-0.398084 -1.75949,0.366445 -2.01555,1.460058 -4.609351,0.979735 -5.759418,-1.066535 -1.176324,-2.092987 -1.154589,-2.104474 3.981998,-2.104474 h 4.53611 l -0.14746,-1.949796 c -0.62953,-8.323813 -10.701003,-7.917226 -11.483616,0.463595 -0.517552,5.542329 4.359439,9.308831 9.088876,7.019347 z m -6.524204,-7.980542 c 0.0032,-0.181901 0.231966,-0.828849 0.508376,-1.437662 1.312735,-2.891394 5.341058,-2.440652 5.754698,0.643912 l 0.15079,1.124479 h -3.20984 c -2.394576,0 -3.208358,-0.084 -3.204024,-0.330729 z m 31.215024,7.474479 c 0,-1.020917 -0.0309,-1.058333 -0.87312,-1.058333 -1.45104,0 -1.50813,-0.197307 -1.50813,-5.212292 v -4.577292 h 1.19063 c 1.18432,0 1.19062,-0.0049 1.19062,-0.926041 0,-0.921142 -0.006,-0.926042 -1.19062,-0.926042 h -1.19063 v -1.5875 -1.5875 h -1.32292 -1.32291 v 1.5875 1.5875 h -1.19063 c -1.18432,0 -1.19062,0.0049 -1.19062,0.926042 0,0.921142 0.006,0.926041 1.19062,0.926041 h 1.19063 l 0.006,4.564063 c 0.008,6.381103 0.45524,7.318041 3.49992,7.334142 l 1.52134,0.008 z m 54.42704,0.415266 c 1.0718,-0.61285 1.11953,-0.617685 1.2746,-0.129105 0.1308,0.412108 0.41241,0.507589 1.49705,0.507589 1.26598,0 1.32588,-0.03118 1.14377,-0.595312 -0.10569,-0.327422 -0.26841,-2.819295 -0.36158,-5.537496 -0.19269,-5.621008 -0.30534,-5.947738 -2.42378,-7.030213 -3.06693,-1.567121 -7.9321,0.318287 -7.9321,3.073938 0,0.916102 2.2566,0.832171 2.48869,-0.09256 0.60798,-2.422386 5.01828,-1.74975 5.36267,0.817887 l 0.14573,1.086456 -2.5092,0.131247 c -4.02501,0.210534 -5.81353,1.580675 -5.81353,4.453606 0,3.268968 3.97456,5.11691 7.12768,3.313966 z m -3.68982,-1.887756 c -0.83412,-0.452589 -1.17761,-1.470843 -0.83229,-2.46727 0.3559,-1.026942 1.76613,-1.615594 3.87163,-1.616079 l 1.78594,-4.11e-4 v 1.264046 c 0,2.512154 -2.59613,4.029238 -4.82528,2.819714 z m 58.74546,2.003713 c 0.96929,-0.439918 1.15769,-0.45846 1.28508,-0.126481 0.1,0.260601 0.53294,0.389008 1.31159,0.389008 h 1.16232 v -6.746875 -6.746875 h -1.32292 -1.32291 v 5.03911 c 0,5.674629 -0.14044,6.09216 -2.17761,6.474337 -3.09921,0.581416 -3.48709,-0.119899 -3.59769,-6.505002 l -0.0868,-5.008445 h -1.18916 -1.18917 l 0.0853,5.490104 c 0.0802,5.158695 0.12134,5.548051 0.68227,6.450043 1.11908,1.79954 3.96594,2.377481 6.35967,1.291076 z m 31.85015,0.08923 c 0.97909,-0.886081 0.26543,-2.472535 -1.11226,-2.472535 -0.87273,0 -1.38046,0.552267 -1.38046,1.501535 0,1.25622 1.52231,1.84921 2.49272,0.971 z m 34.02571,-0.312985 c 0.8437,-0.600778 0.85397,-0.60151 0.85397,-0.0609 0,0.472125 0.16332,0.547183 1.19062,0.547183 h 1.19063 v -9.525 -9.525 h -1.19063 -1.19062 v 3.299847 3.299848 l -1.23003,-0.654014 c -4.88045,-2.594959 -9.37596,3.038553 -7.4785,9.371654 1.03545,3.45606 5.16382,5.162358 7.85456,3.246382 z m -3.97135,-1.764791 c -2.07975,-1.172056 -2.41374,-6.421204 -0.53419,-8.39511 1.25648,-1.319532 3.6908,-1.193443 4.82621,0.249977 0.93459,1.188148 0.78902,6.397486 -0.21003,7.515609 -0.90172,1.009207 -2.86972,1.312712 -4.08199,0.629524 z m -279.439542,-4.513063 2.411193,-6.754756 -1.322017,0.07872 -1.32202,0.07872 -1.589328,4.894791 -1.589331,4.894792 -1.637258,-4.894792 -1.637255,-4.894791 -1.236027,-0.08064 c -0.679813,-0.04435 -1.236025,0.03412 -1.236025,0.17439 0,0.189479 3.021809,8.646607 4.622501,12.936982 0.06932,0.185794 0.561835,0.328674 1.123884,0.326039 l 1.00049,-0.0047 z m 20.475266,-2.760863 v -9.525 h -1.322917 -1.322916 v 9.525 9.525 h 1.322916 1.322917 z m 34.660418,4.556788 c 0,-5.551387 0.08625,-5.869754 1.737857,-6.414834 1.271075,-0.419492 2.617322,-0.126671 3.277762,0.712941 0.50106,0.636994 0.540631,1.052649 0.540631,5.678703 v 4.991402 h 1.322917 1.322916 v -4.890617 -4.890618 l 0.736188,-0.823937 c 0.858144,-0.960429 2.646016,-1.297793 3.761729,-0.709822 1.05767,0.557382 1.29167,1.76513 1.307984,6.750932 l 0.01493,4.564062 h 1.209781 1.209783 L 91.99179,91.96106 C 91.91548,87.049889 91.851296,86.379687 91.3831,85.60544 89.993127,83.306862 85.639197,83.096115 83.736467,85.235314 l -0.497104,0.558884 -0.539507,-0.685871 c -1.395569,-1.774177 -4.988097,-1.865219 -6.857122,-0.173773 -0.442605,0.400552 -0.472704,0.383063 -0.472704,-0.274674 0,-0.656163 -0.07848,-0.702466 -1.190625,-0.702466 h -1.190626 v 6.746875 6.746875 h 1.322917 1.322917 z m 35.718748,0.109102 c 0,-4.471045 0.0426,-4.913257 0.53331,-5.537097 1.0727,-1.363723 3.7744,-1.587346 4.61846,-0.382276 0.32896,0.469655 0.40448,1.529798 0.40448,5.67798 v 5.100503 h 1.34242 1.34242 l -0.0857,-5.357812 c -0.0729,-4.560555 -0.1582,-5.503713 -0.57326,-6.338305 -1.1715,-2.355624 -5.07468,-2.722122 -7.24784,-0.680551 l -0.59892,0.562659 v -0.83987 c 0,-0.819014 -0.0296,-0.839871 -1.19063,-0.839871 h -1.19062 v 6.746875 6.746875 h 1.32292 1.32291 z m 44.97917,-0.118472 V 87.496 l 0.81112,-0.777106 c 1.08175,-1.03638 3.32077,-1.128074 4.27476,-0.175064 0.57956,0.578966 0.6058,0.799538 0.68453,5.754688 l 0.0819,5.152646 h 1.15389 1.15389 l 0.0872,-4.828646 c 0.0968,-5.361536 0.2715,-5.973529 1.86389,-6.52864 1.40095,-0.488376 2.30131,-0.348086 3.13841,0.489017 l 0.7734,0.773397 v 5.047436 5.047436 h 1.35052 1.35052 l -0.0975,-5.225521 c -0.10749,-5.758044 -0.33861,-6.715895 -1.89523,-7.854279 -1.30273,-0.952713 -4.29275,-0.785043 -5.87521,0.329462 -1.20291,0.847191 -1.25504,0.859083 -1.60095,0.365221 -1.01518,-1.449366 -3.98502,-1.803875 -6.02501,-0.719202 -1.17945,0.627123 -1.23003,0.632562 -1.23003,0.132292 0,-0.44195 -0.18205,-0.521723 -1.19062,-0.521723 h -1.19063 v 6.746875 6.746875 h 1.19063 1.19062 z m 36.76957,2.61038 c 0.79623,-1.301432 1.5106,-2.30338 1.5875,-2.226551 0.0769,0.07683 0.73822,1.112088 1.46962,2.300576 l 1.32982,2.160886 1.52457,0.07965 1.52457,0.07965 -2.28233,-3.426166 -2.28234,-3.426167 2.13993,-3.194124 c 1.17696,-1.756769 2.13993,-3.257165 2.13993,-3.334215 0,-0.07705 -0.63051,-0.140089 -1.40113,-0.140089 h -1.40112 l -1.43297,2.360207 c -1.22183,2.012423 -1.47707,2.295081 -1.73218,1.91823 -0.16457,-0.243088 -0.80779,-1.305182 -1.42939,-2.360208 l -1.13019,-1.918229 h -1.44067 c -1.08047,0 -1.39176,0.08269 -1.24507,0.330729 0.10758,0.181901 1.01275,1.554859 2.01149,3.051018 0.99873,1.496159 1.87919,2.885285 1.95658,3.086947 0.0774,0.201663 -0.82076,1.801758 -1.99587,3.555768 -1.17511,1.75401 -2.13657,3.25215 -2.13657,3.329199 0,0.07705 0.62508,0.139873 1.38906,0.139608 l 1.38907,-4.76e-4 1.44769,-2.36624 z m 12.17835,-4.379673 v -6.746875 h -1.32292 -1.32291 v 6.746875 6.746875 h 1.32291 1.32292 z m 5.82083,1.831731 v -4.915144 l 0.75985,-0.759848 c 1.3369,-1.336901 3.50153,-1.375195 4.52035,-0.07997 0.50106,0.636994 0.54064,1.052649 0.54064,5.678703 v 4.991402 h 1.32291 1.32292 v -4.874491 c 0,-4.844048 0.004,-4.87952 0.67741,-5.679545 1.08767,-1.292623 3.21098,-1.43258 4.3564,-0.287151 0.48447,0.484471 0.52244,0.897369 0.52244,5.681812 v 5.159375 h 1.34242 1.34242 l -0.0857,-5.357812 c -0.0766,-4.789521 -0.14178,-5.453103 -0.61482,-6.256198 -1.47016,-2.495939 -5.33735,-2.936488 -7.42768,-0.846157 l -0.75119,0.751191 -0.51905,-0.659866 c -1.37557,-1.748753 -4.98147,-1.826692 -6.83666,-0.147768 -0.44261,0.400552 -0.47271,0.383063 -0.47271,-0.274674 0,-0.656163 -0.0785,-0.702466 -1.19062,-0.702466 h -1.19063 v 6.746875 6.746875 h 1.19063 1.19062 z m 36.24792,0 v -4.915144 l 0.75986,-0.759848 c 1.33688,-1.336901 3.50152,-1.375195 4.52035,-0.07997 0.50104,0.636994 0.54062,1.052649 0.54062,5.678703 v 4.991402 h 1.32292 1.32292 v -4.890617 -4.890618 l 0.77205,-0.86407 c 0.6999,-0.783346 0.91221,-0.86407 2.27232,-0.86407 2.44406,0 2.51188,0.172246 2.51188,6.379312 v 5.130063 h 1.32291 1.32292 v -4.987601 c 0,-5.205725 -0.17145,-6.300761 -1.16112,-7.415769 -1.62481,-1.830582 -5.25238,-1.815069 -7.02609,0.03005 l -0.64662,0.672622 -0.52229,-0.664003 c -1.37877,-1.752797 -4.98252,-1.832832 -6.83993,-0.151906 -0.44259,0.400552 -0.4727,0.383063 -0.4727,-0.274674 0,-0.656163 -0.0785,-0.702466 -1.19062,-0.702466 h -1.19063 v 6.746875 6.746875 h 1.19063 1.19062 z m 29.10417,0.003 c 0,-5.388401 0.0903,-5.779368 1.46801,-6.355005 1.90696,-0.796776 3.62654,-0.200896 4.07445,1.411885 0.15148,0.54547 0.2761,2.986061 0.27689,5.423535 l 0.001,4.431771 h 1.19063 1.19062 v -4.643347 c 0,-5.172658 0.17193,-5.869427 1.63505,-6.626028 1.05791,-0.547075 2.73685,-0.351087 3.497,0.408218 0.52122,0.520625 0.56168,0.882523 0.63836,5.708511 l 0.0819,5.152646 h 1.17489 1.1749 l -0.006,-5.225521 c -0.005,-4.60278 -0.0671,-5.360593 -0.52022,-6.358935 -1.13432,-2.499252 -5.33638,-2.92465 -7.62759,-0.772187 -0.56227,0.528216 -0.64963,0.542533 -0.93435,0.153155 -1.16578,-1.594266 -3.9297,-2.018358 -6.07521,-0.932168 -1.16953,0.592095 -1.23759,0.598592 -1.38557,0.132292 -0.1207,-0.380296 -0.41894,-0.490386 -1.32844,-0.490386 h -1.1728 v 6.746875 6.746875 h 1.32292 1.32292 V 92.538978 Z M 205.17959,81.168449 c 0.83431,-1.273314 -0.40178,-2.561466 -1.79503,-1.870648 -0.70203,0.348085 -0.96771,1.564874 -0.47208,2.16207 0.52357,0.630868 1.76758,0.47096 2.26711,-0.291422 z"
         id="path11626" />
      <path
         style="fill:#cdcdcd;stroke-width:0.264583"
         d="m 40.8292,87.926163 c 0,-5.311511 0.03531,-7.484401 0.07847,-4.828646 0.04316,2.655755 0.04316,7.001537 0,9.657292 -0.04316,2.655755 -0.07847,0.482865 -0.07847,-4.828646 z m 34.651115,4.630209 c 2.54e-4,-2.764896 0.03946,-3.86004 0.08713,-2.433654 0.04766,1.426387 0.04746,3.688575 -5.29e-4,5.027084 -0.04785,1.338509 -0.08685,0.171466 -0.0866,-2.59343 z m 41.538115,0.396875 c 0,-2.546615 0.0397,-3.588412 0.0882,-2.315105 0.0485,1.273308 0.0485,3.356902 0,4.630209 -0.0485,1.273307 -0.0882,0.23151 -0.0882,-2.315104 z m 85.73146,-2.248959 c 1.6e-4,-3.783542 0.0373,-5.294561 0.0826,-3.35782 0.0453,1.936741 0.0452,5.032366 -2.6e-4,6.879167 -0.0454,1.846801 -0.0825,0.262195 -0.0823,-3.521347 z m 58.73155,2.116667 c 2.7e-4,-2.619375 0.0399,-3.65515 0.088,-2.301721 0.0481,1.353428 0.0479,3.496553 0,4.7625 -0.0484,1.265947 -0.0878,0.158596 -0.0875,-2.460779 z m 12.44137,-2.116667 c 1.6e-4,-3.783542 0.0373,-5.294561 0.0826,-3.35782 0.0453,1.936741 0.0451,5.032366 0,6.879167 -0.0457,1.846801 -0.0827,0.262195 -0.0826,-3.521347 z m -192.627554,1.5875 c 5.29e-4,-2.037291 0.04194,-2.835754 0.0923,-1.774362 0.05035,1.061393 0.05001,2.728268 -7.94e-4,3.704167 -0.05072,0.975899 -0.09191,0.107487 -0.0915,-1.929805 z M 3.4695056,91.43333 c 1.2733073,-0.0485 3.3569011,-0.0485 4.6302085,0 1.2733073,0.0485 0.2315104,0.08818 -2.3151043,0.08818 -2.5466146,0 -3.5884115,-0.03968 -2.3151042,-0.08818 z m 25.4000004,0 c 1.273308,-0.0485 3.356901,-0.0485 4.630209,0 1.273307,0.0485 0.23151,0.08818 -2.315104,0.08818 -2.546615,0 -3.588412,-0.03968 -2.315105,-0.08818 z m 70.643752,0 c 1.273312,-0.0485 3.356902,-0.0485 4.630212,0 1.2733,0.0485 0.23151,0.08818 -2.31511,0.08818 -2.546612,0 -3.588409,-0.03968 -2.315102,-0.08818 z m 73.299112,-2.051959 c 0.002,-0.727604 0.0534,-0.993857 0.11419,-0.591674 0.0608,0.402183 0.0592,0.997496 -0.004,1.322917 -0.0628,0.325421 -0.11257,-0.0036 -0.11059,-0.731243 z"
         id="path11624" />
      <path
         style="fill:#b1b1b1;stroke-width:0.264583"
         d="m 58.820552,93.21783 c 0,-5.16599 0.03544,-7.279349 0.07876,-4.696354 0.04332,2.582995 0.04332,6.809713 0,9.392708 -0.04332,2.582996 -0.07876,0.469636 -0.07876,-4.696354 z M -4.1499689,87.926163 c 0,-5.311511 0.03531,-7.484401 0.078466,-4.828646 0.043157,2.655755 0.043157,7.001537 0,9.657292 -0.043156,2.655755 -0.078466,0.482865 -0.078466,-4.828646 z m 115.3485689,4.7625 c 0,-2.692135 0.0393,-3.793463 0.0873,-2.447396 0.048,1.346068 0.048,3.548724 0,4.894792 -0.048,1.346068 -0.0873,0.24474 -0.0873,-2.447396 z m 61.64174,1.322917 c 0,-1.964531 0.0417,-2.768203 0.0926,-1.785938 0.0509,0.982266 0.0509,2.58961 0,3.571876 -0.0509,0.982265 -0.0926,0.178593 -0.0926,-1.785938 z m 46.57184,-1.058333 c 0,-2.546615 0.0397,-3.588412 0.0882,-2.315105 0.0485,1.273308 0.0485,3.356902 0,4.630209 -0.0485,1.273307 -0.0882,0.23151 -0.0882,-2.315104 z m 5.82184,-0.264584 c 0,-2.692135 0.0393,-3.793463 0.0873,-2.447396 0.048,1.346068 0.048,3.548724 0,4.894792 -0.048,1.346068 -0.0873,0.24474 -0.0873,-2.447396 z m 16.40963,-1.984375 c 1.5e-4,-3.783542 0.0373,-5.294561 0.0826,-3.35782 0.0453,1.936741 0.0451,5.032366 -2.6e-4,6.879167 -0.0454,1.846801 -0.0825,0.262195 -0.0823,-3.521347 z m 14.01646,2.248959 c 0,-2.546615 0.0397,-3.588412 0.0882,-2.315105 0.0485,1.273308 0.0485,3.356902 0,4.630209 -0.0485,1.273307 -0.0882,0.23151 -0.0882,-2.315104 z M 126.00645,91.233455 c 5.3e-4,-1.74625 0.0434,-2.426194 0.0952,-1.510986 0.0518,0.915208 0.0514,2.343958 -0.001,3.175 -0.0522,0.831042 -0.0946,0.08224 -0.0941,-1.664014 z"
         id="path11622" />
      <path
         style="fill:#8f8f8f;stroke-width:0.264583"
         d="m 61.17791,100.097 c 0,-1.382451 0.04459,-1.947998 0.0991,-1.256774 0.0545,0.691224 0.0545,1.822314 0,2.513544 -0.0545,0.69122 -0.0991,0.12567 -0.0991,-1.25677 z m 47.6449,-9.392712 c 1.5e-4,-3.783542 0.0373,-5.294561 0.0826,-3.35782 0.0453,1.936741 0.0451,5.032366 -2.7e-4,6.879167 -0.0454,1.846801 -0.0825,0.262195 -0.0823,-3.521347 z m 144.45655,2.116667 c 2.6e-4,-2.619375 0.0399,-3.65515 0.088,-2.301721 0.0481,1.353428 0.0479,3.496553 0,4.7625 -0.0484,1.265947 -0.0878,0.158596 -0.0875,-2.460779 z m -36.25624,-1.322917 c 5.3e-4,-1.74625 0.0434,-2.426194 0.0952,-1.510986 0.0518,0.915208 0.0514,2.343958 -0.001,3.175001 -0.0522,0.831042 -0.0946,0.08223 -0.0941,-1.664015 z M 61.184488,90.83658 c 0,-1.819011 0.04227,-2.563151 0.09394,-1.653646 0.05166,0.909505 0.05166,2.397787 0,3.307292 -0.05167,0.909505 -0.09394,0.165364 -0.09394,-1.653646 z M -6.5497988,90.704288 c 5.291e-4,-1.74625 0.043344,-2.426194 0.095157,-1.510986 0.051813,0.915208 0.051386,2.343958 -9.525e-4,3.175001 -0.052335,0.831042 -0.094728,0.08223 -0.094205,-1.664015 z M 123.63069,89.778246 c 0,-2.255572 0.0406,-3.178307 0.0902,-2.05052 0.0496,1.127786 0.0496,2.973255 0,4.101041 -0.0496,1.127787 -0.0902,0.205052 -0.0902,-2.050521 z M 239.2574,88.852205 c 2.6e-4,-2.764896 0.0395,-3.86004 0.0871,-2.433653 0.0477,1.426386 0.0475,3.688574 -5.3e-4,5.027083 -0.0478,1.33851 -0.0868,0.171466 -0.0866,-2.59343 z m -11.66727,0.926041 c 0,-0.945885 0.048,-1.332838 0.10672,-0.859895 0.0587,0.472942 0.0587,1.246849 0,1.719791 -0.0587,0.472943 -0.10672,0.08599 -0.10672,-0.859896 z m 48.68761,-0.264583 c 0,-1.091406 0.0467,-1.537891 0.10379,-0.992187 0.0571,0.545703 0.0571,1.438672 0,1.984375 -0.0571,0.545703 -0.10379,0.09922 -0.10379,-0.992188 z m -93.94626,1.39764 c 0.40218,-0.06082 0.9975,-0.05919 1.32292,0.0036 0.32542,0.0628 -0.004,0.11256 -0.73124,0.110574 -0.72761,-0.002 -0.99386,-0.05337 -0.59168,-0.114186 z m -56.35036,-3.911182 c 0.002,-0.727604 0.0534,-0.993857 0.11419,-0.591674 0.0608,0.402183 0.0592,0.997496 -0.004,1.322917 -0.0628,0.32542 -0.11257,-0.0036 -0.11059,-0.731243 z m 50.79411,0.736182 c 0.40218,-0.06082 0.9975,-0.05919 1.32292,0.0036 0.32542,0.0628 -0.004,0.11256 -0.73124,0.110574 -0.72761,-0.002 -0.99386,-0.05337 -0.59168,-0.114186 z m -53.16635,-5.36639 c 0,-0.945886 0.048,-1.332839 0.10672,-0.859896 0.0587,0.472943 0.0587,1.246849 0,1.719792 -0.0587,0.472942 -0.10672,0.08599 -0.10672,-0.859896 z m 2.38125,0 c 0,-0.945886 0.048,-1.332839 0.10672,-0.859896 0.0587,0.472943 0.0587,1.246849 0,1.719792 -0.0587,0.472942 -0.10672,0.08599 -0.10672,-0.859896 z M -6.5529206,81.046996 c 0,-1.527969 0.043729,-2.153047 0.097175,-1.389062 0.053446,0.763984 0.053446,2.01414 0,2.778125 -0.053447,0.763984 -0.097175,0.138906 -0.097175,-1.389063 z"
         id="path11620" />
      <path
         style="fill:#717171;stroke-width:0.264583"
         d="m 73.104057,90.704288 c 1.51e-4,-3.783542 0.03731,-5.294561 0.08258,-3.35782 0.04526,1.936741 0.04514,5.032366 -2.65e-4,6.879167 -0.04543,1.846801 -0.08246,0.262195 -0.08232,-3.521347 z m 10.575156,2.645834 c 2.64e-4,-2.328334 0.04081,-3.245415 0.08995,-2.037958 0.04914,1.207456 0.04886,3.112456 -5.3e-4,4.233333 -0.04955,1.120877 -0.08975,0.132958 -0.08942,-2.195375 z m 35.720467,-0.396875 c 0,-2.546615 0.0397,-3.588412 0.0882,-2.315105 0.0485,1.273308 0.0485,3.356902 0,4.630209 -0.0485,1.273307 -0.0882,0.23151 -0.0882,-2.315104 z m 51.06403,0.132291 c -2.6e-4,-2.473854 0.0395,-3.521497 0.0884,-2.328095 0.0489,1.193402 0.0492,3.217464 5.3e-4,4.497917 -0.0486,1.280452 -0.0886,0.304033 -0.0889,-2.169822 z m 34.66743,-2.38125 c 1.6e-4,-3.783542 0.0373,-5.294561 0.0826,-3.35782 0.0453,1.936741 0.0452,5.032366 -2.6e-4,6.879167 -0.0454,1.846801 -0.0825,0.262195 -0.0823,-3.521347 z m 11.87296,5.291667 c 0.002,-0.873125 0.0509,-1.198415 0.10977,-0.722866 0.0589,0.475549 0.0577,1.189924 -0.003,1.5875 -0.0604,0.397576 -0.10855,0.0085 -0.10707,-0.864634 z m 10.60236,-1.5875 c 5.3e-4,-1.74625 0.0433,-2.426194 0.0951,-1.510986 0.0518,0.915208 0.0514,2.343958 -0.001,3.175 -0.0522,0.831042 -0.0946,0.08224 -0.0941,-1.664014 z m 36.25573,-1.455208 c 0,-2.546615 0.0397,-3.588412 0.0882,-2.315105 0.0485,1.273308 0.0485,3.356902 0,4.630209 -0.0485,1.273307 -0.0882,0.23151 -0.0882,-2.315104 z m 12.42761,1.455208 c 0,-1.74625 0.0433,-2.426194 0.0951,-1.510986 0.0518,0.915208 0.0514,2.343958 0,3.175 -0.0523,0.831042 -0.0947,0.08224 -0.0942,-1.664014 z"
         id="path11618" />
      <path
         style="fill:#4f4f4f;stroke-width:0.264583"
         d="m 38.44795,87.926163 c 0,-5.311511 0.03531,-7.484401 0.07847,-4.828646 0.04316,2.655755 0.04316,7.001537 0,9.657292 -0.04316,2.655755 -0.07847,0.482865 -0.07847,-4.828646 z m 206.63528,2.778125 c 1.6e-4,-3.783542 0.0373,-5.294561 0.0826,-3.35782 0.0453,1.936741 0.0451,5.032366 -2.7e-4,6.879167 -0.0454,1.846801 -0.0825,0.262195 -0.0823,-3.521347 z M 162.25,90.968872 c 7.9e-4,-1.455209 0.0451,-2.016764 0.0987,-1.247902 0.0536,0.768863 0.0531,1.959488 -0.001,2.645833 -0.0542,0.686346 -0.0981,0.05728 -0.0974,-1.397931 z m 68.79167,-0.529167 c 7.9e-4,-1.455209 0.0451,-2.016764 0.0987,-1.247902 0.0536,0.768863 0.0531,1.959488 -10e-4,2.645834 -0.0542,0.686346 -0.0981,0.05728 -0.0974,-1.397932 z m -139.173558,0 c -7.94e-4,-1.309688 0.04393,-1.878827 0.09942,-1.264754 0.05549,0.614073 0.05615,1.685635 0.0016,2.38125 -0.0548,0.695615 -0.100205,0.193191 -0.10101,-1.116496 z"
         id="path11616" />
      <path
         style="fill:#303030;stroke-width:0.264583"
         d="m 91.869578,95.069913 c 0,-1.382448 0.04459,-1.947995 0.0991,-1.256771 0.0545,0.691224 0.0545,1.822318 0,2.513542 -0.0545,0.691224 -0.0991,0.125677 -0.0991,-1.256771 z m 64.308192,-2.38125 c 0,-2.692135 0.0393,-3.793463 0.0873,-2.447396 0.048,1.346068 0.048,3.548724 0,4.894792 -0.048,1.346068 -0.0873,0.24474 -0.0873,-2.447396 z m 6.0663,2.778125 c 0.001,-1.164166 0.0475,-1.607504 0.10337,-0.985193 0.0559,0.62231 0.0551,1.57481 -0.002,2.116666 -0.0567,0.541857 -0.10247,0.03269 -0.10151,-1.131473 z m 46.60116,-4.630208 0.007,-6.746875 0.92605,-0.02366 c 0.91315,-0.02333 0.91414,-0.02219 0.0707,0.08185 l -0.85538,0.105509 -0.0778,6.665026 -0.0777,6.665027 z m 75.64928,3.175 c 0,-1.964531 0.0416,-2.768203 0.0926,-1.785938 0.0509,0.982266 0.0509,2.58961 0,3.571876 -0.0509,0.982265 -0.0926,0.178593 -0.0926,-1.785938 z m 22.50553,-6.085417 c 0,-5.311511 0.0353,-7.484401 0.0785,-4.828646 0.0431,2.655755 0.0431,7.001537 0,9.657292 -0.0432,2.655755 -0.0785,0.482865 -0.0785,-4.828646 z m -16.42096,4.101042 c 0,-1.891771 0.0426,-2.63096 0.0937,-1.642642 0.051,0.988317 0.0507,2.53613 0,3.439583 -0.0515,0.903453 -0.0933,0.09483 -0.0928,-1.796941 z m -106.38601,0.132292 c 0,-0.800365 0.0496,-1.127787 0.11022,-0.727605 0.0606,0.400183 0.0606,1.055026 0,1.455209 -0.0606,0.400182 -0.11022,0.07276 -0.11022,-0.727604 z m -1.40655,-2.834019 c 0.65245,-0.06208 1.2866,-0.253487 1.4092,-0.42536 0.15413,-0.216055 0.18992,-0.190015 0.11596,0.08438 -0.0752,0.2792 -0.49309,0.405322 -1.40921,0.42536 l -1.30223,0.02848 z m 48.27345,-3.38369 0.0173,-1.852083 1.12645,-0.02595 1.12644,-0.02595 -1.049,0.106759 -1.049,0.106759 -0.0948,1.771277 -0.0948,1.771276 0.0174,-1.852083 z m 16.02465,-1.411111 c 0,-0.172781 -0.43683,-0.327323 -0.99219,-0.351024 l -0.99219,-0.04234 0.89355,-0.109221 c 0.8726,-0.106664 1.63216,0.269926 1.27162,0.63047 -0.0994,0.09944 -0.18079,0.04189 -0.18079,-0.127882 z M 11.582877,84.138728 c 0.119578,-0.119578 0.67959,-0.177008 1.24447,-0.127621 l 1.027055,0.0898 -1.244471,0.127621 c -0.684458,0.07019 -1.146632,0.02978 -1.027054,-0.08979 z m 9.81215,0.08327 -1.190625,-0.185106 1.108863,-0.03974 c 0.609876,-0.02186 1.18245,0.07932 1.272387,0.224844 0.08994,0.145521 0.12673,0.246701 0.08176,0.224845 -0.04497,-0.02186 -0.617543,-0.123036 -1.272387,-0.224845 z m 100.611453,-0.18986 c 0.40218,-0.06081 0.9975,-0.05919 1.32292,0.0036 0.32542,0.0628 -0.004,0.11256 -0.73125,0.110574 -0.7276,-0.002 -0.99385,-0.05337 -0.59167,-0.114186 z m 4.49428,3.44e-4 c 0.40018,-0.06062 1.05503,-0.06062 1.45521,0 0.40018,0.06062 0.0728,0.110223 -0.72761,0.110223 -0.80036,0 -1.12778,-0.0496 -0.7276,-0.110223 z"
         id="path11614" />
      <path
         style="fill:#000000;stroke-width:0.264583"
         d="m 137.87259,102.5972 c -5.62642,-1.51477 -8.20956,-7.587995 -6.23668,-14.663074 1.77677,-6.371779 7.24504,-9.444771 13.36763,-7.512178 2.08758,0.658943 3.49912,1.953524 4.63467,4.250643 l 1.00578,2.034612 v 3.453751 c 0,3.099304 -0.0644,3.584521 -0.62737,4.72798 -1.38704,2.81719 -5.42001,3.667381 -6.63425,1.398565 l -0.3615,-0.675471 -1.01784,0.919568 c -0.86247,0.779184 -1.21071,0.919567 -2.28114,0.919567 -2.30402,0 -3.23311,-1.292007 -3.23311,-4.496028 0,-5.431075 3.52391,-8.886444 7.30955,-7.167378 1.44693,0.657056 1.40145,0.44793 0.98303,4.519656 -0.42339,4.120184 -0.32246,5.127482 0.57257,5.713929 3.60291,2.360712 5.73411,-7.19534 2.62511,-11.770647 -3.01559,-4.437828 -10.8106,-3.811516 -13.68886,1.09987 -2.25974,3.855953 -2.1812,10.39756 0.16173,13.469335 1.85873,2.43697 6.33658,3.53849 9.23481,2.27171 0.94383,-0.41254 0.98656,-0.4085 1.15076,0.10885 0.44891,1.41441 -3.76237,2.25894 -6.96489,1.39674 z m 3.89956,-7.461141 c 1.06047,-1.065201 1.05351,-1.036315 1.49261,-6.199188 l 0.17282,-2.032 -0.89747,-0.168366 c -2.44904,-0.459443 -4.26323,2.057358 -4.30839,5.976962 -0.0243,2.109924 0.22997,2.733112 1.29058,3.163022 0.9323,0.377897 1.23599,0.277952 2.24985,-0.74043 z M 58.965861,93.33415 v -9.144097 l 0.992188,0.08212 c 0.796697,0.06594 1.008832,0.199308 1.076666,0.67691 l 0.08448,0.594794 0.926793,-0.7069 c 1.088374,-0.830144 3.209531,-1.115155 4.682204,-0.629129 4.274,1.410547 4.553228,10.703762 0.386744,12.871582 -1.195969,0.622263 -3.557698,0.47679 -4.884684,-0.300876 L 61.082528,96.10594 v 3.186154 3.186156 h -1.058333 -1.058334 z m 7.2736,1.954997 c 2.23275,-1.756282 2.340563,-7.387846 0.170786,-8.920998 -1.160574,-0.820056 -2.248395,-0.922713 -3.572245,-0.337112 -1.617065,0.715305 -1.755474,1.09935 -1.755474,4.870939 0,3.232188 0.0096,3.284085 0.727604,3.953135 1.284235,1.196595 3.218884,1.386173 4.429329,0.434036 z m -77.606031,2.089921 c -4.44162,-0.898141 -5.552649,-9.834058 -1.575402,-12.670829 1.233488,-0.879784 4.1873269,-0.892473 5.4059668,-0.02322 0.4590267,0.327422 0.9055111,0.595313 0.9921876,0.595313 0.086677,0 0.1575937,-1.547813 0.1575937,-3.439584 v -3.439583 h 1.0583334 1.0583334 v 9.525 9.525 h -1.0583334 c -0.9525,0 -1.0583334,-0.06614 -1.0583334,-0.661458 0,-0.804318 -0.082,-0.81229 -1.0434743,-0.101441 -0.9712479,0.718075 -2.4868398,0.984016 -3.9368718,0.690804 z m 3.2149707,-1.876182 c 1.5091495,-0.630563 1.7653754,-1.339643 1.7653754,-4.885501 0,-3.560249 -0.3339782,-4.245373 -2.3394236,-4.799103 -2.5467395,-0.703189 -4.3294495,1.03143 -4.4983945,4.377045 -0.218282,4.322598 1.964217,6.606259 5.0724427,5.307559 z M 125.99736,97.434552 c -1.97091,-0.403096 -2.20858,-1.154905 -2.20858,-6.986349 v -4.638707 h -1.19063 c -1.14652,0 -1.19062,-0.0294 -1.19062,-0.79375 0,-0.764352 0.0441,-0.79375 1.19062,-0.79375 h 1.19063 v -1.719791 -1.719792 h 1.05833 1.05834 v 1.719792 1.719791 h 1.32291 c 1.29352,0 1.32292,0.01764 1.32292,0.79375 0,0.776111 -0.0294,0.79375 -1.32292,0.79375 h -1.32291 v 4.589202 c 0,5.16839 0.16598,5.655994 1.84164,5.41006 0.75369,-0.110618 0.80419,-0.06457 0.80419,0.733241 0,0.941969 -0.85363,1.240298 -2.55392,0.892553 z m 108.31536,0.01281 c -2.58625,-0.464814 -3.1031,-1.828918 -3.1031,-8.189787 v -5.035582 h 1.05833 1.05833 v 5.047436 5.047436 l 0.7734,0.773398 c 0.88105,0.881045 2.0958,1.018822 3.56615,0.404471 1.64591,-0.687706 1.74587,-1.056245 1.74587,-6.43682 v -4.835921 h 1.05833 1.05834 v 6.614584 6.614583 h -1.05834 c -0.94432,0 -1.05833,-0.06925 -1.05833,-0.642832 v -0.642833 l -1.12448,0.611086 c -1.30644,0.70997 -2.56996,0.923216 -3.9745,0.670782 z m 65.82086,-0.0012 c -2.72455,-0.575787 -4.17902,-2.922239 -4.17902,-6.741927 0,-5.391794 3.54222,-8.239346 7.5792,-6.092861 l 1.23003,0.654015 v -3.43214 -3.432139 h 1.05833 1.05833 v 9.525 9.525 h -0.92604 c -0.8114,0 -0.92604,-0.08189 -0.92604,-0.661458 0,-0.799951 -0.10327,-0.812355 -1.06455,-0.127866 -0.89855,0.639825 -2.73484,1.01587 -3.83024,0.784376 z m 2.86165,-1.880198 c 1.68421,-0.867414 1.76856,-1.099291 1.76856,-4.861729 0,-3.898668 -0.19405,-4.343392 -2.1385,-4.901055 -2.77336,-0.795389 -4.57308,1.124451 -4.59444,4.901055 -0.0222,3.93237 2.31834,6.224528 4.96438,4.861729 z M 2.3469155,97.029687 c -2.37510432,-1.029978 -3.30745553,-2.775252 -3.30844983,-6.193107 -0.001305,-4.486045 2.30692463,-7.071854 6.09726673,-6.830504 2.903908,0.184907 4.5770246,2.117608 4.8251138,5.573733 l 0.1281988,1.785938 H 5.5209605 0.95287219 l 0.15203651,0.936891 c 0.3520471,2.169412 1.9292382,3.561025 4.0359037,3.561025 1.1087127,0 2.6309533,-0.651686 3.1057957,-1.32962 0.3111447,-0.444219 0.3571187,-0.442516 0.9469279,0.03508 2.056278,1.665073 -3.8151621,3.775171 -6.8466205,2.460561 z m 5.5543611,-8.053689 c 0,-4.350027 -5.6787666,-4.510661 -6.7147845,-0.189939 L 1.012028,89.513663 h 3.4446243 c 3.2863822,0 3.4446243,-0.0247 3.4446243,-0.537665 z m 6.7921454,4.174034 c -0.848225,-2.363805 -1.933525,-5.36939 -2.411775,-6.679077 l -0.869548,-2.38125 1.141479,0.09171 1.141478,0.09171 1.690561,5.067664 1.690558,5.067663 1.683763,-5.070843 1.683764,-5.070843 1.105601,-0.08853 1.105604,-0.08853 -1.040736,2.910416 c -3.926859,10.981455 -3.694668,10.451203 -4.575675,10.44939 -0.797555,-0.0016 -0.813004,-0.02996 -2.345074,-4.29948 z m 12.888598,3.794953 c -5.904849,-2.681502 -3.451828,-13.346783 2.975634,-12.937513 2.893454,0.184242 4.554974,2.097322 4.800378,5.527174 l 0.131014,1.831101 h -4.533467 c -5.155546,0 -5.11687,-0.02157 -4.000457,2.231568 1.188989,2.399612 4.274473,3.042911 6.323851,1.318472 1.321419,-1.111899 2.526649,-0.02172 1.275464,1.153711 -1.503921,1.412861 -4.860878,1.834375 -6.972417,0.875487 z m 5.719257,-8.110174 c 0,-4.089992 -5.703784,-4.285557 -6.619147,-0.22695 l -0.204293,0.905802 h 3.41172 3.41172 z m 5.291667,-0.908648 v -9.525 h 1.058333 1.058334 v 9.525 9.525 h -1.058334 -1.058333 z m 8.863542,9.152505 c -4.826466,-2.139048 -4.639985,-10.86537 0.27228,-12.741382 5.06666,-1.934975 9.449835,3.111319 7.805061,8.985872 -0.916726,3.274221 -4.941248,5.145399 -8.077341,3.75551 z m 5.04661,-2.371151 c 3.446357,-3.986847 -0.302567,-11.354375 -4.370846,-8.589756 -2.709023,1.840929 -2.813306,7.598432 -0.167775,9.262701 1.379403,0.867763 3.47543,0.556983 4.538621,-0.672945 z M 73.253362,90.83658 v -6.614584 h 1.058333 c 0.958131,0 1.058334,0.0639 1.058334,0.674924 v 0.674923 l 0.95191,-0.726057 c 1.810657,-1.381056 4.945316,-1.155832 6.298686,0.452556 l 0.625301,0.743126 0.592084,-0.630246 c 1.454902,-1.548673 4.445146,-1.966165 6.111122,-0.853223 1.659384,1.108543 1.824191,1.801097 1.824654,7.667643 l 4.1e-4,5.225521 H 90.715862 89.657529 V 92.35066 c 0,-5.746289 -0.08238,-6.042208 -1.827729,-6.565127 -1.253807,-0.375649 -2.562878,-0.0088 -3.491177,0.978318 -0.61623,0.655287 -0.63655,0.816413 -0.716401,5.680864 l -0.08218,5.006448 h -1.042297 -1.042297 v -4.912185 c 0,-4.959799 -0.120496,-5.702079 -1.035404,-6.378309 -1.184283,-0.87533 -3.592124,-0.545714 -4.506659,0.616929 -0.50447,0.641329 -0.543353,1.047952 -0.543353,5.682163 v 4.991402 h -1.058334 -1.058333 z m 25.137306,6.206604 c -2.389679,-1.0712 -3.307455,-2.792935 -3.30845,-6.206604 -0.0013,-4.486045 2.306926,-7.071854 6.097272,-6.830504 2.9039,0.184907 4.57702,2.117608 4.82511,5.573733 l 0.1282,1.785938 h -4.53347 -4.533467 v 0.619843 c 0,1.045302 1.134924,2.859346 2.119132,3.387182 1.600115,0.858151 4.218065,0.428063 5.105365,-0.838729 0.31119,-0.444281 0.35697,-0.442641 0.94543,0.03387 2.0415,1.653105 -3.89239,3.798864 -6.845122,2.47527 z m 5.554362,-8.284143 c 0,-1.729754 -1.79441,-3.320119 -3.51581,-3.116026 -1.729711,0.205079 -2.73022,1.188094 -3.198974,3.143044 l -0.174464,0.727604 h 3.444628 3.44462 z m 5.02708,2.077539 v -6.614584 h 1.05834 c 0.9525,0 1.05833,0.06615 1.05833,0.661459 0,0.765061 0.30917,0.848602 0.8275,0.223598 0.98219,-1.184338 3.96759,-1.531108 5.44198,-0.632116 1.7024,1.03802 1.79131,1.390427 1.88561,7.47358 l 0.0853,5.502646 h -1.07749 -1.07749 V 92.35066 c 0,-5.746289 -0.0824,-6.042208 -1.82773,-6.565127 -1.31651,-0.394436 -2.6682,0.02764 -3.58757,1.120258 -0.66404,0.789159 -0.67012,0.840642 -0.67012,5.670881 v 4.874491 h -1.05833 -1.05834 z m 44.97917,0 v -6.614584 h 1.05833 c 0.9541,0 1.05834,0.06552 1.05834,0.665213 v 0.665212 l 1.05349,-0.697167 c 1.90443,-1.260295 4.7065,-1.182557 6.0571,0.168042 l 0.78119,0.781184 1.37236,-0.923534 c 2.36257,-1.589892 5.52389,-1.153988 6.73415,0.92855 0.48371,0.832337 0.54683,1.468191 0.62381,6.283855 l 0.0856,5.357812 h -1.07783 -1.07784 v -4.770998 c 0,-5.712504 -0.18311,-6.40189 -1.83158,-6.895784 -1.51403,-0.453615 -3.03985,0.02174 -3.73633,1.164006 -0.46115,0.756304 -0.51563,1.354803 -0.51652,5.67413 l -9.9e-4,4.828646 h -1.05833 -1.05833 v -4.638706 c 0,-5.419662 -0.21111,-6.257353 -1.73768,-6.895194 -1.52021,-0.635186 -3.72178,0.07927 -4.32519,1.403619 -0.17239,0.378347 -0.28713,2.528397 -0.28713,5.380231 v 4.75005 h -1.05834 -1.05833 z m 23.89302,6.097059 c -1.76527,-1.076354 -2.3144,-2.908673 -1.45437,-4.852908 0.7639,-1.726933 2.06465,-2.346895 5.3426,-2.546388 l 2.51354,-0.152972 -0.0319,-1.011767 c -0.0606,-1.920696 -1.00831,-2.825669 -2.9571,-2.823702 -1.15326,0.0012 -2.57993,0.792867 -2.82603,1.568256 -0.13752,0.433312 -0.39435,0.547422 -1.23208,0.547422 -0.97696,0 -1.04384,-0.04577 -0.86991,-0.595313 0.81372,-2.570998 4.80316,-3.910233 7.71313,-2.58926 2.09031,0.948889 2.3886,2.040963 2.5173,9.215993 l 0.0678,3.782461 -1.05833,-0.07829 c -0.86718,-0.06415 -1.0736,-0.185821 -1.14288,-0.673608 -0.10355,-0.729133 -0.0175,-0.732975 -1.4098,0.06296 -1.48847,0.850917 -3.90501,0.919657 -5.17201,0.147121 z m 4.58078,-1.576321 c 1.48039,-0.672272 1.95329,-1.428691 1.95329,-3.124401 V 90.83658 l -1.78594,0.01493 c -3.30349,0.02762 -4.89463,1.14121 -4.41352,3.088878 0.4248,1.719733 2.24318,2.326517 4.24617,1.416926 z m 8.68236,-1.195162 c 1.24672,-1.808953 2.26676,-3.360275 2.26676,-3.447381 0,-0.08711 -0.96187,-1.59409 -2.13749,-3.348854 -1.17562,-1.754764 -2.09835,-3.218559 -2.05052,-3.252877 0.56877,-0.408089 2.57111,0.252863 3.00538,0.992043 0.27036,0.460185 0.92615,1.526017 1.45731,2.368514 l 0.96575,1.531814 1.4303,-2.387286 c 1.07909,-1.801081 1.56837,-2.388372 1.99255,-2.391709 0.30923,-0.0024 0.94817,-0.08161 1.41986,-0.175948 l 0.85762,-0.171523 -2.31004,3.362351 -2.31004,3.36235 2.0808,3.089939 c 1.14445,1.699466 2.17602,3.240157 2.2924,3.423757 0.15973,0.252015 -0.0996,0.332136 -1.05834,0.326956 l -1.26992,-0.0069 -1.24062,-2.04366 c -2.07674,-3.420956 -1.7369,-3.374875 -3.52878,-0.478491 l -1.56885,2.535873 h -1.28044 -1.28045 z M 202.8992,90.83658 v -6.614584 h 1.05833 1.05834 v 6.614584 6.614583 h -1.05834 -1.05833 z m 6.08542,0 v -6.614584 h 0.92604 c 0.6299,0 0.92604,0.121923 0.92604,0.38126 0,0.682575 0.5156,0.722764 1.37961,0.107536 1.79628,-1.279065 5.13837,-0.896064 6.19031,0.709406 l 0.43115,0.658023 1.01076,-0.913162 c 2.15253,-1.944679 5.9315,-1.520259 7.12775,0.800524 0.3051,0.591895 0.41567,2.009008 0.47816,6.127768 l 0.0813,5.357812 h -1.07346 -1.07347 v -4.877567 c 0,-2.682662 -0.1183,-5.188734 -0.2629,-5.569048 -0.50029,-1.315853 -3.23649,-1.830456 -4.51174,-0.848531 -1.21679,0.936915 -1.31077,1.400031 -1.31077,6.459226 v 4.83592 h -1.04261 -1.04261 l -0.0819,-5.138724 c -0.0791,-4.96498 -0.10276,-5.160933 -0.69959,-5.795591 -1.11835,-1.189227 -3.38054,-1.128695 -4.71632,0.1262 -0.60764,0.570854 -0.61909,0.676133 -0.61909,5.694861 v 5.113254 h -1.05833 -1.05833 z m 36.24791,0 v -6.614584 h 0.92099 c 0.75912,0 0.94988,0.115042 1.08527,0.654398 l 0.16423,0.654397 0.93091,-0.710026 c 1.84168,-1.40474 5.22126,-1.078404 6.32822,0.611067 l 0.43879,0.669658 0.82047,-0.791227 c 2.03163,-1.959162 5.59541,-1.799976 7.15169,0.31945 0.50559,0.688523 0.55456,1.174675 0.63328,6.283854 l 0.0853,5.537596 h -1.07749 -1.07749 v -5.044477 c 0,-5.556796 -0.0815,-5.907989 -1.51008,-6.50488 -1.38756,-0.579758 -2.78654,-0.259128 -3.77338,0.864808 l -0.80196,0.913379 v 4.885585 4.885585 h -1.04261 -1.04259 l -0.0819,-5.138724 c -0.0791,-4.96498 -0.10274,-5.160933 -0.69959,-5.795591 -1.11834,-1.189227 -3.38053,-1.128695 -4.7163,0.1262 -0.60764,0.570854 -0.6191,0.676133 -0.6191,5.694861 v 5.113254 h -1.05833 -1.05834 z m 22.64077,6.198809 c -0.84608,-0.846093 -0.32946,-1.965476 0.90715,-1.965476 0.83198,0 1.32292,0.441842 1.32292,1.190625 0,1.132012 -1.38996,1.614961 -2.23007,0.774851 z m 6.19882,-6.198809 v -6.614584 h 1.05833 c 0.94906,0 1.05833,0.06748 1.05833,0.653485 v 0.653485 l 0.95266,-0.646488 c 1.92591,-1.30695 4.63452,-1.247198 6.0592,0.133664 l 0.88117,0.854041 1.08738,-0.873849 c 2.20083,-1.768635 5.81036,-1.287543 6.96519,0.928348 0.50178,0.962823 0.57224,1.622637 0.6727,6.30096 l 0.11224,5.225521 h -1.15663 -1.15665 v -5.137321 c 0,-5.034435 -0.0111,-5.150643 -0.62289,-5.802452 -1.39252,-1.483915 -4.18745,-1.001432 -5.13011,0.885606 -0.38671,0.774086 -0.46267,1.67497 -0.46302,5.490105 v 4.564062 h -1.05833 -1.05834 V 92.35066 c 0,-5.73533 -0.0847,-6.0429 -1.80596,-6.558606 -1.31302,-0.393395 -3.00186,0.0521 -3.7361,0.985544 -0.50361,0.641329 -0.54251,1.047952 -0.54251,5.682163 v 4.991402 h -1.05833 -1.05833 z m -70.99653,-9.436806 c -0.39861,-0.39861 -0.16259,-1.664464 0.36277,-1.945626 1.14146,-0.610891 2.38411,0.753234 1.57465,1.728576 -0.33031,0.398007 -1.61279,0.541683 -1.93742,0.21705 z"
         id="path11612" />
    </g>
  </g>
</svg>
