<?xml version="1.0" encoding="utf-8"?>
<!-- Generator: Adobe Illustrator 18.0.0, SVG Export Plug-In . SVG Version: 6.00 Build 0)  -->
<!DOCTYPE svg PUBLIC "-//W3C//DTD SVG 1.1//EN" "http://www.w3.org/Graphics/SVG/1.1/DTD/svg11.dtd" [
	<!ENTITY ns_flows "http://ns.adobe.com/Flows/1.0/">
	<!ENTITY ns_extend "http://ns.adobe.com/Extensibility/1.0/">
	<!ENTITY ns_ai "http://ns.adobe.com/AdobeIllustrator/10.0/">
	<!ENTITY ns_graphs "http://ns.adobe.com/Graphs/1.0/">
]>
<svg version="1.1" id="Layer_1" xmlns:x="&ns_extend;" xmlns:i="&ns_ai;" xmlns:graph="&ns_graphs;"
	 xmlns="http://www.w3.org/2000/svg" xmlns:xlink="http://www.w3.org/1999/xlink" xmlns:a="http://ns.adobe.com/AdobeSVGViewerExtensions/3.0/"
	 x="0px" y="0px" viewBox="0 0 60 60" style="enable-background:new 0 0 60 60;" xml:space="preserve">
<circle style="fill:none;stroke:#000000;stroke-linecap:round;stroke-linejoin:round;stroke-miterlimit:10;" cx="28.4270782" cy="26.266058" r="2.9583333"/>
<circle style="fill:none;stroke:#000000;stroke-linecap:round;stroke-linejoin:round;stroke-miterlimit:10;" cx="35.292572" cy="16.5618496" r="4.5833335"/>
<circle style="fill:none;stroke:#000000;stroke-linecap:round;stroke-linejoin:round;stroke-miterlimit:10;" cx="22.9891205" cy="10.8366604" r="5.4379582"/>
<g>
	<rect x="2.9999962" y="3.0000052" style="fill:none;" width="54" height="54"/>
	<rect x="-0.0000038" y="0.0000053" style="fill:none;" width="60" height="60"/>
</g>
<g>
	<rect x="112.5092773" y="-101.0157089" style="fill:none;" width="54" height="54"/>
	<rect x="109.5092773" y="-104.0157089" style="fill:none;" width="60" height="60"/>
</g>
<g>
	<rect x="219" y="3.0000052" style="fill:none;" width="54" height="54"/>
	<rect x="216" y="0.0000053" style="fill:none;" width="60" height="60"/>
</g>
<g>
	<g>
		<polygon style="fill:none;stroke:#000000;stroke-linecap:round;stroke-linejoin:round;stroke-miterlimit:10;" points="
			52.4296417,32.9915848 51.4147873,34.0093994 37.1261673,34.0093994 36.1113129,32.5489273 23.9355545,32.5489273 
			22.9206982,34.0093994 8.632081,34.0093994 7.6172247,32.9915848 3.0468714,32.9915848 3.0468714,52.2749557 
			7.6172247,52.2749557 8.632081,51.2571411 51.4147873,51.2571411 52.4296417,52.2749557 56.9999962,52.2749557 
			56.9999962,32.9915848 		"/>
		<g>
			<polygon style="fill:none;stroke:#000000;stroke-linecap:round;stroke-linejoin:round;stroke-miterlimit:10;" points="
				38.1499176,35.5299301 35.3014603,36.833683 32.2295952,36.833683 27.8172798,36.833683 24.7454147,36.833683 
				21.8969574,35.5299301 10.1400843,35.5299301 10.1400843,49.7175293 21.9038296,49.7175293 24.7454147,48.4194336 
				27.8172798,48.4194336 32.2295952,48.4194336 35.3014603,48.4194336 38.1430168,49.7175293 49.9067841,49.7175293 
				49.9067841,35.5299301 			"/>
		</g>
		
			<line style="fill:none;stroke:#000000;stroke-linecap:round;stroke-linejoin:round;stroke-miterlimit:10;" x1="25.4357262" y1="34.9619865" x2="34.6111412" y2="34.9619865"/>
	</g>
	<g>
		<path d="M13.4270525,42.8170357c0,0.4368324,0.1569014,0.8954544,0.4671688,1.2486115
			c0.3109121,0.3519936,0.7754917,0.5952492,1.3813906,0.5946846c0.3573494,0,0.7032185-0.0977783,0.9967422-0.2866211
			c0.3006382-0.188446,0.5477295-0.4764442,0.7092533-0.8526459l0.0291653-0.0664139H16.420145l-0.0133266,0.0271492
			c-0.2146034,0.4274216-0.6198883,0.6757584-1.1312065,0.6773605h-0.0127697c-0.2769508,0-0.5904102-0.1007156-0.8357325-0.301506
			c-0.2350941-0.1945763-0.4072723-0.4801102-0.4318266-0.8656807h3.1004639l0.0038795-0.0428963
			c0.0045776-0.0595474,0.0075912-0.1184502,0.0075912-0.1775322c0.0009975-0.4950829-0.1941357-0.9649277-0.5545521-1.313427
			c-0.3340359-0.3206635-0.7903309-0.4964256-1.2828779-0.4964256c-0.5234356,0-0.9847355,0.2072601-1.3147659,0.5431137
			C13.6254234,41.8398056,13.4270525,42.3043365,13.4270525,42.8170357z M15.2756119,41.4571724h0.0014677h0.032239
			c0.331234,0,0.6312361,0.1380424,0.8535995,0.3469467c0.2095051,0.1970711,0.3452148,0.456852,0.3721428,0.7178345h-2.5314922
			C14.0712748,41.9486313,14.5842276,41.4581184,15.2756119,41.4571724z"/>
		<path d="M21.3188992,43.3155289h-0.5877819l-0.0110912,0.0316315c-0.1402874,0.3932915-0.5595093,0.7737656-1.1930771,0.779335
			c-0.7100677-0.0007782-1.2956486-0.5350914-1.2961693-1.3157616c0-0.3798332,0.1547909-0.7372627,0.3720188-0.9477997
			c0.2801437-0.2603378,0.5418262-0.373188,0.93153-0.3740082c0.4653969,0.0005226,0.9840508,0.2564583,1.1925659,0.8126526
			l0.0111256,0.0313683h0.5788918l-0.0178185-0.0617065c-0.2406216-0.8401756-0.9978199-1.3101959-1.7843933-1.3095474
			c-0.5290565,0-0.9916439,0.204155-1.3222847,0.5375481c-0.3296795,0.3336983-0.5266685,0.7953033-0.5266685,1.3114929
			c0,0.4689331,0.1739407,0.9309273,0.496294,1.2760201c0.3228645,0.3456459,0.79603,0.5741425,1.3852787,0.5735779
			c0.8391838,0,1.5242329-0.5405273,1.7517738-1.2827873L21.3188992,43.3155289z"/>
		<path d="M26.4905052,44.4237328h0.7067451v-0.3375893c0.2994347,0.2949028,0.6565628,0.4421883,1.073637,0.4445152
			c0.4420929,0,0.81847-0.1656609,1.1268406-0.4969864c0.3094406-0.3299408,0.4637985-0.7318687,0.4637985-1.2046471
			c0-0.4714775-0.1543579-0.8748703-0.4637985-1.2077026c-0.3083706-0.3327446-0.6841812-0.4994049-1.1248169-0.4994049
			c-0.3837109,0-0.7221127,0.1292839-1.0144253,0.3858681v-1.3442383h-0.385479h-0.3825016V44.4237328z M27.4831371,42.1067009
			c0.1798191-0.1934547,0.402916-0.2897682,0.6688232-0.2897682c0.2667179,0,0.4894714,0.0969582,0.6704998,0.2911034
			c0.1792984,0.1935425,0.2694416,0.4344559,0.2694416,0.7209892c0,0.285244-0.0901432,0.5240479-0.2694416,0.7181473
			c-0.1810284,0.1923332-0.4043388,0.288475-0.6737442,0.288475c-0.2653408,0-0.4871025-0.0961418-0.6655788-0.288475
			c-0.1808529-0.1940994-0.2702179-0.4335938-0.2702179-0.7201691
			C27.2129192,42.539135,27.3022842,42.2997704,27.4831371,42.1067009z"/>
		<path d="M31.6486874,44.5306587c0.3542385,0,0.6529408-0.1305771,0.8936405-0.3910942v0.2841682h0.3572197h0.357338v-3.1943665
			h-0.3840103h-0.3838806v1.6819115c0,0.3066826-0.0548477,0.5372047-0.1670914,0.6914749
			c-0.1107712,0.1534462-0.2779884,0.2304764-0.5020752,0.2304764c-0.2089043,0-0.3688202-0.0761642-0.4775677-0.2294426
			c-0.1093922-0.1529274-0.1639824-0.3753357-0.1639824-0.6677818v-1.7066383h-0.3841877h-0.3829708v1.8789444
			c0,0.4359703,0.1114159,0.7823067,0.3349457,1.0382919C30.9687729,44.4024506,31.2703228,44.5306587,31.6486874,44.5306587z"/>
		<path d="M36.8764305,44.0336723c0.3096161-0.3299408,0.4637985-0.7318687,0.4637985-1.2046471
			c0-0.4714775-0.1541824-0.8748703-0.4637985-1.2077026c-0.3091507-0.3327446-0.6847038-0.4994049-1.1253319-0.4994049
			c-0.3837547,0-0.7221565,0.1292839-1.0143013,0.3858681v-1.3442383h-0.3862572h-0.3815117v4.2601852h0.7051544v-0.3375893
			c0.3010368,0.2949028,0.6587296,0.4421883,1.0748482,0.4445152
			C36.1914711,44.5306587,36.5672798,44.3649979,36.8764305,44.0336723z M34.9614067,43.5471725
			c-0.1799889-0.1940994-0.2701759-0.4335938-0.2701759-0.7201691c0-0.2878685,0.0901871-0.5272331,0.2701759-0.7203026
			c0.1799088-0.1934547,0.4028702-0.2897682,0.669342-0.2897682c0.2660751,0,0.4897842,0.0969582,0.6690369,0.2911034
			c0.1805496,0.1935425,0.2701721,0.4344559,0.2701721,0.7209892c0,0.285244-0.0896225,0.5240479-0.2701721,0.7181473
			c-0.1792526,0.1923332-0.4029617,0.288475-0.6725349,0.288475C35.361866,43.8356476,35.138813,43.7395058,34.9614067,43.5471725z"
			/>
		<path d="M38.7013893,40.1635475h-0.3856125h-0.382412v4.2601852h0.7056236v-0.3375893
			c0.3005142,0.2949028,0.658638,0.4421883,1.0746689,0.4445152c0.4423141,0,0.8177795-0.1656609,1.1272316-0.4969864
			c0.3100929-0.3299408,0.4648323-0.7318687,0.4648323-1.2046471c0-0.4714775-0.1547394-0.8748703-0.4648323-1.2077026
			c-0.3094521-0.3327446-0.6841393-0.4994049-1.1251183-0.4994049c-0.3843575,0-0.7224998,0.1292839-1.0143814,0.3858681V40.1635475
			z M38.9258652,42.1067009c0.1804619-0.1934547,0.4034348-0.2897682,0.669857-0.2897682
			c0.2660828,0,0.4887886,0.0969582,0.6684303,0.2911034c0.1809883,0.1935425,0.270565,0.4344559,0.270565,0.7209892
			c0,0.285244-0.0895767,0.5240479-0.270565,0.7181473c-0.1796417,0.1923332-0.4040794,0.288475-0.671711,0.288475
			c-0.2667274,0-0.4880142-0.0961418-0.6665764-0.288475c-0.1804199-0.1940994-0.2698746-0.4335938-0.2698746-0.7201691
			C38.6559906,42.539135,38.7454453,42.2997704,38.9258652,42.1067009z"/>
		<polygon points="42.6728821,44.4237328 42.6728821,40.1635475 42.2882614,40.1635475 41.9048119,40.1635475 
			41.9048119,44.4237328 42.2899055,44.4237328 		"/>
		<path d="M44.9489136,41.1219177c-0.4620399,0-0.8551559,0.1666603-1.1806526,0.4994049
			c-0.3245888,0.3328323-0.4873581,0.7362251-0.4873581,1.2077026c0,0.4727783,0.1627693,0.8747063,0.4873581,1.2046471
			c0.3254967,0.3313255,0.7186127,0.4969864,1.1806526,0.4969864c0.3726654,0,0.702343-0.1005936,0.9871521-0.3025398
			c0.284935-0.2019577,0.4788666-0.47192,0.5820808-0.8109665h-0.8097115
			c-0.0633049,0.125618-0.1626396,0.2259445-0.2968025,0.3006477c-0.1339417,0.0750847-0.2811317,0.1119385-0.4432144,0.1119385
			c-0.2602158,0-0.4783897-0.094944-0.6522064-0.2862358c-0.1014557-0.1128006-0.1736412-0.2376862-0.217186-0.3765869h2.4922714
			c0.0190697-0.1110802,0.0285187-0.223362,0.0285187-0.3378906c0-0.4714775-0.1628609-0.8748703-0.4881363-1.2077026
			C45.8062592,41.288578,45.4120216,41.1219177,44.9489136,41.1219177z M44.0761986,42.5538864
			c0.0438004-0.1664734,0.1208267-0.3142319,0.2316437-0.4411049c0.1721725-0.1937103,0.38591-0.2900658,0.6410713-0.2900658
			c0.2544708,0,0.468586,0.0963554,0.6411591,0.2900658c0.1146088,0.125576,0.190815,0.2720413,0.2280998,0.4411049H44.0761986z"/>
		<path d="M23.7163162,40.9616928c-1.0208511,0-1.8490334,0.8278809-1.8490334,1.849041
			c0,1.0210724,0.8281822,1.8495979,1.8490334,1.8495979c1.0218048,0,1.8502064-0.8285255,1.8502064-1.8495979
			C25.5665226,41.7895737,24.738121,40.9616928,23.7163162,40.9616928z M23.7163162,44.1311531
			c-0.7283268,0-1.3197308-0.5914917-1.3197308-1.3204193c0-0.728157,0.591404-1.3195648,1.3197308-1.3195648
			c0.7301807,0,1.320507,0.5914078,1.320507,1.3195648C25.0368233,43.5396614,24.446497,44.1311531,23.7163162,44.1311531z"/>
	</g>
</g>
<g>
	<rect x="112.5" y="3.0000052" style="fill:none;" width="54" height="54"/>
	<rect x="109.5" y="0.0000053" style="fill:none;" width="60" height="60"/>
</g>
<g>
	<g>
		<g>
			<g>
				<g>
					<path d="M125.40522-94.6370239h8.7733994v16.7735901c0,0-0.3334961,9.9723206,6.7774963,9.9723206
						c-4.5274658,0-15.5464401,1.0028-15.5464401-13.0825195C125.4096756-91.3121719,125.40522-94.6370239,125.40522-94.6370239"/>
					<path d="M153.6137085-81.2959976l-0.0326691-0.0260086c-0.0638885-7.3836212-6.0636292-13.3573456-13.4613647-13.3573456
						c-0.1596985,0-2.6258698,0.0423279-2.6258698,0.0423279v8.7868195c0,0,1.1439362,0,3.0693359,0
						c2.5411835,0,4.6010132,2.0694885,4.6010132,4.6121292c0,2.5456543-2.0598297,4.5869217-4.6010132,4.5869217
						c-0.5333405,0-2.6763763,0.0096588-4.7458649,0.0096588c0.16716,2.4564667,1.0458832,7.7817383,5.514679,8.6463623
						c0.6053925,0.1040192,1.0822754,0.0579681,1.235321,0.0193253c6.2723694-1.1439362,11.0137634-6.6437378,11.0137634-13.235527
						v-0.0452957C153.6033325-81.2848511,153.6137085-81.2959976,153.6137085-81.2959976"/>
				</g>
			</g>
		</g>
	</g>
	<text transform="matrix(1 0 0 1 112.4250183 -55.4351616)" style="font-family:'SamsungOne-700'; font-size:7.016047;">10 лет гарантии</text>
</g>
<g>
	<path d="M258.5558472,54.0472679h-27.8336334c-1.3920746,0-2.5190582-1.1282234-2.5190582-2.5193863v-0.3597565
		c0-1.3917503,1.1269836-2.5186691,2.5190582-2.5186691h27.8336334c1.3914795,0,2.5199585,1.1269188,2.5199585,2.5186691v0.3597565
		C261.0758057,52.9190445,259.9473267,54.0472679,258.5558472,54.0472679"/>
	<path d="M255.6424103,51.7672806h-2.1590576V17.3066921c0-1.3809271-1.1256104-2.5059576-2.5062866-2.5059576h-0.5134888
		c-1.3815765,0-2.5066071,1.1250305-2.5066071,2.5059576V40.009613c0,3.1083107-1.6102142,4.5223579-3.1051178,4.5223579
		c-0.8942261,0-1.7330475-0.489563-2.3048248-1.3427238c-0.5373383-0.8060875-0.8212738-1.9049759-0.8212738-3.1796341V17.3066921
		c0-1.3809271-1.1250305-2.5059576-2.5073242-2.5059576h-0.5125122c-1.3822327,0-2.5066071,1.1250305-2.5066071,2.5059576
		v34.4605865h-2.1589813V17.3066921c0-2.5721979,2.0927429-4.6649399,4.6655884-4.6649399h0.5125122
		c2.5728455,0,4.6663055,2.092742,4.6663055,4.6649399V40.009613c0,1.6706619,0.6303253,2.3627205,0.9671173,2.3627205
		c0.3291779,0,0.9460754-0.6920586,0.9460754-2.3627205V17.3066921c0-2.5721979,2.092804-4.6649399,4.6656494-4.6649399h0.5134888
		c2.572525,0,4.6653442,2.092742,4.6653442,4.6649399V51.7672806z"/>
	<path d="M232.7166443,50.6250381h24.3939209V16.5783825c0-3.2566967-2.6504974-5.905304-5.9062195-5.905304h-0.1266785
		c-2.8609467,0-5.3045197,2.0418892-5.8094635,4.8547268c-0.0318146,0.1719236-0.18013,0.2967091-0.354599,0.2967091
		c-0.1751251,0-0.3237762-0.1247854-0.3536987-0.2967091c-0.5058594-2.8128376-2.9500732-4.8547268-5.8106995-4.8547268h-0.1273346
		c-3.2566223,0-5.9052277,2.6486073-5.9052277,5.905304V50.6250381z M257.4709167,51.3445473h-25.114624
		c-0.1980591,0-0.3597565-0.1617508-0.3597565-0.3597527V16.5783825c0-3.6526995,2.972702-6.6253996,6.6253357-6.6253996h0.1273346
		c2.7664185,0,5.185791,1.7025414,6.1643982,4.1944818c0.9772949-2.4919405,3.3973236-4.1944818,6.1640625-4.1944818h0.1266785
		c3.6530304,0,6.6256714,2.9727001,6.6256714,6.6253996v34.4064102
		C257.8300171,51.1827965,257.6689758,51.3445473,257.4709167,51.3445473"/>
	<rect x="238.1602936" y="17.2748775" width="0.7200954" height="29.2142925"/>
	<rect x="250.1579437" y="17.2748775" width="0.7188566" height="29.2142925"/>
	<path d="M227.5973816,27.4869576c-1.3644257,0-2.2589264-0.818737-2.309906-2.893095v-0.1858749
		c0,0.0318165-0.0018921,0.0610905-0.0031281,0.0942097c0-0.0331192-0.0013123-0.0623932-0.0013123-0.0942097v0.1858749
		c-0.0515747,2.074358-0.9461365,2.893095-2.311142,2.893095c1.8673553,0,2.2646637,1.8769436,2.311142,3.336237v0.3126163
		c0-0.0700207,0.0013123-0.1419983,0.0013123-0.2139091c0.002533,0.0719109,0.0031281,0.1438885,0.0031281,0.2139091v-0.3126163
		C225.3327179,29.3639011,225.7306061,27.4869576,227.5973816,27.4869576"/>
	<path d="M229.9181213,17.3029099c-1.779541,0-2.9446716-1.0677223-3.0099335-3.7697916v-0.243248
		c0,0.0426388-0.0035248,0.0808439-0.0035248,0.1215916c-0.001236-0.0407476-0.0037689-0.0789528-0.0037689-0.1215916v0.243248
		c-0.0662384,2.7020693-1.2320251,3.7697916-3.0102539,3.7697916c2.4330597,0,2.9506531,2.4455223,3.0102539,4.3485432v0.4062386
		c0-0.0923176,0.0018768-0.1846371,0.0037689-0.2782593c0.0013123,0.0936222,0.0035248,0.1859417,0.0035248,0.2782593V21.651453
		C226.9670563,19.7484322,227.484726,17.3029099,229.9181213,17.3029099"/>
	<path d="M269.0281372,26.0293331c-2.5081787,0-4.1524353-2.5958004-4.244751-6.406992v-0.3418903
		c0,0.0585461-0.004425,0.1120739-0.0057373,0.17062c0-0.0585461-0.0037842-0.1120739-0.0037842-0.17062v0.3418903
		c-0.09552,3.8111916-1.7381897,6.406992-4.247345,6.406992c3.4310913,0,4.1620178,3.7869377,4.247345,6.4725132v0.5730095
		c0-0.1286316,0.0005798-0.2597427,0.0037842-0.3915672c0.0018921,0.1318245,0.0057373,0.2629356,0.0057373,0.3915672v-0.5730095
		C264.8667603,29.8162708,265.5964355,26.0293331,269.0281372,26.0293331"/>
</g>
<g>
	<rect x="2.8764877" y="-101.0157089" style="fill:none;" width="54" height="54"/>
	<rect x="-0.1235123" y="-104.0157089" style="fill:none;" width="60" height="60"/>
</g>
<g>
	<g>
		<g>
			<g>
				<g>
					<path d="M15.9621105-97.6377792h8.6552963v16.5477982c0,0-0.3290062,9.838089,6.6862679,9.838089
						c-4.4665203,0-15.3371744,0.989296-15.3371744-12.9064178C15.9665003-94.3576813,15.9621105-97.6377792,15.9621105-97.6377792"
						/>
					<path d="M43.7908897-84.4763336l-0.0322266-0.0256653c-0.0630341-7.2842331-5.9820137-13.1775436-13.2801628-13.1775436
						c-0.1575565,0-2.5905247,0.0417633-2.5905247,0.0417633v8.668541c0,0,1.1285362,0,3.0280113,0
						c2.5069828,0,4.5390835,2.041626,4.5390835,4.5500488c0,2.5113831-2.0321007,4.5251694-4.5390835,4.5251694
						c-0.5261574,0-2.6403503,0.0095291-4.6819801,0.0095291c0.1649113,2.4234009,1.0318089,7.6769943,5.440443,8.5299835
						c0.5972481,0.1026154,1.0677147,0.0571823,1.2186966,0.0190582c6.1879349-1.1285324,10.8655167-6.554306,10.8655167-13.0573654
						V-84.4375C43.7806473-84.4653397,43.7908897-84.4763336,43.7908897-84.4763336"/>
				</g>
			</g>
		</g>
	</g>
	<text transform="matrix(1 0 0 1 3.1568499 -60.9359703)" style="font-family:'SamsungOne-700'; font-size:6.9216056;">10 лет гарантии</text>
	<rect x="3.5044384" y="-58.4891815" width="52.7441521" height="0.3052474"/>
	<g>
		<text transform="matrix(1 0 0 1 2.9810321 -50.4193687)" style="font-family:'SamsungOne-700'; font-size:6.9216056;">digital inverter</text>
	</g>
</g>
<g>
	<path style="fill:none;stroke:#000000;stroke-linecap:round;stroke-linejoin:round;stroke-miterlimit:10;" d="
		M158.2730408,35.5729675c0-0.5280762-0.0342407-1.0490112-0.0910645-1.564209l-0.0813599-0.5271606l-0.664978-4.3099365
		l-1.7041016-11.0446777c-0.1352539-0.6630249-0.6433105-2.6881714-2.0136719-4.2463379
		c-3.4245605-3.4927979-8.4943237-5.7036133-14.2074585-5.7036133c-5.7512817,0-10.802002,2.1841431-14.2132568,5.6997681
		c-1.6550903,1.8790894-2.0543213,4.4454346-2.0584106,4.4719238l-1.6643066,10.786499l-0.6241455,4.045105l-0.0021973,0.0327148
		c0.1915283-1.1005249,0.4959106-2.1690674,0.9237061-3.1884155c1.3371582-3.1861572,3.7904053-5.9041138,6.9457397-7.8060913
		c3.0223389-1.8218994,6.6884766-2.8955688,10.6512451-2.8955688c3.9902344,0,7.6815796,1.0865479,10.7158203,2.9315796
		c3.1087036,1.8903198,5.5275879,4.5770264,6.8602905,7.7208252c0.4736938,1.1174316,0.8123779,2.2890015,0.9932251,3.5062256
		l0.0813599,0.5271606c0.0568237,0.5151978,0.0910645,1.0361328,0.0910645,1.564209
		c0,4.4968872-2.1077271,8.5662842-5.512085,11.5084229c0.0001831,0.0001221,0.0003052,0.0001831,0.0004883,0.0003052
		c-0.0001831-0.0001221-0.0003052-0.0001831-0.0004883-0.0003052c-1.5635376,1.3512573-3.4089966,2.4512939-5.4415894,3.258667
		c0.0080566,0.0054932,0.0145264,0.0111694,0.022583,0.0166626
		C153.7593689,47.7989807,158.2730408,42.1487732,158.2730408,35.5729675z"/>
	<path style="fill:none;" d="M139.5000305,51.8216248c0.0105591,0,0.0206909,0.0013428,0.03125,0.0013428
		c2.7666016,0,5.3843994-0.5332031,7.7481689-1.4662476c-0.0080566-0.0054932-0.0145264-0.0111694-0.022583-0.0166626
		C144.8916321,51.2795715,142.2707214,51.8176575,139.5000305,51.8216248z"/>
	<path style="fill:none;stroke:#000000;stroke-linecap:round;stroke-linejoin:round;stroke-miterlimit:10;" d="
		M131.3398132,29.0054626c-0.0668335,0.3139648-0.8757324,3.4562378-6.5753174,3.9708252c0,0-2.1696167,0.2114868-3.890564,1.208374
		c-0.0490723,0.4578247-0.0844727,0.9190063-0.0844727,1.3883057c0,2.475647,0.6572266,4.8128052,1.7992554,6.9127808
		c1.5758057-5.3141479,6.6341553-6.5896606,6.6341553-6.5896606c4.541626-1.416687,4.8839111-4.8303833,4.8839111-4.8303833
		s-0.3422852,3.4136963-4.8839111,4.8303833c0,0-5.0583496,1.2755127-6.6341553,6.5896606
		c1.7128296,3.1497192,4.5410767,5.7523193,8.0637817,7.3987427c-2.6262817-6.5402832-0.12677-9.4529419,2.2369995-10.9467773
		c5.538269-3.5,4.1831055-6.8292236,4.1831055-6.8292236s1.3551636,3.3292236-4.1831055,6.8292236
		c-2.3637695,1.4938354-4.8632813,4.4064941-2.2369995,10.9467773c2.6248779,1.2268066,5.625,1.9260864,8.8134155,1.9356079
		c-4.3260498-3.9683838-3.9547729-9.2996216-2.034729-11.1323853c4.5827026-4.3743896,3.1480103-8.3804932,3.147644-8.3815918
		c-0.3548584,0.0314331-0.7145996,0.0482788-1.0787964,0.0482788
		C136.2294617,32.3544006,133.3058777,31.0522156,131.3398132,29.0054626z M124.7882996,36.1228333
		c-0.4555664,0-0.8249512-0.3693237-0.8249512-0.8249512s0.3693848-0.8249512,0.8249512-0.8249512
		c0.4556274,0,0.8250122,0.3693237,0.8250122,0.8249512S125.243927,36.1228333,124.7882996,36.1228333z M129.3056946,34.2291565
		c-0.2896118,0-0.5244141-0.2348022-0.5244141-0.5244141c0-0.2896729,0.2348022-0.5244751,0.5244141-0.5244751
		c0.2896729,0,0.5244751,0.2348022,0.5244751,0.5244751C129.8301697,33.9943542,129.5953674,34.2291565,129.3056946,34.2291565z
		 M127.7524109,40.7226868c-0.4556274,0-0.8249512-0.3693237-0.8249512-0.8249512s0.3693237-0.8249512,0.8249512-0.8249512
		s0.8249512,0.3693237,0.8249512,0.8249512S128.2080383,40.7226868,127.7524109,40.7226868z M132.6036682,36.9066467
		c-0.2896729,0-0.5244751-0.2348022-0.5244751-0.5244141c0-0.2896729,0.2348022-0.5244751,0.5244751-0.5244751
		s0.5244751,0.2348022,0.5244751,0.5244751C133.1281433,36.6718445,132.8933411,36.9066467,132.6036682,36.9066467z
		 M132.8199158,44.4794006c-0.4556274,0-0.8249512-0.3693848-0.8249512-0.8249512
		c0-0.4556274,0.3693237-0.8249512,0.8249512-0.8249512s0.8249512,0.3693237,0.8249512,0.8249512
		C133.6448669,44.1100159,133.2755432,44.4794006,132.8199158,44.4794006z M137.2189026,38.3763733
		c-0.2896729,0-0.5244751-0.2348022-0.5244751-0.5244751c0-0.2896118,0.2348022-0.5244141,0.5244751-0.5244141
		s0.5244751,0.2348022,0.5244751,0.5244141C137.7433777,38.141571,137.5085754,38.3763733,137.2189026,38.3763733z"/>
	
		<path style="fill:none;stroke:#000000;stroke-width:1.0168729;stroke-linecap:round;stroke-linejoin:round;stroke-miterlimit:10;" d="
		M120.901947,33.8997498l0.0461426-0.6867065c-0.0582275,0.3349609-0.1159668,0.6699219-0.1497192,1.0114136
		c0.0245361-0.0146484,0.0508423-0.0255127,0.0755615-0.0397949
		C120.8840637,34.0898743,120.8903503,33.9941711,120.901947,33.8997498z"/>
	<path style="fill:none;stroke:#000000;stroke-linecap:round;stroke-linejoin:round;stroke-miterlimit:10;" d="
		M143.6852112,31.6023254c0.006958,0.0061035,2.6580811,2.3432617-0.8373413,9.4173584c0,0-1.7547607,5.0891113,4.4089966,9.3203735
		c2.0325928-0.807373,3.8780518-1.9074097,5.4415894-3.258667c-5.4606934-3.491394-4.4443359-7.7269897-4.4443359-7.7269897
		c1.4375-7.84375-1.625-9.125-1.625-9.125s3.0625,1.28125,1.625,9.125c0,0-1.0163574,4.2355957,4.4443359,7.7269897
		c3.4043579-2.9421387,5.512085-7.0115356,5.512085-11.5084229c0-0.5280762-0.0342407-1.0490112-0.0910645-1.564209
		l-0.0813599-0.5271606c-0.1808472-1.2172241-0.5195313-2.3887939-0.9932251-3.5062256
		c-1.3327026-3.1437988-3.7515869-5.8305054-6.8602905-7.7208252c0.0140991,0.1993408,0.0341797,0.3973389,0.0341797,0.5998535
		C150.2187805,26.7848816,147.5252991,30.1573792,143.6852112,31.6023254z M145.8354187,44.4794006
		c-0.4556274,0-0.8250122-0.3693848-0.8250122-0.8249512c0-0.4556274,0.3693848-0.8249512,0.8250122-0.8249512
		c0.4555664,0,0.8249512,0.3693237,0.8249512,0.8249512C146.6603699,44.1100159,146.2909851,44.4794006,145.8354187,44.4794006z
		 M146.8843079,36.9066467c0,0.2896729-0.2348022,0.5244751-0.5244751,0.5244751
		c-0.2896118,0-0.5244141-0.2348022-0.5244141-0.5244751c0-0.2896118,0.2348022-0.5244141,0.5244141-0.5244141
		C146.6495056,36.3822327,146.8843079,36.6170349,146.8843079,36.9066467z M150.2187805,34.5144348
		c-0.2896729,0-0.5244751-0.2348022-0.5244751-0.5244141c0-0.2896729,0.2348022-0.5244751,0.5244751-0.5244751
		c0.2896118,0,0.5244141,0.2348022,0.5244141,0.5244751C150.7431946,34.2796326,150.5083923,34.5144348,150.2187805,34.5144348z
		 M151.52005,41.087677c-0.4555664,0-0.8249512-0.3693848-0.8249512-0.8250122c0-0.4555664,0.3693848-0.8249512,0.8249512-0.8249512
		c0.4556274,0,0.8249512,0.3693848,0.8249512,0.8249512C152.3450012,40.7182922,151.9756775,41.087677,151.52005,41.087677z
		 M152.7541199,35.1356506c0.031311,1.878418-0.21875,3.3125,3.96875,6.375
		C152.5353699,38.4481506,152.7854309,37.0140686,152.7541199,35.1356506c-0.09375-5.625-3.84375-7.09375-3.84375-7.09375
		S152.6603699,29.5106506,152.7541199,35.1356506z"/>
	
		<path style="fill:none;stroke:#000000;stroke-width:1.0168729;stroke-linecap:round;stroke-linejoin:round;stroke-miterlimit:10;" d="
		M120.7894592,35.5729675c0-0.4692993,0.0354004-0.930481,0.0844727-1.3883057
		c-0.0247192,0.0142822-0.0510254,0.0251465-0.0755615,0.0397949c-0.0440063,0.4447021-0.0714111,0.8936157-0.0714111,1.3485107
		c0,2.5031738,0.6719971,4.8646851,1.8380127,6.9824829c0.007019-0.024292,0.0166016-0.0455322,0.0237427-0.0697021
		C121.4466858,40.3857727,120.7894592,38.0486145,120.7894592,35.5729675z"/>
	<path style="fill:none;stroke:#000000;stroke-linecap:round;stroke-linejoin:round;stroke-miterlimit:10;" d="
		M120.8739319,34.1846619c1.7209473-0.9968872,3.890564-1.208374,3.890564-1.208374
		c5.699585-0.5145874,6.5084839-3.6568604,6.5753174-3.9708252c-1.5925293-1.6578979-2.5585327-3.8030396-2.5585327-6.151062
		c0-0.2146606,0.0204468-0.4247437,0.0362549-0.6358643c-3.1553345,1.9019775-5.6085815,4.6199341-6.9457397,7.8060913
		c-0.4277954,1.0193481-0.7321777,2.0878906-0.9237061,3.1884155l-0.0461426,0.6867065
		C120.8903503,33.9941711,120.8840637,34.0898743,120.8739319,34.1846619z"/>
	
		<path style="fill:none;stroke:#000000;stroke-width:1.0168729;stroke-linecap:round;stroke-linejoin:round;stroke-miterlimit:10;" d="
		M139.4687805,51.8229675c0.0105591,0,0.0206909-0.0013428,0.03125-0.0013428
		c-0.0114746-0.000061-0.022644-0.0015259-0.0341187-0.0015259
		C139.4669495,51.8210144,139.4677429,51.822052,139.4687805,51.8229675z"/>
	<path style="fill:none;stroke:#000000;stroke-linecap:round;stroke-linejoin:round;stroke-miterlimit:10;" d="
		M142.8478699,41.0196838c3.4954224-7.0740967,0.8442993-9.4112549,0.8373413-9.4173584
		c-0.97052,0.3652344-2.0142822,0.6070557-3.1063843,0.7037964c0.0003662,0.0010986,1.4350586,4.0072021-3.147644,8.3815918
		c-1.9200439,1.8327637-2.2913208,7.1640015,2.034729,11.1323853c0.0114746,0,0.022644,0.0014648,0.0341187,0.0015259
		c2.7706909-0.0039673,5.3916016-0.5420532,7.7568359-1.4815674
		C141.0931091,46.1087952,142.8478699,41.0196838,142.8478699,41.0196838z M139.4687195,45.6812439
		c-0.4556274,0-0.8249512-0.3693237-0.8249512-0.8249512s0.3693237-0.8249512,0.8249512-0.8249512
		s0.8249512,0.3693237,0.8249512,0.8249512S139.9243469,45.6812439,139.4687195,45.6812439z M141.6332092,38.3763733
		c-0.2896118,0-0.5244141-0.2348022-0.5244141-0.5244751c0-0.2896118,0.2348022-0.5244141,0.5244141-0.5244141
		c0.2896729,0,0.5244751,0.2348022,0.5244751,0.5244141C142.1576843,38.141571,141.9228821,38.3763733,141.6332092,38.3763733z"/>
	<path style="fill:none;stroke:#000000;stroke-linecap:round;stroke-linejoin:round;stroke-miterlimit:10;" d="
		M122.5887146,42.4857483c-0.0071411,0.0241699-0.0167236,0.0454102-0.0237427,0.0697021
		c1.7285767,3.1395874,4.5691528,5.727417,8.098877,7.3599243c-0.0042725-0.0106201-0.0070801-0.0202637-0.0113525-0.0308838
		C127.1297913,48.2380676,124.3015442,45.6354675,122.5887146,42.4857483z"/>
	<path style="fill:none;stroke:#000000;stroke-linecap:round;stroke-linejoin:round;stroke-miterlimit:10;" d="
		M130.6524963,49.884491c0.0042725,0.0106201,0.0070801,0.0202637,0.0113525,0.0308838
		c2.6258545,1.2144775,5.6210327,1.9075928,8.8049316,1.9075928c-0.0010376-0.0009155-0.0018311-0.0019531-0.0028687-0.0028687
		C136.2774963,51.8105774,133.2773743,51.1112976,130.6524963,49.884491z"/>
	<path style="fill:none;stroke:#000000;stroke-linecap:round;stroke-linejoin:round;stroke-miterlimit:10;" d="
		M131.3398132,29.0054626c0.00354-0.0165405,0.0064087-0.03125,0.0064087-0.03125S131.3433533,28.9889221,131.3398132,29.0054626
		c1.9660645,2.0467529,4.8896484,3.348938,8.1602173,3.348938c0.3641968,0,0.723938-0.0168457,1.0787964-0.0482788
		l-0.000061-0.0001221l0.000061,0.0001221c1.0921021-0.0967407,2.1358643-0.338562,3.1063843-0.7037964l-0.0006104-0.0006104
		l0.0006104,0.0006104c3.8400879-1.4449463,6.5335693-4.8174438,6.5335693-8.7479248
		c0-0.2025146-0.0200806-0.4005127-0.0341797-0.5998535c-3.0342407-1.8450317-6.7255859-2.9315796-10.7158203-2.9315796
		c-3.9627686,0-7.6289063,1.0736694-10.6512451,2.8955688c-0.0158081,0.2111206-0.0362549,0.4212036-0.0362549,0.6358643
		C128.7812805,25.2024231,129.7472839,27.3475647,131.3398132,29.0054626z"/>
	
		<circle style="fill:none;stroke:#000000;stroke-linecap:round;stroke-linejoin:round;stroke-miterlimit:10;" cx="129.3056946" cy="33.7047157" r="0.5244446"/>
	
		<circle style="fill:none;stroke:#000000;stroke-linecap:round;stroke-linejoin:round;stroke-miterlimit:10;" cx="132.6036682" cy="36.382206" r="0.5244446"/>
	
		<circle style="fill:none;stroke:#000000;stroke-linecap:round;stroke-linejoin:round;stroke-miterlimit:10;" cx="137.2189026" cy="37.8519325" r="0.5244446"/>
	
		<circle style="fill:none;stroke:#000000;stroke-linecap:round;stroke-linejoin:round;stroke-miterlimit:10;" cx="141.6332092" cy="37.8519325" r="0.5244446"/>
	
		<circle style="fill:none;stroke:#000000;stroke-linecap:round;stroke-linejoin:round;stroke-miterlimit:10;" cx="146.3598633" cy="36.9066505" r="0.5244446"/>
	
		<circle style="fill:none;stroke:#000000;stroke-linecap:round;stroke-linejoin:round;stroke-miterlimit:10;" cx="150.2187805" cy="33.989994" r="0.5244446"/>
	
		<circle style="stroke:#000000;stroke-linecap:round;stroke-linejoin:round;stroke-miterlimit:10;" cx="151.52005" cy="40.2626991" r="0.8249817"/>
	
		<circle style="stroke:#000000;stroke-linecap:round;stroke-linejoin:round;stroke-miterlimit:10;" cx="145.8354187" cy="43.6544533" r="0.8249512"/>
	
		<circle style="stroke:#000000;stroke-linecap:round;stroke-linejoin:round;stroke-miterlimit:10;" cx="139.4687195" cy="44.8562965" r="0.8249512"/>
	
		<circle style="stroke:#000000;stroke-linecap:round;stroke-linejoin:round;stroke-miterlimit:10;" cx="132.8199158" cy="43.6544533" r="0.8249512"/>
	
		<circle style="stroke:#000000;stroke-linecap:round;stroke-linejoin:round;stroke-miterlimit:10;" cx="127.7524109" cy="39.8977394" r="0.8249512"/>
	
		<circle style="stroke:#000000;stroke-linecap:round;stroke-linejoin:round;stroke-miterlimit:10;" cx="124.7882996" cy="35.2978859" r="0.8249512"/>
</g>
</svg>
