<?xml version="1.0" encoding="utf-8"?>
<!-- Generator: Adobe Illustrator 18.1.1, SVG Export Plug-In . SVG Version: 6.00 Build 0)  -->
<svg version="1.1" id="Layer_1" xmlns="http://www.w3.org/2000/svg" xmlns:xlink="http://www.w3.org/1999/xlink" x="0px" y="0px"
	 viewBox="0 0 60 60" enable-background="new 0 0 60 60" xml:space="preserve">
<g>
	<defs>
		<rect id="SVGID_1_" y="0" width="60" height="60"/>
	</defs>
	<clipPath id="SVGID_2_">
		<use xlink:href="#SVGID_1_"  overflow="visible"/>
	</clipPath>
	<path clip-path="url(#SVGID_2_)" fill="#020202" d="M25.8,50.7L25.8,50.7c-2.3,0-4.5-0.7-6.4-2.1c-4.3-3.2-5.6-9.2-2.9-13.9
		c0.2-0.4,0.7-0.5,1.1-0.3c0.3,0.2,0.5,0.7,0.2,1.1c-2.2,4-1.1,9.1,2.6,11.9c3.2,2.4,7.8,2.4,11.1-0.1c0.2-0.2,0.5-0.2,0.8-0.1
		c4.2,2,9.3,0.8,12.1-3c2.9-3.7,2.7-8.8-0.3-12.4c-0.3-0.3-0.2-0.8,0.1-1.1c0.5-0.4,0.8-0.8,1.1-1.2c1.5-2,2.1-4.4,1.7-6.9
		c-0.3-2.4-1.6-4.6-3.5-6.1c-2.7-2-6.3-2.4-9.3-1c-0.4,0.2-0.8,0-1-0.4c-0.2-0.4-0.1-0.8,0.4-1.1c3.5-1.6,7.7-1.1,10.9,1.2
		c2.3,1.7,3.8,4.2,4.1,7.1c0.5,2.9-0.3,5.7-2,8c-0.2,0.3-0.5,0.6-0.8,1c3,4.1,3,9.6-0.1,13.6c-3.1,4.2-8.7,5.7-13.6,3.7
		C30.1,50.1,27.9,50.7,25.8,50.7z"/>
	<path clip-path="url(#SVGID_2_)" fill="#020202" d="M26.7,26.7L26.7,26.7c-0.2,0-0.4-0.1-0.5-0.3L14.9,13.5
		c-0.3-0.3-0.2-0.8,0.1-1.1c0.3-0.3,0.8-0.2,1.1,0.1l11.3,12.9c0.3,0.3,0.2,0.8-0.1,1.1C27.1,26.6,26.9,26.7,26.7,26.7z"/>
	<path clip-path="url(#SVGID_2_)" fill="#020202" d="M21,31.2L21,31.2c-0.2,0-0.5-0.1-0.7-0.3l-8.4-13c-0.2-0.4-0.2-0.8,0.2-1.1
		c0.4-0.2,0.8-0.2,1.1,0.2l8.4,13c0.2,0.3,0.2,0.8-0.2,1.1C21.3,31.2,21.1,31.2,21,31.2z"/>
	<path clip-path="url(#SVGID_2_)" fill="#020202" d="M30.2,19.8L30.2,19.8c-0.2,0-0.3-0.1-0.5-0.2l-11.4-9.3
		C18,10,17.9,9.6,18.2,9.3c0.2-0.4,0.7-0.4,1.1-0.2l11.4,9.3c0.3,0.3,0.4,0.8,0.1,1.1C30.6,19.7,30.4,19.8,30.2,19.8z"/>
</g>
</svg>
